<svg version="1.1" xmlns="http://www.w3.org/2000/svg" viewBox="0 0 670.1705463232347 541.9679058281024" width="670.1705463232347" height="541.9679058281024" filter="invert(100%) hue-rotate(180deg)">
  <!-- svg-source:excalidraw -->
  
  <defs>
    <style class="style-fonts">
      @font-face {
        font-family: "Virgil";
        src: url("https://excalidraw.com/Virgil.woff2");
      }
      @font-face {
        font-family: "Cascadia";
        src: url("https://excalidraw.com/Cascadia.woff2");
      }
    </style>
    
  </defs>
  <rect x="0" y="0" width="670.1705463232347" height="541.9679058281024" fill="#ffffff"></rect><g stroke-linecap="round"><g transform="translate(134.58045418300708 190.88012298296331) rotate(0 86.02150916088715 30.846220382484404)"><path d="M-0.67 0.05 C28.24 10.37, 143.77 51.12, 172.71 61.13 M1.18 -0.97 C29.98 9.62, 143.17 52.35, 171.69 62.66" stroke="#1e1e1e" stroke-width="1" fill="none"></path></g><g transform="translate(134.58045418300708 190.88012298296331) rotate(0 86.02150916088715 30.846220382484404)"><path d="M172.2 63.65 L158.19 62.78 L161.51 51.08 L173.11 62.08" stroke="none" stroke-width="0" fill="#1e1e1e" fill-rule="evenodd"></path><path d="M171.75 62.47 C168.11 63, 163.31 62.02, 158.23 62.75 M171.53 63.16 C166.24 62.97, 160.65 63.1, 156.62 64.41 M156.49 63.29 C157.36 59.66, 161.12 54.35, 161.78 52.65 M156.23 64.16 C157.72 61.24, 157.84 59.28, 161.39 52.17 M161.83 52.08 C163.55 54.63, 168.06 58.58, 171.16 61.49 M161.78 51.55 C164.37 56.35, 169.27 59.51, 171.89 62.09 M171.69 62.66 C171.69 62.66, 171.69 62.66, 171.69 62.66 M171.69 62.66 C171.69 62.66, 171.69 62.66, 171.69 62.66" stroke="#1e1e1e" stroke-width="1" fill="none"></path></g></g><mask></mask><g stroke-linecap="round"><g transform="translate(305.3826611678942 307.6238533845697) rotate(0 -84.79324453246227 30.7806155341666)"><path d="M-1.12 0.26 C-29.45 10.53, -141.19 50.75, -168.98 60.85 M0.49 -0.66 C-28.11 9.87, -141.96 51.78, -170.08 62.22" stroke="#1e1e1e" stroke-width="1" fill="none"></path></g><g transform="translate(305.3826611678942 307.6238533845697) rotate(0 -84.79324453246227 30.7806155341666)"><path d="M-169.11 63.93 L-159.96 50.6 L-154.08 62.7 L-169.7 61.51" stroke="none" stroke-width="0" fill="#1e1e1e" fill-rule="evenodd"></path><path d="M-169.76 61.86 C-166.37 59.26, -162.39 53.64, -160.78 52.29 M-169.47 61.71 C-168.1 60.18, -165.12 57.12, -159.95 51.57 M-160.37 51.93 C-158.83 55.48, -156.67 59.8, -155.73 64.58 M-159.43 51.48 C-157.65 56.11, -156.51 59.84, -155.6 62.91 M-156.59 64.64 C-159.85 63.15, -163.15 61.86, -171.02 63.66 M-155.25 63.25 C-158.83 63.37, -162.8 63.39, -169.66 61.84 M-170.08 62.22 C-170.08 62.22, -170.08 62.22, -170.08 62.22 M-170.08 62.22 C-170.08 62.22, -170.08 62.22, -170.08 62.22" stroke="#1e1e1e" stroke-width="1" fill="none"></path></g></g><mask></mask><g stroke-linecap="round"><g transform="translate(307.0545361678942 308.2918221345697) rotate(0 88.79570136177915 31.069829582552217)"><path d="M1.03 0.26 C30.11 10.34, 145.97 51.18, 175.13 61.34 M0.12 -0.65 C29.52 9.55, 148.27 52.28, 177.47 62.79" stroke="#1e1e1e" stroke-width="1" fill="none"></path></g><g transform="translate(307.0545361678942 308.2918221345697) rotate(0 88.79570136177915 31.069829582552217)"><path d="M179.17 63.38 L161.63 64.76 L167.57 52.95 L179.38 61.39" stroke="none" stroke-width="0" fill="#1e1e1e" fill-rule="evenodd"></path><path d="M177.8 61.92 C171.94 63.64, 166.5 63.98, 163.07 62.85 M176.98 62.34 C174.79 63.11, 171.02 63.05, 162.37 64.1 M161.46 63.37 C164.35 61.84, 164.74 58.29, 166.94 52.05 M163.09 64.73 C163.25 61.08, 165.1 58.15, 167.13 52.62 M165.91 53.59 C171.11 56.21, 173.87 58.44, 178.7 62.17 M167.5 51.48 C170.59 54.57, 173.48 58.59, 177.11 63.25 M177.47 62.79 C177.47 62.79, 177.47 62.79, 177.47 62.79 M177.47 62.79 C177.47 62.79, 177.47 62.79, 177.47 62.79" stroke="#1e1e1e" stroke-width="1" fill="none"></path></g></g><mask></mask><g stroke-linecap="round" transform="translate(430.763582638941 11.988533340160814) rotate(0 56.24393147625551 46.318531803975134)"><path d="M23.16 0 M23.16 0 C46.47 -1.76, 71.56 -1.2, 89.33 0 M23.16 0 C46.23 1.06, 70.96 0.74, 89.33 0 M89.33 0 C104.32 -0.73, 111.03 7.55, 112.49 23.16 M89.33 0 C106.38 -1.16, 113.63 5.6, 112.49 23.16 M112.49 23.16 C110.66 39.71, 114.29 59.57, 112.49 69.48 M112.49 23.16 C113.09 34.65, 112.64 45.33, 112.49 69.48 M112.49 69.48 C114.22 86.83, 103.25 91.83, 89.33 92.64 M112.49 69.48 C111.1 82.66, 104.25 91.08, 89.33 92.64 M89.33 92.64 C66.94 94.05, 46.68 91.79, 23.16 92.64 M89.33 92.64 C75.01 92.28, 62.21 92.53, 23.16 92.64 M23.16 92.64 C7.15 91.39, 0.52 85.04, 0 69.48 M23.16 92.64 C6.25 93.95, 0.04 86.8, 0 69.48 M0 69.48 C-0.89 51.95, 1.82 36.21, 0 23.16 M0 69.48 C0.28 57.98, 0.87 45.43, 0 23.16 M0 23.16 C-0.05 9.43, 5.82 0.76, 23.16 0 M0 23.16 C1.26 5.69, 9.13 -1.69, 23.16 0" stroke="#1e1e1e" stroke-width="1" fill="none"></path></g><g transform="translate(462.83443367086056 46.491113153325955) rotate(0 24.173080444335938 11.815951990809992)"><text x="24.173080444335938" y="0" font-family="Virgil, Segoe UI Emoji" font-size="18.90552318529597px" fill="#1e1e1e" text-anchor="middle" style="white-space: pre;" direction="ltr" dominant-baseline="text-before-edge">Carol</text></g><g stroke-linecap="round"><g transform="translate(484.56678153209464 104.67729173807089) rotate(0 0.48303930458303057 213.27846025398028)"><path d="M-1.01 0.2 C-1.1 71.49, -0.41 356.31, -0.38 427.29 M0.67 -0.73 C0.96 70.25, 1.85 354.21, 1.98 425.53" stroke="#1e1e1e" stroke-width="1" fill="none"></path></g><g transform="translate(484.56678153209464 104.67729173807089) rotate(0 0.48303930458303057 213.27846025398028)"><path d="M-8.01 396.26 C-4.07 404.36, -2.8 413.93, 3.56 426.55 M-9.08 397.28 C-4.13 406.67, -0.75 416.02, 2.83 425.32" stroke="#1e1e1e" stroke-width="1" fill="none"></path></g><g transform="translate(484.56678153209464 104.67729173807089) rotate(0 0.48303930458303057 213.27846025398028)"><path d="M12.51 396.2 C10.02 404.15, 4.87 413.74, 3.56 426.55 M11.44 397.23 C9.27 406.56, 5.53 415.93, 2.83 425.32" stroke="#1e1e1e" stroke-width="1" fill="none"></path></g></g><mask></mask><g stroke-linecap="round" transform="translate(253.62509896314918 10) rotate(0 56.24393147625551 46.318531803975105)"><path d="M23.16 0 M23.16 0 C43.86 -0.84, 62.27 -0.25, 89.33 0 M23.16 0 C46.83 -0.92, 71.39 -0.64, 89.33 0 M89.33 0 C105.92 -1.91, 111.67 6.56, 112.49 23.16 M89.33 0 C106.58 1.18, 113.57 7.21, 112.49 23.16 M112.49 23.16 C113.56 34.36, 113.14 45.73, 112.49 69.48 M112.49 23.16 C111.53 40.35, 113.34 59.21, 112.49 69.48 M112.49 69.48 C111.09 84.51, 105.69 94.03, 89.33 92.64 M112.49 69.48 C114.37 85.49, 106.68 94.63, 89.33 92.64 M89.33 92.64 C61.95 90.41, 36.52 91.01, 23.16 92.64 M89.33 92.64 C67.32 93.12, 46.38 91.98, 23.16 92.64 M23.16 92.64 C5.94 93.27, 0.55 84.2, 0 69.48 M23.16 92.64 C6.49 94.49, -0.66 84.26, 0 69.48 M0 69.48 C-1.4 59.61, -0.09 49.11, 0 23.16 M0 69.48 C-0.4 52.86, 0.96 37.13, 0 23.16 M0 23.16 C-0.64 8.14, 8.87 0.75, 23.16 0 M0 23.16 C2.13 9.94, 9.53 -0.06, 23.16 0" stroke="#1e1e1e" stroke-width="1" fill="none"></path></g><g transform="translate(292.96298643305704 44.50257981316514) rotate(0 16.906044006347656 11.815951990809992)"><text x="16.906044006347656" y="0" font-family="Virgil, Segoe UI Emoji" font-size="18.90552318529597px" fill="#1e1e1e" text-anchor="middle" style="white-space: pre;" direction="ltr" dominant-baseline="text-before-edge">Bob</text></g><g stroke-linecap="round"><g transform="translate(307.4282978563033 102.68875839791002) rotate(0 -1.4552680044981798 211.4479874307665)"><path d="M-0.75 0.27 C-1.09 70.72, -2.35 353.09, -2.81 423.53 M1.05 -0.63 C0.59 69.41, -3.6 350.98, -3.96 421.8" stroke="#1e1e1e" stroke-width="1" fill="none"></path></g><g transform="translate(307.4282978563033 102.68875839791002) rotate(0 -1.4552680044981798 211.4479874307665)"><path d="M-13.47 392.84 C-10.11 398.5, -8.75 406.26, -5.64 422.14 M-14.33 392.93 C-10.54 401.03, -8.42 407.22, -4.33 421.08" stroke="#1e1e1e" stroke-width="1" fill="none"></path></g><g transform="translate(307.4282978563033 102.68875839791002) rotate(0 -1.4552680044981798 211.4479874307665)"><path d="M7.05 393.06 C5.55 398.54, 2.05 406.24, -5.64 422.14 M6.19 393.15 C4.96 401, 2.06 407.13, -4.33 421.08" stroke="#1e1e1e" stroke-width="1" fill="none"></path></g></g><mask></mask><g stroke-linecap="round" transform="translate(81.84908941405502 10.304729794003435) rotate(0 56.24393147625551 46.318531803975134)"><path d="M23.16 0 M23.16 0 C39.62 1.19, 53.81 0.12, 89.33 0 M23.16 0 C43.84 0.76, 64.62 0.88, 89.33 0 M89.33 0 C104.39 1.17, 112.51 8.85, 112.49 23.16 M89.33 0 C106.43 -0.19, 111.14 5.73, 112.49 23.16 M112.49 23.16 C112.7 40.22, 114.02 59.75, 112.49 69.48 M112.49 23.16 C112.69 34.12, 113.21 45.77, 112.49 69.48 M112.49 69.48 C113.91 83.76, 104.87 92.98, 89.33 92.64 M112.49 69.48 C112.82 82.79, 103.6 94.24, 89.33 92.64 M89.33 92.64 C73.91 90.11, 61.13 92.01, 23.16 92.64 M89.33 92.64 C73.15 93.46, 54.9 92.41, 23.16 92.64 M23.16 92.64 C6.35 93.76, -1.52 83.12, 0 69.48 M23.16 92.64 C6.77 93.07, 0.72 82.65, 0 69.48 M0 69.48 C0.76 56.89, 0.56 49.52, 0 23.16 M0 69.48 C0.63 52.1, -0.1 35.62, 0 23.16 M0 23.16 C0.01 8.68, 7.09 0.91, 23.16 0 M0 23.16 C-0.71 5.8, 7.44 2.28, 23.16 0" stroke="#1e1e1e" stroke-width="1" fill="none"></path></g><g transform="translate(114.25068995769334 44.80730960716858) rotate(0 23.842330932617188 11.815951990809992)"><text x="23.842330932617188" y="0" font-family="Virgil, Segoe UI Emoji" font-size="18.90552318529597px" fill="#1e1e1e" text-anchor="middle" style="white-space: pre;" direction="ltr" dominant-baseline="text-before-edge">ALice</text></g><g stroke-linecap="round"><g transform="translate(135.65228830720912 102.9934881919134) rotate(0 -0.2125783902022249 211.74789538238684)"><path d="M-0.71 -0.19 C-0.83 70.54, -0.78 352.65, -0.69 423.49 M1.12 -1.34 C0.86 69.64, -1.25 354.1, -1.54 424.84" stroke="#1e1e1e" stroke-width="1" fill="none"></path></g><g transform="translate(135.65228830720912 102.9934881919134) rotate(0 -0.2125783902022249 211.74789538238684)"><path d="M-11.96 396.9 C-9.43 406.24, -4.09 412.58, -1.46 425.51 M-12.21 396.89 C-8.18 405.08, -5.2 412.88, -0.69 424.23" stroke="#1e1e1e" stroke-width="1" fill="none"></path></g><g transform="translate(135.65228830720912 102.9934881919134) rotate(0 -0.2125783902022249 211.74789538238684)"><path d="M8.56 397.02 C4.93 406.2, 4.11 412.51, -1.46 425.51 M8.31 397.01 C6.61 405.05, 3.86 412.82, -0.69 424.23" stroke="#1e1e1e" stroke-width="1" fill="none"></path></g></g><mask></mask><g transform="translate(10 164.9878426082036) rotate(0 54.828857421875 11.815951990809992)"><text x="0" y="0" font-family="Virgil, Segoe UI Emoji" font-size="18.90552318529597px" fill="#1e1e1e" text-anchor="start" style="white-space: pre;" direction="ltr" dominant-baseline="text-before-edge">"Bob Smells"</text></g><g transform="translate(316.286589414055 280.9729083401608) rotate(0 78.21994018554688 12.5)"><text x="0" y="0" font-family="Virgil, Segoe UI Emoji" font-size="20px" fill="#1e1e1e" text-anchor="start" style="white-space: pre;" direction="ltr" dominant-baseline="text-before-edge">"Fuck you, Alice"</text></g><g stroke-linecap="round"><g transform="translate(135.74362066405502 189.9690020901608) rotate(0 174.46790203285877 133.06324117262847)"><path d="M0.15 0.9 C58.68 45.11, 291.67 220.37, 350.16 264.38 M-1.23 0.32 C57.18 44.8, 290.3 221.46, 348.92 265.8" stroke="#1e1e1e" stroke-width="1" fill="none"></path></g><g transform="translate(135.74362066405502 189.9690020901608) rotate(0 174.46790203285877 133.06324117262847)"><path d="M350.76 264.89 L333.85 263.72 L343.32 250.69 L347.3 265.59" stroke="none" stroke-width="0" fill="#1e1e1e" fill-rule="evenodd"></path><path d="M350.04 265.11 C345.48 265.59, 342.94 265.22, 334.04 263.49 M348.47 265.68 C344.03 264.29, 339.13 262.89, 334.81 263.3 M333.1 261.9 C335.97 261.6, 337.74 259.57, 340.73 251.68 M333.88 262.86 C336.15 259.49, 338.14 256.62, 341.86 252.92 M343.13 251.77 C345.67 257.2, 348.4 262.49, 349.95 267.06 M341.26 252.22 C344.02 256.04, 345.65 259.35, 349.24 266.17 M348.92 265.8 C348.92 265.8, 348.92 265.8, 348.92 265.8 M348.92 265.8 C348.92 265.8, 348.92 265.8, 348.92 265.8" stroke="#1e1e1e" stroke-width="1" fill="none"></path></g></g><mask></mask><g transform="translate(508.950651914055 384.3830645901608) rotate(0 75.60994720458984 25)"><text x="0" y="0" font-family="Virgil, Segoe UI Emoji" font-size="20px" fill="#1e1e1e" text-anchor="start" style="white-space: pre;" direction="ltr" dominant-baseline="text-before-edge">??</text><text x="0" y="25" font-family="Virgil, Segoe UI Emoji" font-size="20px" fill="#1e1e1e" text-anchor="start" style="white-space: pre;" direction="ltr" dominant-baseline="text-before-edge">Causal Anomaly</text></g></svg>
