<svg version="1.1" xmlns="http://www.w3.org/2000/svg" viewBox="0 0 505.1332702636719 441.89863817878063" width="505.1332702636719" height="441.89863817878063" filter="invert(100%) hue-rotate(180deg)">
  <!-- svg-source:excalidraw -->
  
  <defs>
    <style class="style-fonts">
      @font-face {
        font-family: "Virgil";
        src: url("https://excalidraw.com/Virgil.woff2");
      }
      @font-face {
        font-family: "Cascadia";
        src: url("https://excalidraw.com/Cascadia.woff2");
      }
    </style>
    
  </defs>
  <rect x="0" y="0" width="505.1332702636719" height="441.89863817878063" fill="#ffffff"></rect><g stroke-linecap="round" transform="translate(52.6875 11.2421875) rotate(0 41.39453125 36.5546875)"><path d="M18.28 0 M18.28 0 C28.83 -0.08, 40.74 -1.23, 64.51 0 M18.28 0 C32.32 0.66, 47.11 1.01, 64.51 0 M64.51 0 C76.24 -1.03, 82.27 7.01, 82.79 18.28 M64.51 0 C75.2 0.37, 80.59 5.45, 82.79 18.28 M82.79 18.28 C81.24 27.07, 81.73 39.83, 82.79 54.83 M82.79 18.28 C82.23 28.22, 82.64 39.31, 82.79 54.83 M82.79 54.83 C81.59 66.84, 78.05 74.04, 64.51 73.11 M82.79 54.83 C83.81 67.29, 78.86 73.95, 64.51 73.11 M64.51 73.11 C54.38 72.27, 42.13 71.85, 18.28 73.11 M64.51 73.11 C49.38 74.21, 34.55 73.3, 18.28 73.11 M18.28 73.11 C4.28 73.48, -1.94 67.57, 0 54.83 M18.28 73.11 C4.81 73.29, -0.35 65.85, 0 54.83 M0 54.83 C2.08 42.57, 1.86 32.34, 0 18.28 M0 54.83 C0.73 45.98, -0.64 35.07, 0 18.28 M0 18.28 C1.66 7.34, 4.31 -0.68, 18.28 0 M0 18.28 C0.36 7.5, 4.3 1.89, 18.28 0" stroke="#1e1e1e" stroke-width="1" fill="none"></path></g><g transform="translate(80.592041015625 35.296875) rotate(0 13.489990234375 12.5)"><text x="13.489990234375" y="0" font-family="Virgil, Segoe UI Emoji" font-size="20px" fill="#1e1e1e" text-anchor="middle" style="white-space: pre;" direction="ltr" dominant-baseline="text-before-edge">P0</text></g><g stroke-linecap="round"><g transform="translate(93.2578125 85.84765625) rotate(0 -0.8377945841103838 172.6120584634691)"><path d="M-0.91 0.14 C-1.11 57.77, -1.25 288.44, -1.42 346.05 M0.81 -0.83 C0.45 56.48, -2.45 287.08, -2.49 344.55" stroke="#1e1e1e" stroke-width="1" fill="none"></path></g><g transform="translate(93.2578125 85.84765625) rotate(0 -0.8377945841103838 172.6120584634691)"><path d="M-12.3 315.9 C-7.64 323.15, -5.14 331.64, -0.98 344.91 M-13.11 315.45 C-9.47 325.52, -5.19 335.65, -2.65 344.85" stroke="#1e1e1e" stroke-width="1" fill="none"></path></g><g transform="translate(93.2578125 85.84765625) rotate(0 -0.8377945841103838 172.6120584634691)"><path d="M8.22 316.05 C7.06 323.11, 3.72 331.55, -0.98 344.91 M7.41 315.6 C3.89 325.71, 1.01 335.79, -2.65 344.85" stroke="#1e1e1e" stroke-width="1" fill="none"></path></g></g><mask></mask><g stroke-linecap="round" transform="translate(221.796875 10) rotate(0 41.39453125 36.5546875)"><path d="M18.28 0 M18.28 0 C29.76 0.41, 39.15 -0.45, 64.51 0 M18.28 0 C33.8 -0.48, 47.58 0.16, 64.51 0 M64.51 0 C75.63 1.94, 81.1 6.98, 82.79 18.28 M64.51 0 C78.27 2.23, 83.01 7.99, 82.79 18.28 M82.79 18.28 C84.56 28.78, 81.52 43.31, 82.79 54.83 M82.79 18.28 C81.61 26.95, 82.98 34.89, 82.79 54.83 M82.79 54.83 C82.36 66.34, 77.98 71.78, 64.51 73.11 M82.79 54.83 C80.79 67.07, 76.6 74.05, 64.51 73.11 M64.51 73.11 C50.43 74.78, 37.3 74.58, 18.28 73.11 M64.51 73.11 C47.55 73.41, 31.39 74.2, 18.28 73.11 M18.28 73.11 C6.85 73.49, 1.09 66.92, 0 54.83 M18.28 73.11 C7.19 74.71, 1.31 64.73, 0 54.83 M0 54.83 C1.96 47.9, 1.37 40.16, 0 18.28 M0 54.83 C-0.1 46.14, -0.97 35.82, 0 18.28 M0 18.28 C-0.47 7.17, 7.81 0.48, 18.28 0 M0 18.28 C1.26 6.24, 8.23 2.2, 18.28 0" stroke="#1e1e1e" stroke-width="1" fill="none"></path></g><g transform="translate(253.8714141845703 34.0546875) rotate(0 9.319992065429688 12.5)"><text x="9.319992065429688" y="0" font-family="Virgil, Segoe UI Emoji" font-size="20px" fill="#1e1e1e" text-anchor="middle" style="white-space: pre;" direction="ltr" dominant-baseline="text-before-edge">P1</text></g><g stroke-linecap="round"><g transform="translate(262.3671875 84.60546875) rotate(0 -1.1508391946218808 173.46040124019606)"><path d="M0.24 0.84 C0 58.18, -1.35 287.57, -1.46 345.04 M-1.09 0.24 C-1.51 58.31, -2.6 289.42, -2.54 346.68" stroke="#1e1e1e" stroke-width="1" fill="none"></path></g><g transform="translate(262.3671875 84.60546875) rotate(0 -1.1508391946218808 173.46040124019606)"><path d="M-11.33 318.02 C-9.12 328.24, -5 337.28, -2.86 346.95 M-13.58 318.91 C-8.66 329.15, -5.7 338.81, -2.28 347.34" stroke="#1e1e1e" stroke-width="1" fill="none"></path></g><g transform="translate(262.3671875 84.60546875) rotate(0 -1.1508391946218808 173.46040124019606)"><path d="M9.19 318.07 C5.23 328.32, 3.19 337.34, -2.86 346.95 M6.94 318.95 C4.72 329.38, 0.54 339.03, -2.28 347.34" stroke="#1e1e1e" stroke-width="1" fill="none"></path></g></g><mask></mask><g stroke-linecap="round" transform="translate(380.35546875 10) rotate(0 41.39453125 36.5546875)"><path d="M18.28 0 M18.28 0 C34.74 -0.63, 47.72 0.64, 64.51 0 M18.28 0 C30.13 1.07, 42.08 0.49, 64.51 0 M64.51 0 C78.34 0.54, 84.11 6.49, 82.79 18.28 M64.51 0 C78.45 -1.67, 81.06 7.39, 82.79 18.28 M82.79 18.28 C80.77 27.27, 83.49 34.79, 82.79 54.83 M82.79 18.28 C82 27.59, 82.69 38.59, 82.79 54.83 M82.79 54.83 C83.61 66.49, 76.68 71.73, 64.51 73.11 M82.79 54.83 C81.14 69.31, 74.51 75.17, 64.51 73.11 M64.51 73.11 C46.83 73.45, 30.74 75.02, 18.28 73.11 M64.51 73.11 C48.83 73.84, 33.94 73.93, 18.28 73.11 M18.28 73.11 C4.1 71.53, -0.66 67.25, 0 54.83 M18.28 73.11 C8.21 74.44, 1.43 68.74, 0 54.83 M0 54.83 C-0.23 46.67, -1.97 35.25, 0 18.28 M0 54.83 C0.04 45.28, -0.14 35.56, 0 18.28 M0 18.28 C1.91 4.52, 7.05 0.03, 18.28 0 M0 18.28 C-2.22 7.52, 3.96 -1.67, 18.28 0" stroke="#1e1e1e" stroke-width="1" fill="none"></path></g><g transform="translate(408.02001190185547 34.0546875) rotate(0 13.729988098144531 12.5)"><text x="13.729988098144531" y="0" font-family="Virgil, Segoe UI Emoji" font-size="20px" fill="#1e1e1e" text-anchor="middle" style="white-space: pre;" direction="ltr" dominant-baseline="text-before-edge">P2</text></g><g stroke-linecap="round"><g transform="translate(420.92578125 84.60546875) rotate(0 -1.0389359284746433 172.31440998740493)"><path d="M-0.19 0.16 C-0.43 57.35, -0.64 286.94, -0.61 344.22 M-1.75 -0.8 C-2.17 57.05, -1.52 287.85, -1.26 345.42" stroke="#1e1e1e" stroke-width="1" fill="none"></path></g><g transform="translate(420.92578125 84.60546875) rotate(0 -1.0389359284746433 172.31440998740493)"><path d="M-11.34 318.22 C-8.6 329.6, -5.41 338.92, 0.1 347.37 M-10.96 317.47 C-7.42 325.23, -5.73 335.23, -1.97 344.53" stroke="#1e1e1e" stroke-width="1" fill="none"></path></g><g transform="translate(420.92578125 84.60546875) rotate(0 -1.0389359284746433 172.31440998740493)"><path d="M9.18 318.16 C4.36 329.52, -0.01 338.86, 0.1 347.37 M9.57 317.4 C6.75 325.24, 2.09 335.26, -1.97 344.53" stroke="#1e1e1e" stroke-width="1" fill="none"></path></g></g><mask></mask><g stroke-linecap="round"><g transform="translate(94.0703125 116.03515625) rotate(0 83.89544597366148 15.44491624732322)"><path d="M1.16 -0.71 C28.89 4.38, 139.89 24.98, 167.48 30.46 M0.32 1.54 C27.76 6.76, 138.28 26.81, 166.39 31.6" stroke="#1e1e1e" stroke-width="1" fill="none"></path></g><g transform="translate(94.0703125 116.03515625) rotate(0 83.89544597366148 15.44491624732322)"><path d="M165.94 31.79 L153.3 34.97 L152.53 24.49 L164.74 30.75" stroke="none" stroke-width="0" fill="#1e1e1e" fill-rule="evenodd"></path><path d="M165.51 31.27 C159.73 31.94, 156.11 35.25, 153.3 36.26 M166.62 31.02 C160.29 32.73, 155.08 33.9, 152.38 35.13 M151.21 36.31 C152.73 30.98, 152.82 26.89, 154.38 23.65 M151.55 35.54 C152.07 32.03, 152.6 28.24, 153.65 22.47 M152.67 24.15 C158.73 25.01, 162.59 28.24, 165.59 31.9 M153.55 23.64 C158.64 26, 163.87 29.48, 166.75 31.59 M166.39 31.6 C166.39 31.6, 166.39 31.6, 166.39 31.6 M166.39 31.6 C166.39 31.6, 166.39 31.6, 166.39 31.6" stroke="#1e1e1e" stroke-width="1" fill="none"></path></g></g><mask></mask><g stroke-linecap="round"><g transform="translate(94.84375 118.1875) rotate(0 162.51987035505476 120.33457499427004)"><path d="M-0.14 0.87 C54.47 40.96, 272.3 200.35, 326.72 240.39 M-1.68 0.28 C52.88 40, 271.31 198.56, 325.84 238.38" stroke="#1e1e1e" stroke-width="1" fill="none"></path></g><g transform="translate(94.84375 118.1875) rotate(0 162.51987035505476 120.33457499427004)"><path d="M325.1 237.36 L312.38 235.1 L318.24 224.06 L325.44 238.19" stroke="none" stroke-width="0" fill="#1e1e1e" fill-rule="evenodd"></path><path d="M326.93 238.55 C322.88 237.46, 320.51 236.98, 311.1 236.34 M326.11 238.83 C321.62 237.98, 317.57 236.8, 311.83 235.98 M310.48 236.13 C312.63 232.61, 313.91 231.14, 318.82 225.27 M310.52 235.85 C313.37 233.77, 314.11 230.56, 318.59 224.66 M319.22 225.47 C320.07 228.4, 323.48 232.51, 326.25 239.82 M318.56 225.39 C319.84 228.59, 322.04 231.69, 326.27 239.12 M325.84 238.38 C325.84 238.38, 325.84 238.38, 325.84 238.38 M325.84 238.38 C325.84 238.38, 325.84 238.38, 325.84 238.38" stroke="#1e1e1e" stroke-width="1" fill="none"></path></g></g><mask></mask><g stroke-linecap="round"><g transform="translate(420.40234375000045 156.65113804559132) rotate(0 -79.96879504318167 18.81126943800689)"><path d="M0.06 -0.17 C-26.47 6.15, -133.51 31.26, -160 37.74 M-1.36 -1.31 C-27.44 5.17, -131.29 32.02, -157.64 38.93" stroke="#1e1e1e" stroke-width="1" fill="none"></path></g><g transform="translate(420.40234375000045 156.65113804559132) rotate(0 -79.96879504318167 18.81126943800689)"><path d="M-157.92 40.77 L-145.95 28.9 L-142.47 40.19 L-155.89 40.86" stroke="none" stroke-width="0" fill="#1e1e1e" fill-rule="evenodd"></path><path d="M-157.85 38.1 C-155.73 37.21, -151.84 34.34, -144.6 30.75 M-157.61 38.4 C-153.96 36.15, -150.92 32.66, -145.74 28.83 M-146.16 29.51 C-144.3 31.39, -145.69 34.86, -141.64 40.38 M-146.46 29.98 C-145.62 32.38, -143.84 34.87, -143.23 41.79 M-142.58 41.76 C-148.14 40.95, -151.34 40.48, -157 38.7 M-142.64 42.1 C-146.59 40.91, -149.2 40.61, -157.29 38.77 M-157.64 38.93 C-157.64 38.93, -157.64 38.93, -157.64 38.93 M-157.64 38.93 C-157.64 38.93, -157.64 38.93, -157.64 38.93" stroke="#1e1e1e" stroke-width="1" fill="none"></path></g></g><mask></mask><g stroke-linecap="round"><g transform="translate(418.2070312500002 156.2500000000001) rotate(0 -161.76523447893578 88.15373167969281)"><path d="M-0.56 0.73 C-54.81 29.97, -270.96 145.74, -324.88 174.89 M1.35 0.07 C-52.57 29.53, -268.2 147.34, -322.55 176.24" stroke="#1e1e1e" stroke-width="1" fill="none"></path></g><g transform="translate(418.2070312500002 156.2500000000001) rotate(0 -161.76523447893578 88.15373167969281)"><path d="M-322.17 175.66 L-314.53 165.07 L-306.62 175.63 L-322.49 178.1" stroke="none" stroke-width="0" fill="#1e1e1e" fill-rule="evenodd"></path><path d="M-321.64 175.33 C-319.79 172.18, -315.76 168.4, -314.19 162.73 M-321.95 176.67 C-318.73 171.79, -315.06 166.66, -313.71 164.89 M-314.53 165.31 C-310.56 168.39, -310.04 169.97, -308.8 174.92 M-313.42 164.15 C-311.82 167.55, -309.04 172.23, -307.39 175.49 M-308.61 175.59 C-312.52 174.29, -317.85 175.11, -323.17 176.54 M-307.85 175.32 C-310.93 176.34, -314.32 175.65, -322.75 176.6 M-322.55 176.24 C-322.55 176.24, -322.55 176.24, -322.55 176.24 M-322.55 176.24 C-322.55 176.24, -322.55 176.24, -322.55 176.24" stroke="#1e1e1e" stroke-width="1" fill="none"></path></g></g><mask></mask><g transform="translate(10 119.87890625) rotate(0 31.519989013671875 12.5)"><text x="0" y="0" font-family="Virgil, Segoe UI Emoji" font-size="20px" fill="#1971c2" text-anchor="start" style="white-space: pre;" direction="ltr" dominant-baseline="text-before-edge">[1,0,0]</text></g><g transform="translate(432.0932922363281 144.44140625) rotate(0 31.519989013671875 12.5)"><text x="0" y="0" font-family="Virgil, Segoe UI Emoji" font-size="20px" fill="#1971c2" text-anchor="start" style="white-space: pre;" direction="ltr" dominant-baseline="text-before-edge">[0,0,1]</text></g><g transform="translate(154.70266723632812 101.40234375) rotate(10.903048550383104 31.519989013671875 12.5)"><text x="0" y="0" font-family="Virgil, Segoe UI Emoji" font-size="20px" fill="#2f9e44" text-anchor="start" style="white-space: pre;" direction="ltr" dominant-baseline="text-before-edge">[1,0,0]</text></g><g transform="translate(298.5464172363281 151.05078125000006) rotate(344.614506973473 31.519989013671875 12.5)"><text x="0" y="0" font-family="Virgil, Segoe UI Emoji" font-size="20px" fill="#2f9e44" text-anchor="start" style="white-space: pre;" direction="ltr" dominant-baseline="text-before-edge">[0,0,1]</text></g><g transform="translate(149.83547973632812 191.02343750000006) rotate(39.52540737743003 31.519989013671875 12.5)"><text x="0" y="0" font-family="Virgil, Segoe UI Emoji" font-size="20px" fill="#2f9e44" text-anchor="start" style="white-space: pre;" direction="ltr" dominant-baseline="text-before-edge">[1,0,0]</text></g><g transform="translate(120.36672973632812 267.53515625) rotate(331.94610955148914 31.519989013671875 12.5)"><text x="0" y="0" font-family="Virgil, Segoe UI Emoji" font-size="20px" fill="#2f9e44" text-anchor="start" style="white-space: pre;" direction="ltr" dominant-baseline="text-before-edge">[0,0,1]</text></g><g transform="translate(15.015167236328125 320.73828125) rotate(0 27.349990844726562 12.5)"><text x="0" y="0" font-family="Virgil, Segoe UI Emoji" font-size="20px" fill="#1971c2" text-anchor="start" style="white-space: pre;" direction="ltr" dominant-baseline="text-before-edge">[1,0,1]</text></g><g transform="translate(435.0464172363281 345.15625) rotate(0 27.349990844726562 12.5)"><text x="0" y="0" font-family="Virgil, Segoe UI Emoji" font-size="20px" fill="#1971c2" text-anchor="start" style="white-space: pre;" direction="ltr" dominant-baseline="text-before-edge">[1,0,1]</text></g><g transform="translate(267.6050109863281 110.93359375) rotate(0 31.519989013671875 12.5)"><text x="0" y="0" font-family="Virgil, Segoe UI Emoji" font-size="20px" fill="#1971c2" text-anchor="start" style="white-space: pre;" direction="ltr" dominant-baseline="text-before-edge">[1,0,0]</text></g><g transform="translate(195.54641723632812 168.53125) rotate(0 27.349990844726562 12.5)"><text x="0" y="0" font-family="Virgil, Segoe UI Emoji" font-size="20px" fill="#1971c2" text-anchor="start" style="white-space: pre;" direction="ltr" dominant-baseline="text-before-edge">[1,0,1]</text></g></svg>
