<svg version="1.1" xmlns="http://www.w3.org/2000/svg" viewBox="0 0 425.5957031249998 345.3089363401383" width="425.5957031249998" height="345.3089363401383" filter="invert(100%) hue-rotate(180deg)">
  <!-- svg-source:excalidraw -->
  
  <defs>
    <style class="style-fonts">
      @font-face {
        font-family: "Virgil";
        src: url("https://excalidraw.com/Virgil.woff2");
      }
      @font-face {
        font-family: "Cascadia";
        src: url("https://excalidraw.com/Cascadia.woff2");
      }
    </style>
    
  </defs>
  <rect x="0" y="0" width="425.5957031249998" height="345.3089363401383" fill="#ffffff"></rect><g stroke-linecap="round" transform="translate(10 10) rotate(0 39.13248697916663 31.61295572916667)"><path d="M15.81 0 M15.81 0 C27.11 -0.07, 41.88 -0.91, 62.46 0 M15.81 0 C32.3 -0.43, 47.7 0.83, 62.46 0 M62.46 0 C72.44 -1.32, 77.73 6.86, 78.26 15.81 M62.46 0 C74.03 1.5, 79.44 3.79, 78.26 15.81 M78.26 15.81 C77.73 24.49, 77.06 29.21, 78.26 47.42 M78.26 15.81 C77.22 25.7, 78.81 36.18, 78.26 47.42 M78.26 47.42 C78.69 59.77, 73.96 64.38, 62.46 63.23 M78.26 47.42 C78 56.18, 73.75 65.21, 62.46 63.23 M62.46 63.23 C49.47 63.74, 36.53 62.75, 15.81 63.23 M62.46 63.23 C49.47 62.49, 35.25 62.75, 15.81 63.23 M15.81 63.23 C4.33 62.84, -1.57 59.24, 0 47.42 M15.81 63.23 C3 63.44, 1.44 57.27, 0 47.42 M0 47.42 C0.95 35.56, -0.6 25.32, 0 15.81 M0 47.42 C-1.15 37.98, 0.58 30.98, 0 15.81 M0 15.81 C0.25 4.83, 6.49 -0.6, 15.81 0 M0 15.81 C-0.97 4.35, 5.39 -1.12, 15.81 0" stroke="#1e1e1e" stroke-width="1" fill="none"></path></g><g transform="translate(35.81249491373683 29.112955729166657) rotate(0 13.319992065429688 12.5)"><text x="13.319992065429688" y="0" font-family="Virgil, Segoe UI Emoji" font-size="20px" fill="#1e1e1e" text-anchor="middle" style="white-space: pre;" direction="ltr" dominant-baseline="text-before-edge">N0</text></g><g stroke-linecap="round"><g transform="translate(50.348307291666515 73.16080729166666) rotate(0 -1.7133166113246716 130.70836042525866)"><path d="M0.44 0.72 C-0.38 44.18, -3.3 216.55, -3.86 259.81 M-0.79 0.06 C-1.32 43.8, -1.09 218.34, -1.57 261.36" stroke="#1e1e1e" stroke-width="1" fill="none"></path></g><g transform="translate(50.348307291666515 73.16080729166666) rotate(0 -1.7133166113246716 130.70836042525866)"><path d="M-10.51 231.79 C-7.95 244.21, -3.27 253.57, -0.53 260.84 M-12.41 233.11 C-8.13 244.01, -4.81 254.25, -1.93 261.97" stroke="#1e1e1e" stroke-width="1" fill="none"></path></g><g transform="translate(50.348307291666515 73.16080729166666) rotate(0 -1.7133166113246716 130.70836042525866)"><path d="M10.01 231.88 C4.61 244.33, 1.33 253.67, -0.53 260.84 M8.11 233.19 C4.5 244.12, -0.08 254.33, -1.93 261.97" stroke="#1e1e1e" stroke-width="1" fill="none"></path></g></g><mask></mask><g stroke-linecap="round" transform="translate(182.32747395833326 10.72265625) rotate(0 39.13248697916663 31.61295572916667)"><path d="M15.81 0 M15.81 0 C27.56 0.95, 40.27 -0.96, 62.46 0 M15.81 0 C29.42 -1.26, 42.48 -0.52, 62.46 0 M62.46 0 C71.31 1.39, 77.57 5.02, 78.26 15.81 M62.46 0 C73.11 1.2, 80.23 3.3, 78.26 15.81 M78.26 15.81 C76.48 24.05, 77.85 36.08, 78.26 47.42 M78.26 15.81 C77.83 23.05, 77.64 33.04, 78.26 47.42 M78.26 47.42 C76.71 58.49, 72.73 61.42, 62.46 63.23 M78.26 47.42 C76.64 56.12, 71.83 64.44, 62.46 63.23 M62.46 63.23 C45.36 64.27, 24.8 63.83, 15.81 63.23 M62.46 63.23 C48.48 64.53, 33.07 64.24, 15.81 63.23 M15.81 63.23 C4.65 63.8, 1.47 56.57, 0 47.42 M15.81 63.23 C6.4 63.25, -1.44 58.7, 0 47.42 M0 47.42 C-1.16 36.66, -1.63 25.54, 0 15.81 M0 47.42 C0.83 41.21, -0.42 33.15, 0 15.81 M0 15.81 C0.04 4.76, 4 0.81, 15.81 0 M0 15.81 C0.06 6.65, 7.2 -0.5, 15.81 0" stroke="#1e1e1e" stroke-width="1" fill="none"></path></g><g transform="translate(212.30996704101562 29.835611979166657) rotate(0 9.149993896484375 12.5)"><text x="9.149993896484375" y="0" font-family="Virgil, Segoe UI Emoji" font-size="20px" fill="#1e1e1e" text-anchor="middle" style="white-space: pre;" direction="ltr" dominant-baseline="text-before-edge">N1</text></g><g stroke-linecap="round"><g transform="translate(222.67578124999977 74.22526041666666) rotate(0 -1.994209605057904 130.73213413926462)"><path d="M0.7 0.94 C0.02 44.18, -2.88 216.29, -3.51 259.63 M-0.39 0.38 C-1.32 43.8, -4.11 217.94, -4.69 261.08" stroke="#1e1e1e" stroke-width="1" fill="none"></path></g><g transform="translate(222.67578124999977 74.22526041666666) rotate(0 -1.994209605057904 130.73213413926462)"><path d="M-12.97 232 C-11.32 242.49, -5.67 252.81, -6.28 260.82 M-14.87 232.62 C-11.82 241.52, -8.13 248.46, -4.58 260.54" stroke="#1e1e1e" stroke-width="1" fill="none"></path></g><g transform="translate(222.67578124999977 74.22526041666666) rotate(0 -1.994209605057904 130.73213413926462)"><path d="M7.55 232.31 C2.07 242.81, 0.57 253.03, -6.28 260.82 M5.65 232.92 C2.67 241.88, 0.34 248.73, -4.58 260.54" stroke="#1e1e1e" stroke-width="1" fill="none"></path></g></g><mask></mask><g stroke-linecap="round" transform="translate(337.3307291666665 10.305989583333343) rotate(0 39.13248697916663 31.612955729166686)"><path d="M15.81 0 M15.81 0 C25.58 1.54, 34.25 2.08, 62.46 0 M15.81 0 C28.82 -0.65, 43.84 -0.71, 62.46 0 M62.46 0 C71.81 1.57, 79.42 6.65, 78.26 15.81 M62.46 0 C72.71 0.54, 80.09 7.54, 78.26 15.81 M78.26 15.81 C77.17 22.99, 77.93 29.34, 78.26 47.42 M78.26 15.81 C79.12 22.74, 78.09 29.21, 78.26 47.42 M78.26 47.42 C77.95 58.61, 72.74 64.62, 62.46 63.23 M78.26 47.42 C80.08 59.47, 72.48 64.4, 62.46 63.23 M62.46 63.23 C48.28 62.73, 31.44 62.47, 15.81 63.23 M62.46 63.23 C47.33 63.48, 31.25 63.02, 15.81 63.23 M15.81 63.23 C4.09 64.79, 0.28 56.46, 0 47.42 M15.81 63.23 C7.46 65.42, 1.59 59.02, 0 47.42 M0 47.42 C-1.49 41, 0 33.57, 0 15.81 M0 47.42 C-0.73 37.11, 0.22 27.1, 0 15.81 M0 15.81 C-1.4 5.88, 6.62 0.87, 15.81 0 M0 15.81 C0.99 7.56, 5.32 -1.5, 15.81 0" stroke="#1e1e1e" stroke-width="1" fill="none"></path></g><g transform="translate(362.9032262166338 29.41894531250003) rotate(0 13.559989929199219 12.5)"><text x="13.559989929199219" y="0" font-family="Virgil, Segoe UI Emoji" font-size="20px" fill="#1e1e1e" text-anchor="middle" style="white-space: pre;" direction="ltr" dominant-baseline="text-before-edge">N2</text></g><g stroke-linecap="round"><g transform="translate(377.3404947916665 73.46679687499997) rotate(0 -0.7891526857514464 130.34199515099328)"><path d="M0.77 -0.57 C0.55 42.71, -1.46 216.36, -1.97 259.74 M-0.29 1.75 C-0.51 45.23, -1.96 218.05, -2.34 261.25" stroke="#1e1e1e" stroke-width="1" fill="none"></path></g><g transform="translate(377.3404947916665 73.46679687499997) rotate(0 -0.7891526857514464 130.34199515099328)"><path d="M-13.31 234.8 C-9.98 241.14, -7.64 245.08, -3.73 261.98 M-11.79 233.66 C-10.4 239.49, -7.23 246.61, -3.33 260.84" stroke="#1e1e1e" stroke-width="1" fill="none"></path></g><g transform="translate(377.3404947916665 73.46679687499997) rotate(0 -0.7891526857514464 130.34199515099328)"><path d="M7.21 234.97 C5.54 241.4, 2.87 245.3, -3.73 261.98 M8.73 233.84 C5.5 239.79, 4.06 246.87, -3.33 260.84" stroke="#1e1e1e" stroke-width="1" fill="none"></path></g></g><mask></mask><g stroke-linecap="round"><g transform="translate(51.00260416666674 125.01627604166666) rotate(0 85.3445798177271 9.259682036827655)"><path d="M-0.27 -0.69 C28.16 2.23, 142.53 14.85, 170.96 17.97 M1.79 1.57 C30.04 4.59, 142.15 16.28, 170.07 19.21" stroke="#1e1e1e" stroke-width="1" fill="none"></path></g><g transform="translate(51.00260416666674 125.01627604166666) rotate(0 85.3445798177271 9.259682036827655)"><path d="M168.66 19.88 L156.13 22.48 L158.27 13.35 L168.76 19.79" stroke="none" stroke-width="0" fill="#1e1e1e" fill-rule="evenodd"></path><path d="M169.21 19.33 C164.67 20.14, 160.1 21.48, 154.7 24.62 M170.65 18.68 C164.79 20.99, 161.37 21.8, 155.3 24.54 M154.8 23.14 C155.52 20.23, 157.52 17.11, 158.42 12.17 M155.89 24.67 C156.63 20.76, 156.36 18.72, 157.48 11.71 M157.33 12.83 C159.69 14.71, 164.01 14.61, 169.4 17.97 M156.86 11.13 C160.45 14.45, 164.99 16.37, 170.26 19.94 M170.07 19.21 C170.07 19.21, 170.07 19.21, 170.07 19.21 M170.07 19.21 C170.07 19.21, 170.07 19.21, 170.07 19.21" stroke="#1e1e1e" stroke-width="1" fill="none"></path></g></g><mask></mask><g stroke-linecap="round"><g transform="translate(50.856119791666515 127.34375000000003) rotate(0 161.39197015708635 74.9130021884944)"><path d="M1.05 0.51 C54.91 25.68, 268.95 125.44, 322.64 150.09 M0.14 -0.26 C53.9 24.66, 268.03 123.58, 321.82 148.53" stroke="#1e1e1e" stroke-width="1" fill="none"></path></g><g transform="translate(50.856119791666515 127.34375000000003) rotate(0 161.39197015708635 74.9130021884944)"><path d="M320.78 147.98 L307.82 148.72 L312.88 138 L323.19 147.71" stroke="none" stroke-width="0" fill="#1e1e1e" fill-rule="evenodd"></path><path d="M322.46 148.83 C319.28 149.7, 313.33 149.88, 305.75 147.29 M321.29 149.03 C318.69 149.26, 315.03 148.93, 306.13 148.73 M307.45 149.52 C308.65 145.67, 309.41 142.26, 311.3 137.7 M306.19 148.49 C308.07 143.84, 310.28 140.33, 311.54 136.88 M311.46 136.02 C315.59 139.31, 316.7 141.09, 323.26 149.39 M311.9 136.54 C315.25 140, 317.57 144.89, 322.21 148 M321.82 148.53 C321.82 148.53, 321.82 148.53, 321.82 148.53 M321.82 148.53 C321.82 148.53, 321.82 148.53, 321.82 148.53" stroke="#1e1e1e" stroke-width="1" fill="none"></path></g></g><mask></mask><g transform="translate(25.15625 109.27408854166666) rotate(0 9.039993286132812 12.5)"><text x="0" y="0" font-family="Virgil, Segoe UI Emoji" font-size="20px" fill="#1971c2" text-anchor="start" style="white-space: pre;" direction="ltr" dominant-baseline="text-before-edge">m1</text></g><g stroke-linecap="round"><g transform="translate(220.94010416666652 173.79687499999991) rotate(0 77.25877627626994 25.512756825676178)"><path d="M0.54 -0.08 C26.41 8.45, 129.41 43.51, 155.16 52.2 M-0.64 -1.17 C25.03 7.51, 128.17 41.16, 153.93 50.27" stroke="#1e1e1e" stroke-width="1" fill="none"></path></g><g transform="translate(220.94010416666652 173.79687499999991) rotate(0 77.25877627626994 25.512756825676178)"><path d="M153.41 52.13 L139.84 50.46 L143.16 39.83 L153.06 51.82" stroke="none" stroke-width="0" fill="#1e1e1e" fill-rule="evenodd"></path><path d="M153.82 49.59 C150 49.99, 145.38 50.36, 137.71 52.47 M154.35 50.3 C149.38 50.75, 144.49 51.41, 139.01 52 M138.25 52.04 C140.16 48.41, 142.32 45.45, 144.1 39.48 M139.15 52.36 C140.3 49.82, 140.44 46.46, 142.52 40.05 M143.75 40.04 C145.2 44.21, 150.73 46.81, 154.18 49.78 M143.15 40.25 C147 43.28, 151.93 47.56, 154.24 49.84 M153.93 50.27 C153.93 50.27, 153.93 50.27, 153.93 50.27 M153.93 50.27 C153.93 50.27, 153.93 50.27, 153.93 50.27" stroke="#1e1e1e" stroke-width="1" fill="none"></path></g></g><mask></mask><g stroke-linecap="round"><g transform="translate(221.99869791666652 171.70703124999991) rotate(0 -85.84042778037497 27.276160398945223)"><path d="M-0.86 0.9 C-29.51 9.66, -143 44.27, -171.36 53.16 M0.89 0.32 C-28 9.15, -143.78 45.02, -172.57 54.23" stroke="#1e1e1e" stroke-width="1" fill="none"></path></g><g transform="translate(221.99869791666652 171.70703124999991) rotate(0 -85.84042778037497 27.276160398945223)"><path d="M-173.74 52.74 L-160.09 45.76 L-158.9 54.45 L-174.31 53.9" stroke="none" stroke-width="0" fill="#1e1e1e" fill-rule="evenodd"></path><path d="M-171.45 53.6 C-169.92 50.64, -164.83 48.55, -160.65 45.28 M-172.73 54.5 C-168.34 50.98, -163.89 46.92, -160.94 44.47 M-162.45 44.18 C-160.98 47.43, -158.55 51.71, -157.97 55.73 M-161.36 44.3 C-160.42 48.58, -158.98 52.59, -158.04 55.65 M-157.24 56.52 C-162.07 56.69, -164.68 55.5, -172.02 53.53 M-157.22 56.34 C-163.54 55.02, -170.02 54.06, -171.88 53.78 M-172.57 54.23 C-172.57 54.23, -172.57 54.23, -172.57 54.23 M-172.57 54.23 C-172.57 54.23, -172.57 54.23, -172.57 54.23" stroke="#1e1e1e" stroke-width="1" fill="none"></path></g></g><mask></mask><g transform="translate(224.53776041666652 179.89062499999991) rotate(0 13.449989318847656 12.5)"><text x="0" y="0" font-family="Virgil, Segoe UI Emoji" font-size="20px" fill="#1971c2" text-anchor="start" style="white-space: pre;" direction="ltr" dominant-baseline="text-before-edge">m2</text></g></svg>
