<svg version="1.1" xmlns="http://www.w3.org/2000/svg" viewBox="0 0 816.9908142089844 444.27754442878063" width="816.9908142089844" height="444.27754442878063" filter="invert(100%) hue-rotate(180deg)">
  <!-- svg-source:excalidraw -->
  
  <defs>
    <style class="style-fonts">
      @font-face {
        font-family: "Virgil";
        src: url("https://excalidraw.com/Virgil.woff2");
      }
      @font-face {
        font-family: "Cascadia";
        src: url("https://excalidraw.com/Cascadia.woff2");
      }
    </style>
    
  </defs>
  <rect x="0" y="0" width="816.9908142089844" height="444.27754442878063" fill="#ffffff"></rect><g stroke-linecap="round" transform="translate(198.73046875 13.62109375) rotate(0 41.39453125 36.5546875)"><path d="M18.28 0 M18.28 0 C28.83 -0.08, 40.74 -1.23, 64.51 0 M18.28 0 C32.32 0.66, 47.11 1.01, 64.51 0 M64.51 0 C76.24 -1.03, 82.27 7.01, 82.79 18.28 M64.51 0 C75.2 0.37, 80.59 5.45, 82.79 18.28 M82.79 18.28 C81.24 27.07, 81.73 39.83, 82.79 54.83 M82.79 18.28 C82.23 28.22, 82.64 39.31, 82.79 54.83 M82.79 54.83 C81.59 66.84, 78.05 74.04, 64.51 73.11 M82.79 54.83 C83.81 67.29, 78.86 73.95, 64.51 73.11 M64.51 73.11 C54.38 72.27, 42.13 71.85, 18.28 73.11 M64.51 73.11 C49.38 74.21, 34.55 73.3, 18.28 73.11 M18.28 73.11 C4.28 73.48, -1.94 67.57, 0 54.83 M18.28 73.11 C4.81 73.29, -0.35 65.85, 0 54.83 M0 54.83 C2.08 42.57, 1.86 32.34, 0 18.28 M0 54.83 C0.73 45.98, -0.64 35.07, 0 18.28 M0 18.28 C1.66 7.34, 4.31 -0.68, 18.28 0 M0 18.28 C0.36 7.5, 4.3 1.89, 18.28 0" stroke="#1e1e1e" stroke-width="1" fill="none"></path></g><g transform="translate(234.61500549316406 37.67578125) rotate(0 5.5099945068359375 12.5)"><text x="5.5099945068359375" y="0" font-family="Virgil, Segoe UI Emoji" font-size="20px" fill="#1e1e1e" text-anchor="middle" style="white-space: pre;" direction="ltr" dominant-baseline="text-before-edge">H</text></g><g stroke-linecap="round"><g transform="translate(239.30078125 88.2265625) rotate(0 -0.8377945841104975 172.6120584634691)"><path d="M-0.91 0.14 C-1.11 57.77, -1.25 288.44, -1.42 346.05 M0.81 -0.83 C0.45 56.48, -2.45 287.08, -2.49 344.55" stroke="#1e1e1e" stroke-width="1" fill="none"></path></g><g transform="translate(239.30078125 88.2265625) rotate(0 -0.8377945841104975 172.6120584634691)"><path d="M-12.3 315.9 C-7.64 323.15, -5.14 331.64, -0.98 344.91 M-13.11 315.45 C-9.47 325.52, -5.19 335.65, -2.65 344.85" stroke="#1e1e1e" stroke-width="1" fill="none"></path></g><g transform="translate(239.30078125 88.2265625) rotate(0 -0.8377945841104975 172.6120584634691)"><path d="M8.22 316.05 C7.06 323.11, 3.72 331.55, -0.98 344.91 M7.41 315.6 C3.89 325.71, 1.01 335.79, -2.65 344.85" stroke="#1e1e1e" stroke-width="1" fill="none"></path></g></g><mask></mask><g stroke-linecap="round" transform="translate(10 11.1171875) rotate(0 41.39453125 36.5546875)"><path d="M18.28 0 M18.28 0 C31.24 1.29, 42.45 -0.69, 64.51 0 M18.28 0 C31.66 -0.46, 44.01 0.13, 64.51 0 M64.51 0 C74.8 -0.94, 83.96 7.4, 82.79 18.28 M64.51 0 C75.64 -1.74, 81.17 8.34, 82.79 18.28 M82.79 18.28 C82.42 29.37, 81.75 43.25, 82.79 54.83 M82.79 18.28 C83.51 32.02, 83.35 47.89, 82.79 54.83 M82.79 54.83 C83.1 67.36, 76.67 74.49, 64.51 73.11 M82.79 54.83 C83.43 65.26, 75.66 71.19, 64.51 73.11 M64.51 73.11 C45.91 72.91, 30.81 73.62, 18.28 73.11 M64.51 73.11 C52.04 73.04, 40.66 73.43, 18.28 73.11 M18.28 73.11 C6.23 74.5, -1.19 66.39, 0 54.83 M18.28 73.11 C7.14 73.11, 0 65.91, 0 54.83 M0 54.83 C-1.55 40.89, 1.26 29.89, 0 18.28 M0 54.83 C-0.39 45.71, -0.28 37.96, 0 18.28 M0 18.28 C-1.03 4.29, 5.63 -0.57, 18.28 0 M0 18.28 C-0.91 4.46, 4.18 -2.02, 18.28 0" stroke="#1e1e1e" stroke-width="1" fill="none"></path></g><g transform="translate(24.344558715820312 35.171875) rotate(0 27.049972534179688 12.5)"><text x="27.049972534179688" y="0" font-family="Virgil, Segoe UI Emoji" font-size="20px" fill="#1e1e1e" text-anchor="middle" style="white-space: pre;" direction="ltr" dominant-baseline="text-before-edge">Client</text></g><g stroke-linecap="round"><g transform="translate(50.5703125 85.72265625) rotate(0 -0.6020899530017232 172.56747989687133)"><path d="M0.58 0.17 C0.42 57.49, -1.65 287.23, -1.8 344.55 M-0.58 -0.79 C-0.26 56.66, 0.61 288.3, 0.59 345.92" stroke="#1e1e1e" stroke-width="1" fill="none"></path></g><g transform="translate(50.5703125 85.72265625) rotate(0 -0.6020899530017232 172.56747989687133)"><path d="M-9.44 316.74 C-7.73 325.58, -6.17 332.04, -0.94 346.7 M-9.14 318.41 C-7.54 324.99, -4.87 334.68, 0.74 344.96" stroke="#1e1e1e" stroke-width="1" fill="none"></path></g><g transform="translate(50.5703125 85.72265625) rotate(0 -0.6020899530017232 172.56747989687133)"><path d="M11.08 316.69 C8.08 325.64, 4.95 332.12, -0.94 346.7 M11.38 318.36 C7.19 324.87, 4.07 334.56, 0.74 344.96" stroke="#1e1e1e" stroke-width="1" fill="none"></path></g></g><mask></mask><g stroke-linecap="round" transform="translate(411.96875 10) rotate(0 41.39453125 36.5546875)"><path d="M18.28 0 M18.28 0 C29.76 0.41, 39.15 -0.45, 64.51 0 M18.28 0 C33.8 -0.48, 47.58 0.16, 64.51 0 M64.51 0 C75.63 1.94, 81.1 6.98, 82.79 18.28 M64.51 0 C78.27 2.23, 83.01 7.99, 82.79 18.28 M82.79 18.28 C84.56 28.78, 81.52 43.31, 82.79 54.83 M82.79 18.28 C81.61 26.95, 82.98 34.89, 82.79 54.83 M82.79 54.83 C82.36 66.34, 77.98 71.78, 64.51 73.11 M82.79 54.83 C80.79 67.07, 76.6 74.05, 64.51 73.11 M64.51 73.11 C50.43 74.78, 37.3 74.58, 18.28 73.11 M64.51 73.11 C47.55 73.41, 31.39 74.2, 18.28 73.11 M18.28 73.11 C6.85 73.49, 1.09 66.92, 0 54.83 M18.28 73.11 C7.19 74.71, 1.31 64.73, 0 54.83 M0 54.83 C1.96 47.9, 1.37 40.16, 0 18.28 M0 54.83 C-0.1 46.14, -0.97 35.82, 0 18.28 M0 18.28 C-0.47 7.17, 7.81 0.48, 18.28 0 M0 18.28 C1.26 6.24, 8.23 2.2, 18.28 0" stroke="#1e1e1e" stroke-width="1" fill="none"></path></g><g transform="translate(442.9932861328125 34.0546875) rotate(0 10.3699951171875 12.5)"><text x="10.3699951171875" y="0" font-family="Virgil, Segoe UI Emoji" font-size="20px" fill="#1e1e1e" text-anchor="middle" style="white-space: pre;" direction="ltr" dominant-baseline="text-before-edge">M1</text></g><g stroke-linecap="round"><g transform="translate(452.5390625 84.60546875) rotate(0 -1.150839194621767 173.46040124019606)"><path d="M0.24 0.84 C0 58.18, -1.35 287.57, -1.46 345.04 M-1.09 0.24 C-1.51 58.31, -2.6 289.42, -2.54 346.68" stroke="#1e1e1e" stroke-width="1" fill="none"></path></g><g transform="translate(452.5390625 84.60546875) rotate(0 -1.150839194621767 173.46040124019606)"><path d="M-11.33 318.02 C-9.12 328.24, -5 337.28, -2.86 346.95 M-13.58 318.91 C-8.66 329.15, -5.7 338.81, -2.28 347.34" stroke="#1e1e1e" stroke-width="1" fill="none"></path></g><g transform="translate(452.5390625 84.60546875) rotate(0 -1.150839194621767 173.46040124019606)"><path d="M9.19 318.07 C5.23 328.32, 3.19 337.34, -2.86 346.95 M6.94 318.95 C4.72 329.38, 0.54 339.03, -2.28 347.34" stroke="#1e1e1e" stroke-width="1" fill="none"></path></g></g><mask></mask><g stroke-linecap="round" transform="translate(630.82421875 11.484375) rotate(0 41.39453125 36.5546875)"><path d="M18.28 0 M18.28 0 C34.74 -0.63, 47.72 0.64, 64.51 0 M18.28 0 C30.13 1.07, 42.08 0.49, 64.51 0 M64.51 0 C78.34 0.54, 84.11 6.49, 82.79 18.28 M64.51 0 C78.45 -1.67, 81.06 7.39, 82.79 18.28 M82.79 18.28 C80.77 27.27, 83.49 34.79, 82.79 54.83 M82.79 18.28 C82 27.59, 82.69 38.59, 82.79 54.83 M82.79 54.83 C83.61 66.49, 76.68 71.73, 64.51 73.11 M82.79 54.83 C81.14 69.31, 74.51 75.17, 64.51 73.11 M64.51 73.11 C46.83 73.45, 30.74 75.02, 18.28 73.11 M64.51 73.11 C48.83 73.84, 33.94 73.93, 18.28 73.11 M18.28 73.11 C4.1 71.53, -0.66 67.25, 0 54.83 M18.28 73.11 C8.21 74.44, 1.43 68.74, 0 54.83 M0 54.83 C-0.23 46.67, -1.97 35.25, 0 18.28 M0 54.83 C0.04 45.28, -0.14 35.56, 0 18.28 M0 18.28 C1.91 4.52, 7.05 0.03, 18.28 0 M0 18.28 C-2.22 7.52, 3.96 -1.67, 18.28 0" stroke="#1e1e1e" stroke-width="1" fill="none"></path></g><g transform="translate(664.1787567138672 35.5390625) rotate(0 8.039993286132812 12.5)"><text x="8.039993286132812" y="0" font-family="Virgil, Segoe UI Emoji" font-size="20px" fill="#1e1e1e" text-anchor="middle" style="white-space: pre;" direction="ltr" dominant-baseline="text-before-edge">T</text></g><g stroke-linecap="round"><g transform="translate(671.39453125 86.08984375) rotate(0 -1.0389359284745296 172.31440998740493)"><path d="M-0.19 0.16 C-0.43 57.35, -0.64 286.94, -0.61 344.22 M-1.75 -0.8 C-2.17 57.05, -1.52 287.85, -1.26 345.42" stroke="#1e1e1e" stroke-width="1" fill="none"></path></g><g transform="translate(671.39453125 86.08984375) rotate(0 -1.0389359284745296 172.31440998740493)"><path d="M-11.34 318.22 C-8.6 329.6, -5.41 338.92, 0.1 347.37 M-10.96 317.47 C-7.42 325.23, -5.73 335.23, -1.97 344.53" stroke="#1e1e1e" stroke-width="1" fill="none"></path></g><g transform="translate(671.39453125 86.08984375) rotate(0 -1.0389359284745296 172.31440998740493)"><path d="M9.18 318.16 C4.36 329.52, -0.01 338.86, 0.1 347.37 M9.57 317.4 C6.75 325.24, 2.09 335.26, -1.97 344.53" stroke="#1e1e1e" stroke-width="1" fill="none"></path></g></g><mask></mask><g stroke-linecap="round"><g transform="translate(50.78125 115.52734375) rotate(0 94.78685341218943 11.206573961181562)"><path d="M0.57 0.05 C32.36 3.93, 158.72 18.53, 190.16 22.16 M-0.59 -0.98 C31.17 3.17, 158.15 19.45, 189.66 23.39" stroke="#1e1e1e" stroke-width="1" fill="none"></path></g><g transform="translate(50.78125 115.52734375) rotate(0 94.78685341218943 11.206573961181562)"><path d="M189.64 22.75 L173.65 26.28 L175.57 14.25 L190.97 24.64" stroke="none" stroke-width="0" fill="#1e1e1e" fill-rule="evenodd"></path><path d="M189.71 24.44 C185.3 24.49, 181.32 24.66, 175.7 26.65 M189.18 23.99 C184.12 25.63, 179.06 27.41, 174.76 27.82 M175.66 28.29 C175.55 24.47, 177.63 20.34, 177.08 16.34 M175.28 28.27 C175.35 23.68, 176.47 20.33, 177.15 14.8 M176.44 14.97 C179.93 16.9, 184.41 19.8, 189 21.91 M177.08 15.9 C179.88 16.61, 183.39 18.74, 189.28 23.94 M189.66 23.39 C189.66 23.39, 189.66 23.39, 189.66 23.39 M189.66 23.39 C189.66 23.39, 189.66 23.39, 189.66 23.39" stroke="#1e1e1e" stroke-width="1" fill="none"></path></g></g><mask></mask><g transform="translate(129.2656050737255 97.7491573434205) rotate(10.22950692150939 28.599990844726562 12.5)"><text x="0" y="0" font-family="Virgil, Segoe UI Emoji" font-size="20px" fill="#1e1e1e" text-anchor="start" style="white-space: pre;" direction="ltr" dominant-baseline="text-before-edge">x = 3</text></g><g transform="translate(107.38420233283568 376.0912230822074) rotate(359.865156368273 27.36368085568529 11.959654552096993)"><text x="0" y="0" font-family="Virgil, Segoe UI Emoji" font-size="19.135447283355184px" fill="#1e1e1e" text-anchor="start" style="white-space: pre;" direction="ltr" dominant-baseline="text-before-edge">x = 3</text></g><g stroke-linecap="round"><g transform="translate(239.1328125 156.40625) rotate(0 107.31791967789195 10.702025027573143)"><path d="M0.99 -0.66 C36.59 3.11, 179.17 18.19, 214.58 22.06 M0.06 1.61 C35.41 5.07, 177.68 17.01, 213.64 20.2" stroke="#1e1e1e" stroke-width="1" fill="none"></path></g><g transform="translate(239.1328125 156.40625) rotate(0 107.31791967789195 10.702025027573143)"><path d="M215.25 19.08 L198.96 25 L202.12 11.02 L212.69 19.52" stroke="none" stroke-width="0" fill="#1e1e1e" fill-rule="evenodd"></path><path d="M212.81 20.22 C208.81 20.92, 204.01 24.24, 200.17 25 M213.06 20.03 C208.62 21.75, 204.14 23.43, 200.26 25.22 M199.19 25.92 C199.19 22.57, 199.13 16.93, 199.57 12.18 M200.15 25.1 C200.19 21.14, 199.87 16.42, 200.41 12.8 M200 12.46 C205.24 15.42, 209.15 19.61, 213.35 21.54 M200.86 12.99 C203.94 14.27, 208.09 16.55, 213.08 19.78 M213.64 20.2 C213.64 20.2, 213.64 20.2, 213.64 20.2 M213.64 20.2 C213.64 20.2, 213.64 20.2, 213.64 20.2" stroke="#1e1e1e" stroke-width="1" fill="none"></path></g></g><mask></mask><g stroke-linecap="round"><g transform="translate(452.6953125 189) rotate(0 110.01805732292132 12.537456605760383)"><path d="M0.36 -0.27 C36.96 3.8, 182.24 20.84, 218.65 24.96 M-0.91 -1.45 C36.16 2.78, 184.51 22.02, 220.95 26.53" stroke="#1e1e1e" stroke-width="1" fill="none"></path></g><g transform="translate(452.6953125 189) rotate(0 110.01805732292132 12.537456605760383)"><path d="M219.93 24.67 L205.62 30.23 L209.66 17.98 L220.23 26.26" stroke="none" stroke-width="0" fill="#1e1e1e" fill-rule="evenodd"></path><path d="M220.62 25.55 C217.91 26.79, 214.2 28.24, 205.91 30.2 M221.08 26.88 C214.67 28.21, 210.52 29.61, 207.4 31.28 M207.47 32.33 C207.87 27.16, 207.5 23.83, 207.01 19.2 M206.52 31.45 C207.2 26.43, 208.31 20.9, 207.69 18.73 M209.6 18.13 C212.65 22.12, 216.1 23.42, 220.82 25.32 M208.15 17.87 C213.14 21.43, 217.46 23.68, 221.48 27.09 M220.95 26.53 C220.95 26.53, 220.95 26.53, 220.95 26.53 M220.95 26.53 C220.95 26.53, 220.95 26.53, 220.95 26.53" stroke="#1e1e1e" stroke-width="1" fill="none"></path></g></g><mask></mask><g stroke-linecap="round"><g transform="translate(669.796875 233.6484375) rotate(0 -309.3384450480344 31.601508216559864)"><path d="M-0.28 0.45 C-103.33 11.08, -515.58 52.48, -618.4 62.76" stroke="#1971c2" stroke-width="1.5" fill="none" stroke-dasharray="8 9"></path></g><g transform="translate(669.796875 233.6484375) rotate(0 -309.3384450480344 31.601508216559864)"><path d="M-616.98 63.04 L-606.59 54.56 L-604.13 69.65 L-619.81 64.47" stroke="none" stroke-width="0" fill="#1971c2" fill-rule="evenodd"></path><path d="M-617.84 62.37 C-614.44 61.64, -611.46 58.75, -605.82 56.36 M-606.73 54.63 C-604.47 58.73, -605.94 60.31, -605.42 68.61 M-602.85 67.01 C-609.67 66.98, -613.1 64.89, -617.02 62.68 M-618.4 62.76 C-618.4 62.76, -618.4 62.76, -618.4 62.76" stroke="#1971c2" stroke-width="1.5" fill="none"></path></g></g><mask></mask><g stroke-linecap="round"><g transform="translate(52.53125 333.8828125) rotate(0 309.28864557181487 7.733365824623036)"><path d="M0.29 -0.47 C103.25 2.13, 514.55 13.27, 617.42 16.02 M-1.02 -1.76 C102.34 0.95, 516.1 14.1, 619.59 17.23" stroke="#1e1e1e" stroke-width="1" fill="none"></path></g><g transform="translate(52.53125 333.8828125) rotate(0 309.28864557181487 7.733365824623036)"><path d="M619.59 17.91 L606.77 24.11 L606.55 9.53 L620.16 15.83" stroke="none" stroke-width="0" fill="#1e1e1e" fill-rule="evenodd"></path><path d="M619.01 15.95 C615.09 17.7, 611.35 19.19, 605.48 22.14 M619.76 16.72 C615.85 19.28, 612.7 20.2, 605.94 23.34 M606.35 22.22 C606.68 20.82, 606.05 16.23, 607.03 11.72 M605.99 22.51 C605.77 18.27, 606.81 14.19, 606.22 10.86 M607.48 9.46 C609.97 12.79, 614.72 14.71, 619.23 18.43 M606.59 10.15 C609.99 11.82, 612.99 13.88, 619.13 17.96 M619.59 17.23 C619.59 17.23, 619.59 17.23, 619.59 17.23 M619.59 17.23 C619.59 17.23, 619.59 17.23, 619.59 17.23" stroke="#1e1e1e" stroke-width="1" fill="none"></path></g></g><mask></mask><g transform="translate(122.6953125 307.33203125) rotate(0 26.449989318847656 12.5)"><text x="0" y="0" font-family="Virgil, Segoe UI Emoji" font-size="20px" fill="#1e1e1e" text-anchor="start" style="white-space: pre;" direction="ltr" dominant-baseline="text-before-edge">x = ?</text></g><g stroke-linecap="round"><g transform="translate(670.1796875 366.7421875) rotate(0 -308.62583546759106 0.8632548776548106)"><path d="M0.6 -0.48 C-102.18 0.06, -514.05 1.6, -616.89 2.18 M-0.54 -1.78 C-103.47 -0.97, -515.12 3.07, -617.85 3.51" stroke="#1e1e1e" stroke-width="1" fill="none"></path></g><g transform="translate(670.1796875 366.7421875) rotate(0 -308.62583546759106 0.8632548776548106)"><path d="M-617.94 1.57 L-605.34 -4.07 L-603.62 9.15 L-617.2 4.08" stroke="none" stroke-width="0" fill="#1e1e1e" fill-rule="evenodd"></path><path d="M-618.45 3.47 C-614.44 2.15, -609.6 -0.89, -605.47 -3.83 M-617.27 3.99 C-612.51 0.54, -607.89 -1.66, -604.62 -3.16 M-605.08 -2.25 C-603.75 0.21, -605.06 3.74, -603.54 9.36 M-604.8 -3.02 C-603.56 -0.61, -604.2 3.16, -604.3 9.66 M-603.47 10.8 C-609.08 6.37, -613.57 6.72, -619.22 3.28 M-604.65 9.38 C-608.14 8.34, -612.69 5.49, -617.97 3.92 M-617.85 3.51 C-617.85 3.51, -617.85 3.51, -617.85 3.51 M-617.85 3.51 C-617.85 3.51, -617.85 3.51, -617.85 3.51" stroke="#1e1e1e" stroke-width="1" fill="none"></path></g></g><mask></mask><g transform="translate(682.7109375 222.453125) rotate(0 62.13993835449219 12.5)"><text x="0" y="0" font-family="Virgil, Segoe UI Emoji" font-size="20px" fill="#2f9e44" text-anchor="start" style="white-space: pre;" direction="ltr" dominant-baseline="text-before-edge">Commit Point</text></g></svg>
