<svg version="1.1" xmlns="http://www.w3.org/2000/svg" viewBox="0 0 1161.83203125 797.765625" width="1161.83203125" height="797.765625" filter="invert(100%) hue-rotate(180deg)">
  <!-- svg-source:excalidraw -->
  
  <defs>
    <style class="style-fonts">
      @font-face {
        font-family: "Virgil";
        src: url("https://excalidraw.com/Virgil.woff2");
      }
      @font-face {
        font-family: "Cascadia";
        src: url("https://excalidraw.com/Cascadia.woff2");
      }
    </style>
    
  </defs>
  <rect x="0" y="0" width="1161.83203125" height="797.765625" fill="#ffffff"></rect><g stroke-linecap="round" transform="translate(10 9.999999999999943) rotate(0 570.916015625 388.8828125)"><path d="M68.81 204.24 C68.81 204.24, 68.81 204.24, 68.81 204.24 M68.81 204.24 C68.81 204.24, 68.81 204.24, 68.81 204.24 M53.94 225.44 C72.49 207.56, 85.44 189.89, 123.09 149.23 M54.87 226.43 C82.62 196.54, 109.36 164.1, 122.87 148.02 M38.89 249.98 C65.07 224.01, 90.82 194.22, 135.86 138.55 M38.27 250.7 C73.88 209.46, 109.76 169.95, 138.57 137.88 M29.42 268.16 C60.57 234.63, 88.18 199.82, 150.73 124.88 M29.8 267.01 C64.32 225.97, 100.97 186.84, 152.66 125.27 M24.35 276.9 C77.05 216.99, 133.4 156.57, 169.16 116.85 M25.85 278.32 C56.35 242.65, 87.2 205.66, 167.48 114.93 M22.58 287.01 C66.69 233.63, 115.76 181.67, 182.18 104.79 M22.73 288.58 C61.5 241, 100.7 195.92, 182.77 104.43 M19.39 298.77 C69.78 243.7, 117.27 188.01, 191.06 99.68 M18.38 298.3 C60.17 250.31, 102.54 201.52, 191.47 98.94 M14.26 309.58 C62.5 252.11, 114.52 195.42, 202.47 93.72 M14.75 309.59 C60.62 255.52, 107.19 202.55, 201.37 94.8 M11.12 320.89 C57.97 268.03, 101.92 218.84, 210.52 91.57 M10.32 319.49 C86.26 230.63, 162.34 142.36, 210.83 90.6 M6.54 331.8 C75.05 253.68, 143.31 175.96, 218.03 84.63 M5.31 331.56 C66.31 265.09, 124.83 196.89, 219.1 86.11 M5.64 338.49 C83.9 246.56, 161.58 155.24, 227.8 81.61 M4.57 339.01 C85.18 247.59, 165.62 155.01, 228.7 81.41 M5.24 344.64 C78.48 261.86, 151.69 177.69, 237.61 76.18 M5.56 345.17 C69.65 271.81, 133.02 198.2, 237.91 77.45 M4.15 350.96 C55.85 297.21, 104.69 238.44, 246.09 71.55 M4.18 351.39 C98.85 242.36, 194.02 133.48, 246.71 72.66 M3.46 357.18 C100.88 249.33, 195.63 140.35, 255.08 68.08 M4.22 358.46 C55.41 298.04, 107.89 237.32, 256.13 68.25 M3.82 364.41 C107.51 245.2, 212.37 125.36, 265.32 62.63 M4.02 364.47 C77.13 282.26, 149.83 198.89, 265.51 63.91 M2.82 372.44 C100.7 260.07, 198.28 148, 272.95 59.24 M2.58 372.36 C108.71 250.85, 213.95 129.02, 273.23 60.58 M2.92 378.16 C99.06 267.51, 197.19 157.03, 281.57 57.53 M2.14 377.83 C88.41 279.59, 174.27 181.33, 280.72 58 M2.99 385.65 C104.89 266.08, 208.85 148.72, 287.74 54.34 M2.2 384.97 C104.93 265.91, 207.36 147.58, 288.52 54.85 M1.67 391.76 C106.11 270.04, 210.9 149.63, 297.19 52.19 M1.35 391.71 C104.28 272.97, 208.6 153.33, 295.93 51.76 M1.33 397.67 C64.48 326.05, 127.3 255.04, 304.17 48.68 M0.51 398.08 C117.61 263.47, 236.98 126.66, 304.31 49.84 M3.82 402.41 C99.45 290.34, 195.83 179.82, 311.62 47.6 M3.09 402.06 C118.28 269.37, 233.48 136.94, 311.53 47.09 M3.54 407.42 C121.32 271.09, 239.2 135.02, 318.41 44.38 M3.3 407.22 C66.86 333.21, 131.2 259.39, 319.23 44.61 M3.98 411.95 C67.81 337.22, 133.1 262.67, 326.82 42.02 M4.32 411.91 C103.6 296.06, 204.55 179.84, 326.48 41.92 M5.33 417.16 C95.11 313.09, 186.7 209.75, 334.79 38.89 M6.01 416.78 C87.99 323.44, 169.84 230.29, 334.04 39.26 M5.51 423.01 C134.57 275.75, 263.77 127.13, 341.36 36.81 M6.51 422.45 C73.88 346.13, 141.19 268.43, 341.88 35.98 M7.18 427.15 C132.3 284.99, 255.58 142.6, 348.87 33.21 M7.51 427.35 C77.08 344.71, 148.62 262.83, 349.87 33.37 M8.13 432.92 C123.52 302.19, 237.29 170.14, 358.62 28.01 M8.51 432.56 C97.86 329.18, 188.2 225.31, 359.06 28.44 M8.19 438.66 C88.58 348.02, 167.3 257.64, 366.47 27.39 M8.93 438.09 C118.08 312.4, 227.72 186.44, 366.12 26.55 M10.45 443.72 C107.28 331.83, 204.01 220.36, 372.78 25 M9.82 443.39 C150.62 283.53, 289.44 123.02, 372.65 25.6 M10.32 448.48 C114.33 328.79, 220.11 207.78, 378.67 24.15 M10.27 448.68 C85.59 363.1, 160.38 276.82, 378.61 24.68 M11.3 453.47 C140.3 304.25, 270.4 155.62, 385.09 23.75 M10.81 453.38 C110.19 339.7, 210 224.65, 384.81 23.38 M12.44 457.73 C132.59 318.05, 252.53 178.44, 391.88 21.98 M12.17 458.17 C122.85 332.91, 231.8 206.65, 392.34 21.49 M12.77 463.32 C125.99 334.12, 237.78 204.34, 398.34 20.38 M12.19 464.04 C121.76 337.07, 230.55 211.38, 398.51 20.5 M12.7 470.08 C144.03 321.06, 274.22 171.67, 404.9 19.7 M12.95 469.97 C167.26 291.62, 321.64 113.42, 404.57 19.44 M14.26 473.56 C138.37 330.76, 263.85 187.86, 410.56 17.58 M15.05 474.11 C169.18 293.9, 324.28 114.8, 410.83 18.02 M16.9 477.13 C126.26 352.46, 233.96 229.35, 418.24 15.41 M16.71 476.89 C130.76 343.46, 246.67 210.89, 417.74 16.3 M18.13 481.24 C109.21 378.75, 197.7 276.78, 424.3 14.48 M18.9 481.49 C116.81 370.61, 214.88 258.19, 424.24 14.57 M20.98 486.25 C149.47 335.56, 279.6 185.58, 429.67 13.35 M20.12 485.3 C171.19 310.27, 322.88 136.5, 430.63 14.03 M22.69 489.46 C144.57 348.9, 268.44 208.78, 437.38 12 M22.29 489.75 C129.56 364.2, 238.06 239.53, 436.94 12.7 M23.39 493.41 C192.89 300.94, 360.47 108.03, 443.48 10.65 M23.64 494.03 C183.49 312.23, 341.4 130.12, 443.99 10.69 M25.42 498.25 C121.1 385.44, 216.54 273.94, 450.53 9.11 M25.59 497.86 C181.23 317.92, 337.72 137.4, 450.12 9.3 M26.98 501.26 C146.66 365.91, 266.23 227.76, 456.4 8.97 M27.4 502.4 C149.93 359.49, 271.92 219.1, 456.5 8.51 M29.42 506.72 C196.96 313.17, 364.83 121.42, 462.28 7.28 M29.07 505.84 C147.58 371.27, 266.05 234.81, 461.63 8.39 M30.91 509.54 C142.33 380.65, 254.63 249.4, 468.13 8.32 M30.72 510.68 C120.26 407.31, 208.15 305.67, 467.67 7.32 M32.75 513.93 C178.89 349.08, 322.82 182.34, 472.47 7.69 M33.01 513.75 C190.89 331.07, 349.98 148.21, 473.1 7.5 M35.27 518.38 C159.28 375.12, 283.04 231.3, 478.62 6.37 M34.69 518.13 C157.65 376.48, 278.64 236.4, 478.71 6.61 M36.18 522.7 C174.58 365.5, 310.19 208.6, 485.9 6.24 M36.29 521.83 C131.41 416.25, 224.78 308.65, 485.2 5.94 M37.68 525.68 C139.71 410.14, 241.31 292.66, 491.04 5.46 M38.43 526.43 C211.44 326.91, 383.98 127.5, 491.15 5 M39.94 529.52 C200.14 345.95, 360.7 161.59, 497.02 4.61 M39.9 530.4 C165.99 383.58, 292.46 237.94, 496.3 5.02 M41.21 534.56 C138 424.05, 235.46 311.94, 501.69 5.29 M41.76 534.71 C154.07 404.25, 266.48 273.64, 501.89 4.47 M44.14 537.19 C225.15 328.14, 409.02 116.86, 508.13 4.08 M43.79 537.72 C145.83 423.1, 246.41 307.05, 507.5 3.89 M45.88 541.32 C187.1 380.75, 324.45 220.84, 512.71 4.03 M45.91 540.71 C193.78 372.17, 341.03 202.57, 513.18 3.93 M48.92 545.18 C212.6 353.43, 377.93 163.32, 519.58 3.03 M49.03 544.38 C218.81 348.25, 389.05 153.45, 518.82 3.01 M50.95 548.01 C230.8 339.24, 412.32 131.16, 524.56 2.95 M50.65 548.12 C185.45 394.86, 319.38 240.74, 525.39 2.59 M53.67 552 C164.72 426.53, 273.75 299.49, 530.24 2.59 M53.37 551.22 C164.57 426.09, 272.92 301.23, 530.87 1.44 M57.17 553.08 C200.54 386.93, 345.1 219.28, 536.38 1.49 M56.09 553.74 C237.09 348.69, 415.03 143.34, 536.32 1.11 M58.16 557.01 C163.95 437.02, 269.33 315.28, 542.13 0.85 M58.42 557.56 C168.73 432.78, 276.89 308, 542.66 1.04 M60.39 560 C225.59 374.49, 387.61 188.24, 547.6 -0.05 M61.5 560.33 C177.41 423.02, 296.02 286.47, 547.86 0.6 M63.29 563.3 C160.91 449.13, 259.85 336.68, 554.55 -0.37 M63.59 563.7 C231.93 371.63, 399.56 178.63, 554.18 -0.81 M65.91 567.08 C208.14 403.25, 352.03 236.09, 559.25 0.09 M65.68 566.98 C211.24 398.19, 357.33 230.1, 559.02 -0.33 M67.8 570.83 C192.15 425, 316.32 282.59, 564.78 -0.05 M68.03 570.82 C195.31 424.41, 323.52 277.45, 564.24 -0.04 M70.68 574.47 C183.29 442.49, 298.43 309.44, 569.36 0.3 M70.35 574.03 C251.44 364.73, 431.55 157.27, 568.85 0.4 M73.55 576.29 C236.55 386.75, 402.52 195.88, 574.15 1.09 M73.82 576.45 C193.17 439.87, 311.46 303.12, 573.78 0.65 M76.58 580.31 C246.33 380.73, 419.66 182.71, 579.93 0.71 M76.23 580.44 C180.86 456.22, 287.14 334.29, 579.83 0.22 M77.88 584.1 C276.21 358.3, 471.89 134.05, 584.59 0.14 M78.05 583.55 C192.41 450.04, 307.54 318.21, 584.42 0.65 M80.6 586.1 C211.19 435.71, 344.04 283.5, 589.53 1.92 M80.81 587.18 C204.34 442.68, 330.59 298.42, 590.12 1.49 M83.21 589.98 C216.06 435.95, 348.44 281.8, 595.53 1.55 M82.7 589.91 C270.32 375, 456.84 160.76, 594.94 1.73 M86.02 592.99 C267.09 386.2, 447.98 178.03, 599.44 1.4 M85.14 593.88 C191.5 467.49, 300.67 342.83, 600 1.86 M87.85 596.73 C286.39 370.59, 483.64 145.22, 605.48 2.25 M88.36 596.51 C225.55 436.58, 364.77 275.92, 604.85 2.34 M92.22 599.3 C210.69 460.53, 331.06 323.1, 610.12 2.06 M91.25 599.18 C238.04 429.78, 383.55 262.74, 609.66 2.44 M94.13 601.42 C230.23 443.29, 367.7 285.63, 614.96 3.42 M94.66 601.41 C277.15 389.39, 460.04 178.94, 614.57 2.65 M97.08 603.47 C225.41 456.21, 355.65 306.64, 620.21 1.99 M97.72 604.06 C288.21 382.62, 480.43 161.79, 620.1 2.78 M101.2 607.41 C215.25 475.31, 328.32 346.57, 625.43 3.4 M100.78 606.56 C259.17 425.86, 418.19 243.12, 625.52 2.61 M102.61 610.69 C306.74 372.07, 511.69 136.58, 631.06 3.06 M102.55 610.1 C218.14 474.29, 335.46 339.52, 630.11 3.4 M106.53 613.13 C230.42 472.15, 353.49 331.26, 635.9 3.11 M105.64 612.66 C210.77 492.01, 317.11 369.1, 635.52 3.76 M109.06 614.61 C314.14 379.46, 517.64 144.97, 640.26 3.97 M108.83 615.17 C283.72 413.98, 457.66 213.85, 640.58 4.11 M111.83 618.71 C273.79 436.94, 433.22 253.34, 646.01 3.91 M111.86 618.11 C226.42 487.62, 340.38 356.96, 645.49 4.34 M115.03 620.26 C327.43 376.09, 539.03 131.96, 651.05 4.1 M114.88 620.73 C226.1 495.56, 336.42 369.51, 649.94 5.03 M118.31 623.21 C273.84 447.82, 428.52 269.85, 655.17 5.78 M118.28 623.08 C272.34 442.91, 428.44 264.22, 654.23 5.84 M120.83 625.82 C299.48 419.93, 479.54 213.65, 660.29 5.89 M121.21 626.05 C289.06 432.81, 456.3 240.65, 659.29 6.16 M123.75 628.89 C266.97 464.3, 409.3 301.47, 664.41 6.72 M123.75 628.57 C266.33 460.58, 411.63 293.49, 663.79 7.18 M127.09 630.58 C307.97 422.24, 490.47 212.45, 669.26 6.98 M127.08 630.91 C308.97 420, 492.35 210.11, 669.21 7.95 M130.62 633.08 C334.04 397.87, 537.83 164.04, 673.58 8.99 M130.05 633.49 C333.54 402.98, 534.82 171.11, 673.11 8.98 M131.65 636.51 C290.73 452.92, 452.87 267.37, 677.63 9.7 M132.67 636.83 C301.05 440.94, 472.57 244.38, 678.18 9.13 M134.99 639.41 C334.74 408.44, 533.24 180.39, 682.82 9.55 M135.29 639.85 C303.4 447.21, 470.71 253.94, 682.31 10 M137.81 642.81 C315.94 433.21, 496.35 226.31, 688.21 11.46 M138.07 642.78 C302.85 452.82, 468.98 262.03, 687.63 10.4 M141.21 644.34 C287.38 481.43, 430 315.68, 691.76 12.08 M141.69 645.38 C344.81 412.99, 548.3 178.52, 692.24 11.56 M144.8 648.08 C309.08 455.42, 474.36 266.23, 696.45 12.01 M144.55 647.75 C314.9 451.9, 483.3 257.37, 696.76 12.38 M148.21 649.77 C306.54 467.44, 463.37 286.23, 701.9 13.39 M147.92 649.21 C337.98 433.91, 527.42 216.2, 700.92 13.09 M151.82 652.11 C320.01 455.11, 490.96 258.28, 705.72 14.2 M151.08 652.15 C350.07 422.94, 548.9 194.21, 706.11 13.64 M154.14 653.44 C344.47 431.92, 534.81 213.88, 711.07 15.38 M154.93 654 C371.81 406.32, 587.86 157.94, 710.33 15 M157.89 656.49 C378.12 404.56, 597.66 150.52, 715.26 15.18 M157.65 656.48 C288.24 506.96, 418.65 357.32, 715.59 15.11 M161.69 657.87 C345.35 446.52, 530.78 231.5, 720.53 16.27 M161.32 658.4 C366.73 425.27, 570.16 191.14, 719.6 16.62 M165.19 660.86 C297.34 504.85, 431.95 350.31, 724.2 16.84 M165.11 660.22 C354.81 441.27, 545.07 222.93, 724.85 16.44 M168.65 662.29 C304.2 510.34, 439.5 353.99, 729.48 17.78 M168.6 662.98 C338.71 464.15, 511.31 265.94, 729.43 17.44 M171.84 664.2 C319.33 500.26, 464.56 332.64, 733.98 18.56 M171.52 664.5 C295.75 524.34, 419.68 383.15, 734.51 18.04 M175.09 668.24 C310.69 512.26, 447.39 356.79, 738.97 19.57 M175.29 667.48 C364.84 447.85, 556.49 227.18, 738.45 19.08 M178.22 669.16 C351.65 466.96, 525.6 265.97, 742.69 19.65 M178.86 669.52 C324.21 505.76, 467.22 340.97, 743.35 19.85 M180.96 672.36 C406 412.82, 632.12 153.27, 748.62 19.24 M182.01 671.97 C391.33 427.26, 604.12 183.55, 748.31 20.17 M185.11 674.63 C405.36 419.29, 626.52 165.88, 751.67 22.47 M185.19 673.97 C388.75 441.59, 592.16 208.48, 752.04 21.73 M189.17 676.07 C396.01 437.01, 603.4 200.32, 756.63 22.48 M188.64 675.72 C308.39 538.91, 426.21 403.55, 756.16 22.82 M192.02 679.04 C382.64 461.04, 572.67 243.55, 760.27 24.59 M192.16 678.69 C355.04 490.91, 517.26 304.98, 760.71 23.94 M195.74 679.75 C356.46 493.51, 518.41 306.25, 764.36 24.45 M196.02 680.58 C321.67 536.76, 446.33 392.94, 765.13 24.88 M197.92 682.72 C378.52 474.26, 559.53 267.01, 769.46 26.66 M198.95 683.06 C383.67 472.29, 566.19 261.56, 769.82 25.88 M202.55 685.44 C368.91 495.28, 533.3 305.94, 773.38 26.79 M202.32 684.52 C360.12 497.96, 520.12 314.4, 773.84 27.7 M205.93 686.37 C407.34 455.28, 607.8 224.82, 777.83 29.98 M205.76 686.25 C430.86 428.68, 653.71 172.55, 777.29 29.61 M209.1 689.43 C436.12 428.18, 661.92 167.29, 781.52 29.88 M208.82 688.97 C349.25 530.07, 489.18 369.69, 781.64 30.39 M213.49 691.64 C437.1 434.68, 660.28 178, 786.65 31.1 M212.37 691.44 C415.37 459.51, 617.06 226.97, 786.4 31.71 M215.59 693.54 C339.76 551.92, 463.65 408.8, 790.48 32.92 M216.14 693.74 C359.42 527.73, 502.81 362.57, 790.25 32.73 M218.04 696.61 C347.31 546.09, 476 398.42, 795.09 33.55 M218.66 696.05 C395.44 494.7, 570.31 293.34, 795 33.72 M222.77 697.14 C369.72 529.68, 513.59 363.61, 798.84 35.25 M222.92 697.4 C350.38 549.99, 479.48 401.58, 798.67 35.24 M227.13 699.84 C445.73 445.18, 667.05 191.39, 803.02 36.78 M227.04 699.42 C386.33 518.92, 544.96 336.82, 802.7 36.36 M230.73 701.82 C453.2 444.53, 674.14 190.46, 806.46 37.51 M230.66 700.79 C448.19 450.3, 666.83 198.69, 807.32 37.61 M233.76 702.25 C370.06 546.72, 508.29 388.61, 812.16 39.48 M234.27 702.66 C425.73 481.33, 617.83 259.18, 811.63 39.23 M239.21 704.38 C467.81 444.48, 694.56 181.63, 815.55 39.71 M238.69 704.37 C420.08 497.51, 601.24 289.45, 815.4 40.31 M242.33 705.32 C413.96 509.11, 587 310.56, 819.75 41.71 M241.79 705.71 C405.11 516.84, 569.05 327.95, 819.72 40.9 M245.03 707.8 C386.34 544.84, 528.9 381.84, 823.79 42.97 M246.17 707.62 C425.55 503.59, 604.57 297.4, 824.05 42.75 M250.13 709.9 C429.95 503.23, 610.13 295.22, 827.71 43.46 M249.56 709.66 C458.51 467.14, 669.59 224.81, 827.85 44.34 M253.28 711.09 C482.39 448.95, 712.19 185.14, 831.92 44.88 M253.16 711.29 C393.98 550.32, 531.92 391.62, 832.35 45.43 M258.14 712.51 C467.87 469.67, 677.89 228.19, 837.44 46.36 M257.73 712.75 C458.23 480.32, 660.93 247.57, 836.61 46.14 M261.74 713.98 C425.38 520.91, 592.22 330.18, 841.24 47.21 M261.49 714.5 C408.81 544.52, 556.47 374.24, 841.62 46.91 M265.01 716.99 C485.3 461.63, 707.3 206.11, 845.02 47.81 M265 716.75 C409.76 547.68, 557.11 378.97, 845.21 48.75 M267.71 718.4 C413.55 551.07, 558.76 383.37, 848.35 50.31 M268.35 718.13 C441.29 519.71, 616.67 318.42, 848.91 50.5 M273.11 719.7 C406.48 567.62, 539.4 415.55, 853 53.08 M272.61 719.78 C401.28 572.94, 528.82 426.01, 853.12 52.09 M276.59 720.73 C400.06 577.98, 522.91 436.51, 856.95 52.76 M276.15 721.63 C397.1 584.45, 516.19 447.48, 856.87 53.21 M280.88 722.71 C403.99 584.86, 525.53 444.76, 860.67 55.59 M280.37 723.51 C414.26 568.39, 549.48 412.14, 860.49 55.06 M283.06 725.13 C506.34 472.69, 725.39 219.46, 864.71 56.41 M283.6 725.39 C501.4 472.98, 721.9 219.61, 864.18 57.54 M288.18 726.16 C500.83 480.24, 715 235.15, 867.95 59.63 M287.58 726.69 C412.92 584.43, 537.35 441.8, 868.31 58.66 M291.5 728.61 C497.05 489.79, 702.22 253.27, 872.21 59.6 M292.22 728.33 C477.96 513.94, 665.94 297.3, 872.5 60.3 M295.19 729.68 C517.43 473.06, 742.77 215.71, 875.66 61.6 M295.54 730.21 C476.51 519.61, 659.08 309.56, 875.97 62.04 M298.75 731.14 C427.15 581.93, 559.25 431.58, 880.08 64 M299.03 731.93 C487.24 513.73, 675.7 297.7, 880.02 63.88 M302.81 733.89 C469.77 543.95, 634.87 353.27, 884.28 66.42 M302.7 733.4 C436.55 581.71, 568.61 429.51, 883.58 65.7 M306.57 735.17 C465.7 552.7, 623.45 372.31, 887.08 66.15 M307.04 734.6 C512.14 501.1, 716.8 266.25, 887.9 66.58 M312.28 735.14 C501.26 522.04, 690.15 304.91, 892 69.5 M311.16 736.3 C471.18 547.35, 633.72 361.05, 891.25 69.07 M315.3 736.57 C464.63 562.86, 614.43 390.19, 895.22 70.77 M316.13 737.4 C528.61 495.77, 739.14 253.48, 895.45 70.67 M319.48 738.69 C494.56 534.92, 670.15 331.78, 898.28 73.2 M320.5 738.13 C514.49 516.72, 707.02 295.62, 898.99 72.12 M324.64 739.86 C522.85 509.22, 722.79 279.51, 903.03 74.22 M324.2 739.65 C441.12 604.97, 558.7 469.58, 903.34 73.53 M327.61 740.51 C478.78 566.98, 630.62 392.66, 906.7 75.15 M328.11 741.05 C494.97 549, 660.31 357.95, 906.83 75.39 M332.02 741.6 C549.33 493.46, 764.65 244.89, 910.7 77.83 M332.32 741.97 C507.28 544.26, 680.44 344.83, 910.4 77.32 M336.54 742.68 C554.46 495.2, 771.62 246.21, 914.09 79.93 M336.49 743.54 C552.24 495.24, 768.43 246.92, 913.9 79.13 M340.92 745.34 C560.84 493.72, 782.05 238.94, 918.13 81 M340.71 745.58 C550.77 500.85, 763.9 256.28, 918.41 80.12 M345.4 746.55 C494.36 574.62, 646.49 399.8, 922.99 82.6 M345.1 746.01 C500.69 566.91, 655.54 388.1, 922.52 82.56 M349.33 746.68 C517.56 553.57, 685.3 359.98, 925.29 83.29 M349.58 747.4 C527.12 542.42, 705.91 337.52, 925.69 83.98 M353.82 749.21 C511.18 562.6, 671.03 378.22, 929.21 85.17 M353.55 748.41 C567.92 499.9, 783.76 251.01, 929.35 86.24 M357.17 749.03 C482.02 605.69, 605.99 464.66, 932.14 88.62 M358.11 749.76 C536.83 543.98, 715.05 338.58, 932.26 88.37 M362.3 751.87 C482.77 610.27, 607.21 467.52, 936.17 89.62 M361.61 751.85 C552.45 529.14, 745.48 307.86, 936.11 90.36 M365.84 752.47 C570.42 517.06, 774 282.15, 939.44 91.76 M366.03 752.94 C562.17 526.07, 760.39 298.8, 940.16 92.19 M370.27 753.01 C487.43 617.76, 607.89 478.21, 942.21 94.73 M370.01 753.77 C558.12 538.61, 745.85 321.99, 942.94 95.12 M374.6 755.58 C546.36 554.32, 718.19 356.95, 947.23 96.38 M374.42 754.9 C529.74 576.77, 684.58 398.69, 946.79 97.12 M378.65 756.11 C510 602.52, 643.55 448.98, 949.71 99.92 M378.68 756 C587.26 513.33, 797.15 271.42, 949.86 99.39 M383.18 758.23 C573.02 538.34, 764.45 317.93, 953.78 101.01 M382.27 757.76 C570.13 537.66, 760.59 318.79, 953.07 101.12 M386.26 758.56 C614.37 496.32, 841.93 234.65, 956.95 103.73 M386.7 758.95 C506.32 622.79, 623.49 487.89, 956.27 103.61 M391.4 759.6 C574.45 546.97, 758.48 335.5, 960.21 106.04 M391.36 759.76 C540.89 589.94, 690.72 417.31, 959.63 105.84 M395.79 761.4 C542.06 594.17, 687.47 428.74, 963.69 107.8 M395.48 761.27 C523.65 610.35, 652.77 462.28, 962.93 108.55 M400.21 762.65 C528.81 614.56, 657.41 468.29, 967.13 110.58 M399.66 762.56 C611.21 516.46, 824.2 270.89, 967.02 110.66 M404.88 762.68 C573.32 573.59, 738.77 381.72, 971.02 112.15 M405.07 762.48 C604.12 532.19, 804.48 301.49, 970.58 111.77 M409.37 763.14 C626.56 512.02, 845.88 259.98, 973.81 114.85 M409 763.84 C568.36 581.93, 724.33 402.28, 973.8 114.74 M414.02 763.92 C548.95 605.61, 685.66 448.05, 976.37 117.36 M414.41 764.2 C606.47 542.51, 801.04 319.19, 976.97 116.65 M418.81 764.65 C557.99 607.39, 695.58 446.44, 980.65 119.39 M418.85 765.54 C618.64 538.58, 816.67 310.74, 980.04 118.94 M423.84 766.22 C630.26 525.81, 839.04 285.91, 983.02 120.86 M423.87 765.84 C590.28 575.65, 755.03 386.38, 983.59 121.02 M428.19 767.52 C553.99 619.45, 682.55 472.9, 986.7 124.23 M427.92 766.39 C580.59 588.43, 736.2 410.33, 986.99 123.91 M432.04 766.95 C648.22 516.03, 865.69 267.38, 990.27 125.56 M432.58 767.36 C616.74 553.62, 800.92 340.98, 990.19 125.45 M437.08 768.79 C573.97 612.58, 710.38 456.95, 994.37 127.37 M437.05 767.87 C611.57 569.96, 785.35 369.43, 994.1 127.24 M442.24 768.64 C627.95 555.19, 813.43 339.64, 996.53 130.27 M442 768.84 C620.42 565.16, 798.45 360.44, 997.51 130.41 M445.72 769.44 C667.38 515.81, 889.27 261.29, 1000.54 132.56 M446.44 769.79 C557.07 638.15, 670.27 507.87, 1000.17 132.53 M451.92 770.1 C616.87 579.67, 784.82 389.23, 1002.61 136.07 M451.57 770.12 C656.87 535.68, 858.8 302.95, 1002.98 135.11 M455.85 771.93 C613.96 591.27, 771.81 410.42, 1006.44 138.47 M456.05 771.51 C611.13 590.6, 768.05 410.94, 1006.42 138.11 M461.26 772.06 C628.95 578.23, 797.8 382.65, 1009.74 140.05 M460.67 771.18 C627.28 579.38, 795.37 385.73, 1009.5 140.36 M465.08 773.06 C620.21 591.82, 776.16 411.87, 1012.29 143.19 M465.2 772.34 C670 538.5, 872.65 304.36, 1012.32 143.59 M470.72 773.17 C593.02 634.19, 713.26 493.33, 1015.19 146.35 M469.85 773.36 C587.76 639.87, 703.58 507.03, 1015.06 145.69 M474.12 774.32 C618.59 605.61, 765.51 436.69, 1017.78 148.32 M474.56 774.32 C623.02 604.53, 769.59 436.34, 1018.09 148.72 M478.65 773.98 C614.26 624.55, 746.34 471.35, 1021.69 151.83 M479.61 774.12 C638.24 588.23, 798.35 404.32, 1021.01 151.37 M484.37 776.34 C640.34 594.46, 799.76 411.28, 1024.52 153.4 M483.36 775.44 C628.34 607.36, 774.31 439.78, 1024.32 153.78 M489.16 775.41 C605.83 641.47, 721.79 508.42, 1027.09 156.49 M489.07 775.53 C596.78 649.19, 704.28 524.16, 1027.67 156.4 M493.63 774.92 C659.15 583.31, 825.48 391.74, 1029.71 158.99 M494.29 775.74 C625.06 623.52, 757.02 472.1, 1030.09 159.96 M499.71 775.4 C669.02 580.1, 837.99 386.1, 1032.45 161.75 M499.18 775.68 C665.02 585.17, 830.28 394.91, 1032.44 162.09 M505.09 776.77 C640.56 620.41, 776.47 464.16, 1036.05 164.55 M504.54 776.55 C696.23 555.83, 888.57 334.54, 1036 165.12 M509.37 776.29 C703.74 553.73, 896.8 330.03, 1039.08 168.31 M510.16 775.73 C634.46 629.26, 761.81 482.63, 1038.46 167.84 M515.54 776.73 C703.81 561.84, 892.51 345.8, 1042.12 170.48 M515.1 776.6 C705.64 556.62, 897.95 335.51, 1041.45 170.35 M519.54 776.59 C691.74 579.21, 863.36 382.89, 1045.43 173.43 M520.22 776.84 C700.14 569.01, 881.35 360.15, 1044.66 172.84 M524.59 776.58 C643.6 640.17, 763.74 502.29, 1047.46 175.95 M525.32 776.74 C677.54 601.34, 828.37 427.08, 1047.64 175.69 M530.66 776.86 C732.64 541.01, 937.7 304.78, 1050.48 178.36 M529.92 777.63 C641.13 648.52, 752.66 520.32, 1051.16 178.27 M536 776.58 C728.99 550.97, 923.43 326.58, 1054.3 180.44 M535.32 776.79 C718.26 567.3, 902.29 355.81, 1054.15 180.58 M541.05 777.99 C696.98 598.05, 851.43 418.77, 1057.1 183.41 M540.54 777.69 C731.29 556.91, 923.58 335.62, 1056.66 183.67 M545.18 777.52 C694.17 602.88, 845.91 428.05, 1060.35 186.16 M545.16 777.91 C682.96 620.25, 820.35 462.64, 1060.08 185.74 M550.58 777.84 C668.26 641.89, 785.73 506.11, 1062.59 189.6 M550.15 777.8 C745.69 552.53, 940.56 328.3, 1062.15 189.66 M555.79 777.86 C741.2 564.99, 926.75 352.31, 1064.71 192.3 M555.82 778.55 C717.79 594.34, 878.36 409.65, 1064.8 192.79 M561.21 777.94 C708.42 608.31, 856.37 438.23, 1067.21 196.29 M561.04 778.27 C732.9 584.12, 903.34 387.63, 1067.04 196.06 M565.78 778.36 C748.25 569.03, 929.79 359.49, 1069.38 199.4 M566.02 778.68 C709.03 614.1, 851.26 450.8, 1069.06 199.26 M570.97 779.17 C690.72 642.76, 811.53 504.07, 1071.73 203.6 M570.78 778.98 C760.16 562.23, 946.64 346.58, 1071.93 203.07 M575.83 778.74 C747.31 585.08, 917.47 388.9, 1074.53 206.57 M576.29 779.31 C738.12 593.14, 901.27 405.76, 1073.84 205.92 M580.94 778.87 C767.46 566.2, 950.43 355.32, 1076.99 209.93 M581.3 779.27 C760.92 573.26, 939 368.2, 1076.15 210 M586.71 779.64 C763.96 574.51, 941.75 371.56, 1079.02 212.46 M586.74 779.15 C734.01 607.16, 882.12 436.2, 1078.88 213.31 M591.17 780.19 C694.93 657.75, 799.52 537.14, 1080.48 216.77 M590.37 780.55 C686.67 666.53, 785.92 552.38, 1081.17 216.5 M596.48 779.82 C767.43 581.64, 939.88 384.7, 1083.48 218.48 M597 779.49 C714.54 643.97, 831.81 509.46, 1084.55 218.94 M601.95 778.85 C721.6 643.9, 840.56 507.46, 1085.87 222.37 M602.03 779.04 C766.32 590.36, 930.44 402.7, 1086.87 222.2 M608.74 779.77 C729.15 641.62, 849.19 504.17, 1088.42 226.2 M607.74 778.58 C734.34 633.61, 860.89 487.06, 1088.79 225.53 M613.7 779.25 C791.19 576.48, 966.48 375.49, 1091.51 228.79 M613.34 778.26 C729.23 641.62, 847.02 506.21, 1090.93 229.35 M618.92 778.89 C747.75 632.39, 873.9 487.72, 1094.23 232.05 M619.31 777.98 C753.15 626.15, 886.43 472.68, 1093.87 232.89 M625.44 778.37 C735.27 649.27, 845.12 521.97, 1095.24 236.49 M625.24 778.14 C785.39 592.59, 946.06 407.43, 1096.34 236.27 M630.85 777.36 C728.23 663.56, 828.02 549.65, 1097.71 239.13 M630.33 777.71 C765.52 624.06, 898.94 471.03, 1098.55 238.91 M635.83 776.65 C789.38 596.13, 946.05 417.93, 1100.53 243.43 M635.98 776.69 C761.44 632.29, 886.25 488.54, 1100.39 242.39 M641.82 776.88 C814.99 576.55, 989.54 375.16, 1103.19 246.04 M641.57 776.51 C758.86 640.69, 875.27 505.98, 1103.17 245.65 M647.84 776.46 C783.98 620.24, 918.9 465.48, 1104.44 250.63 M647.76 776.09 C746.98 662.18, 845.17 549.21, 1104.7 250.22 M653.03 775.07 C768.25 646.02, 882.37 514.11, 1105.92 254.01 M653.15 775.47 C769.88 644.62, 884.67 512.39, 1106.28 253.99 M658.29 774.85 C831.27 579.88, 1001.7 383.09, 1107.83 258.27 M659.14 775.06 C748.53 671.01, 839.17 567.14, 1108.06 258.69 M663.97 774.25 C755.88 670.26, 849.47 564.84, 1109.71 263.17 M664.16 775.24 C813 604.85, 961.55 433.69, 1109.85 262.77 M669.92 774.01 C846.06 570.98, 1020.77 368.18, 1111.27 266.48 M670.22 774.84 C837.5 580.58, 1006.32 386.57, 1111.7 266.68 M676.41 774.26 C766.73 669.86, 855.38 566.73, 1114.11 271.46 M675.45 773.97 C777.32 655.89, 879.37 537.76, 1113.27 270.45 M680.95 774.05 C851.91 575.46, 1022.76 379.33, 1114.56 274.45 M681.48 774.05 C835.23 597.63, 987.88 422.52, 1115.15 274.99 M688.51 771.75 C814.52 625.05, 941.75 478.26, 1116.58 278.74 M688.11 771.9 C807.57 637.95, 925.12 502.84, 1116.68 278.86 M694.23 771.49 C844.53 600.8, 992.7 430.66, 1118.86 282.96 M694.51 770.75 C793.59 654.61, 893.77 539.01, 1118.73 282.82 M701.98 769.52 C836.73 612.24, 974.88 453.89, 1120.31 286.82 M701.46 769.05 C812.94 639.36, 924.61 510.96, 1120.45 286.41 M707.4 768.52 C828.23 631.46, 947.09 494.07, 1123.24 290.13 M708.12 768.12 C792.47 671.92, 876.49 574.93, 1122.17 291.15 M715.18 765.51 C806.22 660.53, 897.21 556.92, 1124.42 295.29 M714.54 765.77 C796.3 671.38, 878.97 575.39, 1124.53 294.71 M721.13 765.38 C869.93 591.24, 1020.85 418.3, 1126.22 298.94 M721.45 764.76 C860.65 603.14, 1002.32 440.72, 1125.71 298.66 M727.18 763.17 C846.79 625.68, 967.82 487.73, 1127.08 302.6 M727.37 763.17 C871.93 596.34, 1018.1 429.06, 1127.99 302.87 M734.78 761.82 C815.4 670.4, 895.19 577.45, 1128.77 306.66 M734.01 761.47 C818.98 665.68, 903.28 567.93, 1129.51 307.53 M740.51 760.38 C884.08 592.96, 1029.28 426.51, 1131.69 311.45 M740.87 760.45 C826.75 662.28, 912.61 563.98, 1130.82 311.66 M747.21 757.88 C870.46 617.4, 993.68 477.51, 1131.87 316.79 M747.62 758.37 C851.33 639.75, 954.34 521.24, 1132.41 316.63 M753.19 758.02 C840.29 655.32, 927.7 555.16, 1132.63 320.77 M754.18 757.41 C875.94 617.95, 996.92 478.45, 1132.83 321.55 M760.76 754.74 C872.5 626.94, 985.47 498.19, 1133.86 325.61 M760.52 755.31 C844.06 662.71, 926.09 568.83, 1134.47 326.01 M767.02 754.51 C903.16 600.77, 1036.88 445.77, 1135.33 332.34 M766.82 754.22 C842.01 669.24, 917.44 583.77, 1134.96 331.66 M773.39 753.03 C866.91 645.3, 961.9 535.56, 1135.36 336.51 M773.39 753.06 C887.31 622.2, 1000.48 492.85, 1135.91 336.48 M780.98 749.07 C869.56 646.53, 959.29 543.98, 1136.57 341.89 M781.4 749.5 C885.79 628.23, 990.95 507.56, 1136.77 341.71 M789.56 747.62 C918.51 600.33, 1046.03 453.93, 1137.53 347.25 M789.5 746.83 C868.83 656.31, 947.16 565.76, 1137.36 346.83 M796.76 744.72 C884.21 644.64, 971.06 545.18, 1137.99 351.69 M796.7 744.49 C867.7 663.32, 937.78 582.91, 1138.36 352.17 M804.69 741.91 C905.37 624.58, 1009.55 504.65, 1139.03 356.26 M804.33 742.62 C930.95 596.6, 1057.33 450.58, 1139.59 356.61 M811.31 739.53 C917.56 617.44, 1023.01 495.52, 1140.94 362.1 M811.83 740.32 C886.74 652.98, 963 565.76, 1140.38 361.85 M819.42 737.65 C890.27 655.51, 960.73 573.57, 1141.24 367.4 M819.49 736.98 C889.88 656.02, 960.61 575.09, 1140.38 367.14 M826.65 735.64 C922.37 626.13, 1016.46 516.84, 1142.06 371.98 M825.99 735.37 C905.84 643.5, 986.67 550.96, 1141.63 372.75 M833.82 732.65 C951.15 596.94, 1068.9 463.33, 1141.69 378.17 M834.05 732.86 C937.22 614.78, 1041.05 495.56, 1142.04 378.32 M842.29 729.3 C907.75 651.72, 975.42 576.88, 1141.42 384.53 M840.91 730.48 C913.26 646.95, 985.92 562.37, 1141.32 384.85 M848.67 728.53 C934.52 627.43, 1021.7 527.23, 1141.27 391.21 M848.61 728.13 C953.17 609.14, 1056.98 489.55, 1140.95 391.54 M855.13 726.06 C912.71 659.31, 970.18 592.2, 1139.47 398.89 M855.42 725.63 C954.1 611.48, 1054.11 495.86, 1140.37 398.82 M863.5 722.53 C923.54 652.82, 986.8 581.25, 1139.18 406.8 M863.02 723.26 C927.43 650.22, 991.43 575.9, 1138.96 405.44 M871.11 720.53 C968.34 610.99, 1063.23 500.41, 1138.38 412.24 M870.54 721.26 C929.03 652.51, 988.05 585.69, 1138.31 412.13 M874.76 723.23 C942.92 643.33, 1010.92 565.6, 1137.35 419.82 M874.35 722.31 C971.89 610.96, 1068.78 499.69, 1138.06 419.08 M883.87 717.41 C956.19 635.74, 1027 554.12, 1136.34 425.42 M883.91 717.41 C952.02 639.57, 1021.88 560.18, 1136.51 426.89 M892.53 712.33 C948.76 649.44, 1003.1 584.45, 1137.08 432.29 M892.88 713.02 C965.07 631.21, 1035.36 549.45, 1136.26 432.64 M902.66 708.68 C987.53 611.11, 1071.7 514.11, 1136.11 438.85 M902.86 707.58 C956.76 646.31, 1008.09 587.1, 1135.7 440.46 M913.27 704.06 C1001.48 602.69, 1088.39 498.96, 1136.11 444.96 M912.87 703.47 C994.42 607.35, 1076.37 514.38, 1136.03 445.19 M921.37 698.57 C982.15 628.77, 1041.07 561.7, 1132.74 456.69 M922.59 698.85 C999.85 606.69, 1077.28 517.37, 1131.73 456.68 M930.35 694.42 C1009.3 607.33, 1081.68 520.87, 1129.64 467.36 M931.3 692.58 C991.34 625.07, 1050.26 557.84, 1127.89 466.88 M941.68 687.19 C999.26 625.14, 1051.18 563.86, 1123.76 476.19 M942.59 687.62 C997.47 622.77, 1051.78 559.67, 1124.94 477.5 M953.03 680.96 C991 638.87, 1029.29 594.5, 1119.99 487.71 M953.04 680.87 C990.53 636.17, 1030.2 590.17, 1121.78 487.67 M967.31 668.81 C1021.2 606.48, 1077.08 541.93, 1118.33 496.8 M968.2 668.91 C1025.77 603.57, 1081.34 538.57, 1117.62 498.46 M983.74 659.52 C1027.22 611.59, 1065.9 566.78, 1113.68 508.79 M982.17 659.09 C1013.25 621.64, 1044.75 585.88, 1114.45 507.44 M997.85 645.88 C1026.53 616.53, 1052.19 582.1, 1113.6 514.31 M998.29 646.36 C1029.28 611.5, 1058.1 576.94, 1114.05 513.9 M1019.77 631.06 C1039.88 605.24, 1063.63 579.13, 1102.12 536.56 M1019.42 629.41 C1036.75 608.11, 1056.15 585.84, 1102.09 535.55" stroke="#ffec99" stroke-width="0.5" fill="none"></path><path d="M553.89 -0.73 C584.98 -7.64, 620.55 1.1, 653.28 4.48 C686.01 7.87, 718.98 12.54, 750.25 19.55 C781.52 26.56, 811.72 35.92, 840.91 46.55 C870.1 57.18, 899.26 69.38, 925.4 83.32 C951.55 97.26, 975.87 113.46, 997.79 130.2 C1019.7 146.95, 1039.49 164.55, 1056.89 183.81 C1074.28 203.07, 1089.89 224.66, 1102.16 245.77 C1114.43 266.88, 1123.85 288.46, 1130.5 310.49 C1137.16 332.51, 1141.31 355.45, 1142.1 377.94 C1142.89 400.43, 1140.23 423.36, 1135.22 445.45 C1130.2 467.54, 1122.33 489.32, 1112 510.46 C1101.68 531.61, 1088.89 552.55, 1073.25 572.32 C1057.62 592.09, 1038.53 611.25, 1018.18 629.05 C997.83 646.86, 975.61 663.94, 951.15 679.16 C926.69 694.37, 899.64 708.65, 871.43 720.35 C843.22 732.05, 812.67 740.97, 781.88 749.36 C751.09 757.74, 718.99 765.84, 686.69 770.64 C654.38 775.44, 621.18 777.58, 588.04 778.17 C554.9 778.75, 520.45 777.39, 487.85 774.15 C455.24 770.91, 423.7 765.97, 392.41 758.75 C361.12 751.52, 329.49 741.67, 300.11 730.81 C270.73 719.94, 242.13 707.47, 216.12 693.54 C190.12 679.62, 165.97 664.02, 144.08 647.26 C122.2 630.51, 102.16 612.01, 84.82 593.02 C67.48 574.02, 52.33 554.18, 40.04 533.3 C27.75 512.41, 17.65 489.99, 11.09 467.7 C4.53 445.42, 1.59 422.25, 0.67 399.6 C-0.25 376.94, 0.94 353.85, 5.58 331.76 C10.23 309.67, 17.99 288.34, 28.54 267.07 C39.1 245.8, 53.25 223.98, 68.91 204.13 C84.58 184.27, 102.27 165.7, 122.55 147.94 C142.83 130.18, 165.79 112.43, 190.59 97.57 C215.38 82.71, 243.24 70.42, 271.29 58.8 C299.35 47.17, 328.21 36.3, 358.9 27.81 C389.6 19.32, 421.34 12.35, 455.48 7.86 C489.61 3.36, 544.03 0.75, 563.7 0.84 C583.38 0.92, 573.39 2.04, 573.53 8.38 M363.1 25.61 C389.11 11.77, 427.33 12.4, 460.11 7.94 C492.9 3.48, 526.81 -0.8, 559.81 -1.15 C592.8 -1.51, 625.53 2.4, 658.09 5.8 C690.65 9.2, 724.06 12.41, 755.15 19.25 C786.23 26.1, 815.76 35.72, 844.6 46.87 C873.43 58.02, 902.46 72.03, 928.16 86.18 C953.87 100.32, 977.11 114.96, 998.83 131.76 C1020.56 148.57, 1040.96 167.76, 1058.52 187.01 C1076.08 206.27, 1092.19 226.51, 1104.19 247.29 C1116.2 268.07, 1124.06 289.36, 1130.54 311.67 C1137.01 333.99, 1142.02 358.71, 1143.04 381.19 C1144.05 403.66, 1141.83 424.51, 1136.6 446.53 C1131.37 468.55, 1122.64 491.94, 1111.66 513.31 C1100.68 534.69, 1086.59 555.16, 1070.71 574.78 C1054.83 594.41, 1036.83 613.55, 1016.38 631.06 C995.94 648.58, 972.64 664.93, 948.01 679.89 C923.38 694.85, 896.87 708.8, 868.61 720.81 C840.34 732.82, 809.53 743.56, 778.42 751.95 C747.3 760.33, 714.27 766.68, 681.91 771.14 C649.55 775.61, 617.35 778.47, 584.27 778.72 C551.18 778.97, 516.21 776.22, 483.39 772.63 C450.58 769.04, 418.36 764.42, 387.38 757.16 C356.4 749.9, 326.45 739.88, 297.51 729.07 C268.56 718.26, 239.7 706.46, 213.72 692.28 C187.74 678.11, 163.41 661.16, 141.63 644.01 C119.85 626.86, 99.99 608.28, 83.03 589.39 C66.07 570.49, 51.91 551.58, 39.88 530.62 C27.85 509.65, 17.27 485.86, 10.84 463.59 C4.42 441.31, 1.79 419.09, 1.32 396.97 C0.85 374.85, 3.41 353.04, 8.02 330.85 C12.64 308.67, 18.8 285.37, 29.01 263.84 C39.21 242.31, 52.96 221.26, 69.27 201.67 C85.59 182.09, 105.84 164, 126.88 146.32 C147.92 128.64, 170.89 110.6, 195.54 95.59 C220.18 80.59, 246.76 67.93, 274.75 56.31 C302.73 44.68, 348.11 29.47, 363.44 25.85 C378.77 22.23, 363.17 28.57, 366.74 34.59" stroke="#1e1e1e" stroke-width="1" fill="none"></path></g><g transform="translate(509.2734375 38.25781249999994) rotate(0 68.82994079589844 12.5)"><text x="0" y="0" font-family="Virgil, Segoe UI Emoji" font-size="20px" fill="#1e1e1e" text-anchor="start" style="white-space: pre;" direction="ltr" dominant-baseline="text-before-edge">All Executions</text></g><g stroke-linecap="round" transform="translate(59.02734375 180.72656249999994) rotate(0 330.884765625 230.88671875000003)"><path d="M70.18 87.51 C70.18 87.51, 70.18 87.51, 70.18 87.51 M70.18 87.51 C70.18 87.51, 70.18 87.51, 70.18 87.51 M32.97 137.24 C49.71 115.79, 68.66 97.19, 83.61 79.11 M32.87 135.48 C50.29 116.07, 67.58 95.85, 82.71 77.11 M25.75 148.95 C40.44 133.13, 56.3 116.29, 94.63 71.19 M26.65 148.62 C55.95 119.42, 82.43 87.76, 97.11 69.5 M22.58 164.45 C54.85 122.89, 91.53 82.16, 110.94 62.12 M21.79 162.86 C47.86 133.07, 74.04 101.41, 109.81 61.4 M7.15 184.1 C40.9 144.73, 74.17 104.32, 123.21 49.31 M6.68 185.37 C53.32 132.29, 100.8 78.92, 123.75 50.22 M5.38 191.72 C52.66 140.4, 98.97 84.83, 128.92 51.82 M5.28 191.12 C52.68 139.16, 98.25 84.37, 128.68 51.33 M5.22 197.43 C46.12 152.3, 89.64 103.97, 136.06 47.23 M4.36 198.77 C36.89 161.68, 70.51 123.66, 136.89 48.92 M4.75 206.52 C55.39 150.93, 104.5 92.38, 145.62 43.02 M3.53 206.5 C48.79 154.61, 92.58 105.38, 143.79 45.28 M2.2 214.57 C37.77 173.23, 72.66 130.4, 151.84 39.77 M2.63 213.11 C58.52 147.32, 115.5 82.43, 152.18 41.54 M3.16 222.1 C42.8 176.9, 79.77 128.61, 159.55 37.22 M2.41 221.3 C63.36 150.25, 124.54 80.16, 160.44 37.26 M2.41 229.26 C50.03 174.28, 98.92 118.59, 171.11 33.86 M1.26 227.07 C51.6 168.66, 101.82 112.11, 169.41 33.48 M1.78 236.04 C49.5 178.84, 97.58 121.91, 176.92 31.65 M1.15 235 C37.13 192.25, 72.46 151.95, 178.08 30.21 M0.47 239.36 C55.71 178.86, 108.63 115.69, 185.77 25.43 M0.85 239.95 C42.69 192.02, 83.08 144.07, 186.8 27.28 M1.71 246.15 C70.53 166.94, 140.85 86.29, 194.8 23.78 M1.54 245.52 C72.35 166.68, 141.5 86.99, 194.11 24.4 M1.62 251.37 C73.88 165.71, 145.46 83.04, 201.33 22.94 M2.42 250.45 C49.56 196.54, 94.96 144.82, 200.44 23.06 M2.59 255.82 C58.66 190.76, 113.13 128.22, 207.47 20.98 M3.89 255.76 C69.56 178.95, 136.82 102.77, 207.67 21.44 M6.29 258.6 C50 209.3, 93.75 159.55, 215.24 20.64 M6.1 259.88 C75.29 179.3, 144.36 98.9, 214.78 19.41 M6.2 263.09 C74.04 188.34, 141.71 110.25, 220.5 18.68 M7.15 264.85 C86.54 169.51, 167.23 76.36, 221.26 17.19 M7.59 268.32 C51.63 216.38, 98.4 166.42, 226.37 16.09 M7.18 268.55 C88.55 176.27, 170.83 81.47, 227.87 15.7 M8.6 274.92 C58.43 218.12, 108.48 159.44, 233.72 13.57 M9.01 273.5 C68.87 206.5, 126.97 139.2, 233.85 14.46 M11.07 277.99 C83.91 191.7, 157.49 105.55, 240.72 13.34 M9.54 278.81 C86.68 190.54, 165.53 100.75, 241.81 12.42 M10.64 282.92 C76.96 207.77, 144.56 131.33, 247.37 10.05 M11.1 283.38 C84.97 197.13, 159.44 110.44, 248.46 11.17 M11.41 288.4 C63.9 229.33, 115.75 169.16, 255.2 9.59 M12.36 289.2 C73.95 218.72, 135.39 148.68, 255.26 8.2 M13.54 294.43 C109.64 179.92, 207.38 68.82, 263.55 5.3 M12.94 294.05 C110.21 181.97, 206.97 71.16, 263.83 4.35 M14.23 297.34 C99.74 202.52, 181.76 106.98, 270.02 4.65 M15.91 297.19 C85.06 213.72, 157.13 131.22, 269.35 5.33 M18.54 299.15 C69.33 239.04, 122.41 178.55, 273.79 4.13 M17.27 300.31 C92.16 215.99, 164.79 131.03, 275.39 4.2 M19.01 304.1 C120.85 187.34, 219.32 73.52, 281.48 2.92 M20.64 303.87 C79.54 233.14, 140.21 163.15, 280.06 4.2 M22.15 307.27 C77.81 244.64, 131.21 182.01, 286.78 4.33 M21.91 307.34 C108.37 208.33, 194.58 108.5, 286.51 3.54 M24.96 311.22 C106.01 215.9, 186.35 123.33, 291.14 2.96 M24.61 311.52 C89.34 234.28, 155.64 157.97, 291.48 3.27 M27.55 314.62 C84.3 248.22, 141.47 184, 298.19 1.86 M26.37 314.28 C86.11 248.35, 143.68 182.13, 297.78 2.45 M28.35 317.32 C106.75 229.72, 182.86 142.13, 303.29 3.35 M29.36 318.36 C113.36 219.28, 197.59 122.85, 302.67 2.74 M29.69 321.8 C107.51 233.47, 184.41 144.86, 308.33 1.83 M30.84 322.09 C122.1 215.43, 214.61 109.46, 308.88 1.6 M33.23 324.9 C119.24 228.2, 203.66 129.4, 315.38 1.11 M33.43 325.83 C127.04 216.2, 220.25 107.95, 314.32 2.17 M34.64 328.89 C148.67 200.07, 260.39 70.29, 319.97 0.44 M35.32 329.21 C110.5 244.2, 184.45 158.42, 319.72 1.27 M37.96 333.18 C106.58 252.15, 175.79 172.06, 326.04 1.04 M37.18 332.07 C121.03 238.19, 203.6 142.97, 325.91 1.15 M40.24 336.2 C152.91 204.05, 267.69 74.8, 330.93 1.09 M39.26 336.09 C116.35 245.83, 194.7 155.41, 330.91 0.9 M41.27 340.06 C145.61 220.12, 250.78 98.95, 337.87 -0.07 M41.41 340.2 C120.86 250.89, 199.57 160.57, 337.45 -0.24 M45.03 343.42 C112.11 265.51, 177.59 187.81, 342.24 0.52 M44.1 343.57 C105.71 272.12, 167.73 201.01, 340.87 1.22 M45.55 347.22 C161.56 213.09, 275.65 81.07, 346.38 2.24 M46.33 346.91 C109.28 275.21, 171.92 202.49, 345.94 1.18 M49.22 349.17 C140.53 246.7, 229.85 142.3, 350.43 1.98 M49.87 349.04 C118.37 270.98, 186.96 192.78, 350.65 2.85 M51.8 352.64 C131.07 263.53, 210.04 173.42, 354.83 2.52 M52.18 351.56 C171.26 212.48, 290.89 74.69, 355.58 2.59 M54.07 355.1 C160.06 233.37, 267.6 110.74, 360.78 3.79 M54.53 354.95 C135.55 262.14, 215.75 170.03, 360.28 3.37 M57.55 358.08 C180.23 218.78, 299.45 79.71, 365.87 3.73 M57.44 357.91 C161.53 238.35, 265.94 117.88, 365.4 3.55 M61 360.68 C164.54 239.23, 271.34 118.31, 370.3 3.75 M60.98 360.24 C165.27 241.89, 269.22 122.57, 370.31 3.81 M63.64 363.82 C185.3 224.2, 305.72 83.89, 374.63 5.79 M63.16 363.93 C154.7 257.48, 247.76 150.84, 374.73 5.37 M65.78 366.22 C187.31 228.1, 307.23 88, 380.08 5.05 M65.96 366.56 C146.51 272.88, 226.57 179.59, 379.6 5.78 M69.5 368.17 C174.32 246.22, 280.49 123.34, 385.08 5.19 M69.64 369.15 C182.99 236.01, 298.28 103.5, 384.55 6.34 M72.3 372.73 C142.62 291.55, 214.78 209.17, 389.07 5.7 M71.71 372.34 C176.11 252.18, 281.94 130.08, 389.62 6.14 M73.86 374.2 C172.76 263.28, 269.52 149.66, 395.57 6.24 M74.99 374.68 C194.66 237.18, 314.67 99.55, 395.11 6.52 M77.41 378.02 C184.3 253.43, 290.71 131.63, 399.13 8.33 M77.33 377.33 C156.96 286.66, 237.08 194.86, 399.31 8.01 M79.4 380.83 C163.34 284.78, 245.84 189.34, 403.59 7.43 M80.31 380.76 C208.34 233.65, 337.81 85.01, 404.06 8.49 M83.55 383.4 C157.96 299.19, 233.33 213.43, 409.09 8.27 M83.33 383.43 C210.31 237.72, 336.72 92.41, 409.18 8.24 M86.51 386.06 C194.66 259.87, 304.22 135.05, 414.83 7.21 M86.39 386.13 C167.21 291.98, 249.97 197.2, 415.22 7.22 M89.68 388.31 C208.5 252.09, 327.75 114.46, 420.17 8.9 M89.67 388.3 C194.1 266.17, 299.67 144.49, 419.4 8.28 M92.12 390.25 C213.59 253.38, 333.3 115.47, 423.46 10.14 M92.71 390.85 C218.6 244.92, 345.16 100.01, 424.25 9.26 M97.11 392.19 C167.21 308.27, 240.49 226.16, 428.84 10.73 M96.26 392.55 C197.45 277.23, 297 162.44, 428.05 11.07 M100.03 395.14 C220.06 254.81, 342.88 116.08, 431.82 11.96 M99.45 395.11 C224.43 251.69, 350.21 106.97, 432.15 12.31 M103.53 396.48 C175.86 312.39, 248.72 230.65, 435.83 12.91 M103.06 397.24 C230.26 253.18, 355.71 108.86, 436.49 14.03 M106.05 399.27 C187.77 304.24, 269.79 209.34, 440.67 15.03 M106.62 398.95 C197.1 294.3, 288.31 190.12, 440.81 14.81 M110.55 402.1 C185.19 317.79, 258.4 233.37, 444.57 15.24 M109.95 401.79 C206.38 291.5, 302.88 180.99, 445.01 16.31 M113.15 404.1 C210.59 291.61, 307.55 179.41, 448.74 16.28 M113.63 403.2 C192.43 314.22, 270.66 223.77, 449.67 16.99 M117.16 404.72 C192.63 319.54, 266.07 235.73, 453.63 18.08 M117.03 405.2 C235.27 267.59, 354.74 130.25, 453.7 18.28 M120.15 407.15 C212.4 302.43, 304.11 196.12, 457.71 19.36 M120.38 407.83 C209.05 304.21, 298.7 201.35, 457.98 19.12 M124.28 409.75 C206.27 315.15, 289.58 219.4, 461.76 20.13 M123.96 409.51 C255.7 258.13, 387.99 105.29, 462.22 20.53 M126.36 412.16 C248.6 272.83, 369.81 134.45, 466 21.8 M126.7 412.07 C233.22 289.42, 340.5 166.3, 466.96 21.8 M129.91 414.21 C219.15 309.97, 309.35 206, 471.21 23.18 M130.32 414.05 C201.14 333.42, 270.9 253.21, 471.21 22.59 M133.64 415.62 C265.83 267.59, 396.26 115.95, 475.9 23.83 M133.96 415.78 C260.42 270.74, 386.26 125.46, 475.33 23.98 M136.93 418.6 C230.98 308.87, 327.45 199.86, 478.96 24.89 M137.38 418.86 C235.49 306.29, 332.99 193.48, 479.42 24.96 M141.39 420.14 C272.73 268.21, 406.33 116.14, 484.19 26.73 M141.36 420.45 C262.2 283.46, 382.66 145.08, 483.13 26.56 M143.97 422.92 C223.35 333.26, 300.27 244.74, 488.03 28.39 M145 422.78 C254.42 297.36, 362.35 172.93, 487.5 27.82 M148.76 423.63 C246.08 308.77, 346.35 194.49, 491.27 29.74 M148.42 424.28 C224.46 334.83, 301.24 246.18, 491.64 29.64 M152.9 425.82 C247.13 315.42, 342.4 206.96, 495.21 31.9 M152.35 425.35 C244.51 322.45, 334.77 217.94, 494.91 31.6 M156.29 427.79 C289.95 272.59, 423.67 117.31, 499.33 33.91 M156.34 427.15 C256.39 311.85, 356.91 196.71, 498.78 33.61 M160.09 428.6 C277 293.18, 396.78 157.81, 503.08 36.02 M160.65 428.85 C260.98 313.7, 361.07 199.03, 502.69 35.69 M164.2 430.16 C262.16 318.19, 358.1 207.28, 506.19 36.65 M164.18 430.25 C265.82 314.49, 367.47 198.2, 506.12 37.31 M168.04 431.28 C298.47 282.88, 425.69 136.75, 509.84 39.57 M168.56 431.52 C253.2 335.63, 337.2 239.4, 510.19 38.8 M172.83 432.99 C287.59 300.07, 403.19 164.77, 513.72 41.23 M172.19 433.37 C279.62 310.16, 387.49 186.05, 513.33 40.68 M175.97 434.18 C263.27 336.48, 346.76 239.4, 517.23 42.84 M176.66 434.4 C300.24 290.78, 424.21 148.03, 516.89 42.62 M179.68 436.86 C259.87 347.71, 336.86 257.4, 521.98 43.26 M179.98 436.06 C273.5 331.76, 366.54 225.65, 521.46 43.66 M185.43 437.09 C280.92 327.7, 377.26 217.33, 525.55 46.09 M184.67 437.65 C312.99 289.59, 440.42 142.59, 525.06 45.81 M188.15 439.81 C320.66 286.48, 453.9 133.21, 528.94 47.27 M188.51 439.63 C264.02 352.34, 338.93 265.97, 529.14 48.03 M192.41 440.88 C303.85 314.3, 415.22 185.76, 531.85 50.11 M192.02 440.97 C325.23 286.36, 459.42 132.31, 532.77 49.87 M197.13 442.97 C319.45 301.29, 443.87 158.01, 536.88 51.84 M196.47 441.93 C285.94 340.51, 375.12 237.96, 536.14 51.64 M200.38 443.59 C293.62 335.22, 389.3 227.29, 539.45 52.5 M200.03 444.12 C274.34 358.79, 349.54 271.41, 539.79 53.38 M205.06 444.97 C295.42 340.99, 386.89 237.01, 544.13 54.99 M204.7 444.97 C282.08 354.3, 360.89 263.27, 543.47 55.05 M207.57 447.46 C328.22 308.82, 447.65 169.3, 546.54 56.34 M208.4 447.12 C295.63 345.14, 382.89 245.02, 546.97 57.05 M212.25 447.51 C315 330.46, 418.76 212.37, 551.31 59.02 M212.58 448.14 C282.67 366.01, 352.57 285.68, 550.53 58.81 M217.43 449.47 C291.35 362.91, 366.1 276.29, 553.35 61.32 M216.51 449.21 C343.6 301.1, 472.97 153.36, 554.26 61.68 M221.47 449.87 C312.06 345.65, 402.94 241.43, 558.34 64.07 M221.36 449.45 C288.8 371.91, 357.16 293.11, 557.98 63.73 M226.24 450.87 C318.04 343.89, 410.01 238, 560.14 65.52 M225.79 450.73 C316.23 349.24, 405.58 246.06, 560.66 66.33 M231.57 451.06 C311.25 357.77, 391.24 266.12, 563.27 69.02 M231.37 451.29 C322.4 347.72, 412.97 243.6, 563.88 68.27 M235.17 453.15 C352.35 319.48, 468.34 186.09, 566.99 70.82 M235.38 451.97 C325.45 346.32, 415.92 242.11, 566.8 70.91 M239.95 453.19 C330.15 348.46, 422.48 242.34, 569.53 73.87 M239.4 453.07 C308.57 373.95, 377.4 294.75, 569.7 73.65 M244.35 454.11 C313.01 374.32, 382.31 294.41, 573.03 75.11 M244.62 453.59 C361.18 320.93, 477.04 187.83, 573.03 76.05 M249.52 454.42 C359.11 327.69, 469.33 200.62, 576.47 78.14 M249.1 454.86 C330.46 361.92, 410.74 268.99, 576.05 78.68 M254.63 455.86 C339.72 354.61, 427.54 253.46, 579.09 81.61 M253.58 455.41 C365.94 326.22, 477.58 198.1, 579.2 80.72 M257.48 455.83 C372.44 327.26, 485.52 198.5, 582.99 83.87 M257.91 456.79 C372.29 324.58, 485.73 193.8, 582.73 83.97 M263.52 457.6 C348.41 359.53, 430.68 263.16, 585.75 85.57 M263.5 456.83 C352.05 355.18, 439.97 253.27, 586.37 85.46 M266.88 457.69 C375.87 334.36, 483.27 210.92, 589.69 87.95 M267.28 457.94 C376.1 333.79, 484.7 208.14, 588.85 87.86 M272.5 457.94 C388.29 326.74, 504.48 194.37, 592.08 90.79 M272.31 457.94 C356.43 361.69, 438.72 267.13, 591.85 90.76 M277.08 459.3 C373.53 347.9, 468.73 238.01, 594.43 93.88 M276.82 459.18 C389.77 329.17, 502.94 198.5, 595.36 93.74 M281.33 459.1 C373.36 354.83, 464.29 250.14, 597.77 95.42 M281.56 460.14 C345.85 384.37, 411.68 308.24, 598.37 96.23 M285.99 461.51 C393.99 334.94, 503.45 211.47, 601.84 98.26 M286.25 461.21 C410.11 318.28, 534.11 175.99, 601.6 97.77 M291.2 460.46 C410.93 320.81, 532.67 180.87, 605.4 100.05 M291.76 460.6 C390.86 345.44, 489.61 231.71, 605.07 100.81 M297.44 460.99 C402.3 340, 506.85 217.28, 606.35 103.41 M297.17 460.75 C412.42 327.81, 528.22 194.28, 607.4 103.61 M301.91 461.41 C407.92 340.58, 513.65 219.02, 609.41 107.22 M301.61 460.9 C416.58 332.25, 529.22 201.79, 609.62 106.88 M307.11 461.46 C385.36 371.32, 464.13 281.11, 612.81 109.85 M307.21 461.53 C388.02 369.05, 468.85 276.13, 611.68 110.18 M311.14 461.72 C394.71 364.5, 478.99 267.98, 614.17 112.33 M312.18 461.93 C382.87 381.83, 453.53 299.46, 614.69 112.79 M316.9 462.01 C392.16 376.22, 465.45 291.8, 617.65 115.97 M317.83 461.94 C431.58 330.48, 544.66 200.1, 617.03 116.97 M322.53 462.63 C396.38 377.97, 470.18 294.68, 618.77 120.72 M322.84 461.45 C436.63 332.63, 549.58 201.88, 620.11 120.3 M326.5 462.69 C426.52 346.94, 527.61 231.1, 622.76 122.51 M327.14 462.14 C401.94 376.97, 476.36 291.55, 621.58 123.61 M333.12 463.3 C431.82 347.87, 532.32 232.17, 623.72 126.96 M332.77 462.23 C438.69 340.58, 542.85 220.44, 624.58 127.15 M337.12 462.02 C443.61 342.29, 550.21 219.79, 626.89 129.5 M337.78 463.03 C445.47 338.43, 553.84 214.12, 627.44 128.98 M342.24 462.01 C456.69 333.93, 570.37 202.82, 629.91 132.97 M343.23 462.6 C430.16 362.07, 519.01 260.37, 629.77 132.65 M348.34 462.36 C413.96 387.16, 478.6 314.12, 632.98 135.37 M347.71 463.36 C422.82 377.95, 497.38 292.12, 632.07 135.96 M353.54 463.51 C427.37 378.59, 503.49 290.36, 633.57 140.02 M352.81 462.78 C426.71 380.32, 499.53 296.53, 634.13 139.61 M357.04 463.31 C423.98 389.81, 486.61 316.34, 637.86 142.65 M358.56 463.22 C463.46 342.17, 570.68 218.74, 637.29 142.65 M362.43 464.63 C461.2 351.53, 560.01 236.82, 639.43 146.92 M363.53 464.26 C427.13 390.22, 490.59 317.48, 639.3 146.27 M370.07 462.46 C461.95 356.54, 553.69 249.33, 641.91 150.74 M369.32 462.78 C433.49 387.78, 498.32 314.33, 640.45 150.62 M374.76 461.92 C456.32 366.43, 538.36 271.49, 643.5 153.44 M374.47 462.83 C463.04 360.21, 551.13 258.93, 642.55 154.3 M380.41 461.37 C470.16 360.59, 559.11 257.45, 643.9 158.49 M381.18 461.27 C449.09 382.18, 517.14 303.72, 644.24 159.06 M386.66 460.49 C461.37 375.85, 534.86 292.42, 646.76 162.78 M387.19 460.6 C454.11 386.07, 519.33 310.05, 646.03 163.22 M392.22 459.22 C462.31 381.45, 531.65 303.14, 648.82 167.79 M393.49 459.67 C479.21 362.31, 565.76 263.65, 647.66 167.39 M399.69 458.08 C475.73 373.16, 548.22 286.82, 649.84 172.62 M400.05 458.48 C496.82 346.9, 594.01 234.47, 648.52 171.58 M406.14 456.93 C499.08 352.23, 589.36 248.86, 651.15 175.55 M405.31 457.75 C474.03 377.45, 542.23 298.84, 651.09 175.88 M410.26 457.51 C481.23 376.62, 550.42 294.75, 651.03 180.18 M411.38 456.84 C486.57 369.83, 562.02 282.73, 652.1 179.93 M418.78 455.2 C503.76 353.8, 590.73 253.33, 652.73 185.15 M417.51 455.95 C500.78 360.55, 582.72 264.34, 654.43 183.66 M423 453.55 C478.93 390.46, 537.25 324.76, 655.76 188.47 M424.18 454.86 C489.64 377.76, 555.4 301.73, 655.34 187.79 M430.22 453.52 C516.84 354.05, 602.47 254.56, 656.04 192.93 M430.19 453.86 C507.29 364.36, 585.89 273.21, 657.25 192.83 M436.33 453 C496.97 382.59, 557.03 310.66, 658.17 197.2 M437.12 452.48 C517.65 360.02, 598.66 267.35, 658.88 196 M442.95 448.91 C531.34 351.93, 613.74 253.45, 661.11 200.36 M444.24 449.81 C509.48 376.62, 572.67 302.75, 661.76 199.99 M453.07 447.81 C519.8 366.32, 591.33 287.05, 660.45 205.97 M451.89 447.04 C511.69 379.03, 571.28 310.95, 661.75 205.91 M459.67 444.95 C537.98 355.79, 615.83 264.47, 662.47 213 M459.48 445.07 C535.67 357.39, 611.8 269.61, 661.51 212.27 M467.74 441.45 C527.66 371.97, 586.44 302.92, 661.45 218.16 M466.88 441.18 C541.3 356.51, 616.05 269.82, 661.65 218.39 M473.89 437.7 C518.55 388.61, 561.96 337.73, 661.35 222.64 M474.62 438.75 C512.72 394.87, 551.21 350.79, 661.13 224.24 M481.34 436.53 C538.4 369.67, 596.6 302.7, 662.6 229.13 M481.65 435.9 C534.95 377.35, 584.74 318.01, 662.2 229.36 M490.28 432.43 C523.7 393.43, 560.51 354.65, 660.62 234.94 M490.02 433.94 C544.86 368.81, 602.48 302.32, 662.12 235.51 M498.19 430.32 C536.19 386.57, 576.64 341.51, 662.85 243 M498 431.51 C561.48 357.45, 625.68 285.02, 663.02 241.7 M505.77 427.83 C541.04 388.57, 572.31 353.59, 660 251.32 M505.35 428.11 C559.32 365.75, 612.49 304.1, 659.21 251.15 M513.93 422.22 C564.69 366.29, 613.36 310.08, 657.95 258.67 M515.45 423.57 C542.53 390.56, 571.47 358.33, 657.7 258.58 M525 417.43 C577.07 357.28, 629.2 297.29, 656.68 269.39 M525.7 417.44 C576.67 360.31, 626.8 302.2, 654.9 267.96 M533.62 413.08 C570.48 371.98, 599.92 337.19, 652.96 278.2 M535.84 411.79 C560.42 383.1, 584.31 355.12, 651.86 277.88 M546.86 405.77 C583 360.65, 622.61 315.38, 649.09 286.45 M545.93 405.68 C566.3 379.67, 588.72 355.16, 649.49 285.84 M556.91 399.75 C584.68 369.77, 612.77 334.95, 648.71 294.78 M554.1 401.13 C589.83 361.44, 626.07 320.36, 647.91 296.11 M566.15 393.48 C591.37 367.07, 618.13 335.45, 645.15 304.51 M567.15 395.12 C592.69 364.89, 617.69 334.19, 644.86 303.33 M592.62 370.51 C600.31 361.56, 610.97 352.07, 629 328.65 M590.32 372.67 C603.15 359.04, 613.78 346.31, 628.67 328.76" stroke="#a5d8ff" stroke-width="0.5" fill="none"></path><path d="M415.15 7.45 C439.7 8.14, 464.08 18.59, 486.76 27.11 C509.44 35.63, 532.05 46.76, 551.22 58.57 C570.38 70.39, 587.34 83.61, 601.75 97.99 C616.16 112.36, 628.26 128.19, 637.68 144.81 C647.11 161.44, 654.64 180.27, 658.29 197.72 C661.95 215.17, 661.96 231.96, 659.62 249.51 C657.29 267.07, 652.19 285.94, 644.28 303.06 C636.37 320.19, 625.18 337.11, 612.14 352.24 C599.11 367.37, 584.01 381.46, 566.05 393.85 C548.1 406.23, 526.29 417.06, 504.42 426.55 C482.55 436.04, 458.8 444.93, 434.82 450.77 C410.84 456.61, 385.66 460.28, 360.54 461.57 C335.41 462.86, 309.21 461.03, 284.06 458.5 C258.9 455.98, 233.18 452.63, 209.6 446.42 C186.03 440.21, 163.5 431.53, 142.6 421.25 C121.71 410.97, 101.18 398.25, 84.21 384.73 C67.25 371.22, 53.09 355.78, 40.83 340.15 C28.56 324.53, 17.57 307.91, 10.62 290.98 C3.68 274.04, -0.07 256.26, -0.83 238.55 C-1.59 220.83, 0.82 202.22, 6.05 184.69 C11.28 167.15, 19.83 149.59, 30.56 133.35 C41.28 117.11, 54.57 101.23, 70.41 87.25 C86.25 73.26, 105.47 60.31, 125.58 49.44 C145.69 38.58, 168.2 29.65, 191.09 22.05 C213.97 14.46, 238.27 7.71, 262.89 3.89 C287.52 0.08, 309.2 -2.25, 338.82 -0.83 C368.45 0.58, 420.15 8.33, 440.63 12.38 C461.11 16.43, 463.55 19.69, 461.71 23.45 M280.97 4.07 C304.09 -2.68, 331.94 -1.61, 357.12 -0.6 C382.3 0.41, 408.08 4.22, 432.05 10.13 C456.01 16.03, 479.21 25.49, 500.9 34.82 C522.59 44.14, 543.98 53.84, 562.18 66.06 C580.38 78.28, 596.55 92.96, 610.11 108.14 C623.66 123.32, 635 140.22, 643.49 157.16 C651.97 174.11, 658.59 192.41, 661.01 209.8 C663.43 227.18, 661.57 243.92, 658.02 261.47 C654.47 279.02, 648.92 298.46, 639.73 315.1 C630.54 331.75, 617.53 346.82, 602.9 361.36 C588.27 375.9, 570.85 390.6, 551.95 402.35 C533.06 414.1, 511.43 423.42, 489.52 431.87 C467.61 440.32, 445 448.1, 420.49 453.07 C395.99 458.03, 367.93 460.91, 342.5 461.65 C317.06 462.39, 292.77 461.14, 267.87 457.49 C242.97 453.83, 216.61 447.25, 193.09 439.73 C169.58 432.21, 146.61 422.95, 126.77 412.37 C106.93 401.8, 89.9 390.23, 74.04 376.29 C58.19 362.35, 42.59 344.89, 31.62 328.71 C20.66 312.53, 13.73 296.48, 8.27 279.22 C2.81 261.97, -1.6 242.78, -1.15 225.19 C-0.7 207.6, 4.25 190.73, 10.95 173.69 C17.64 156.65, 27.16 138.85, 39 122.94 C50.85 107.04, 65.38 91.67, 82.02 78.24 C98.66 64.81, 118.35 52.65, 138.82 42.37 C159.3 32.08, 181.41 23.12, 204.85 16.54 C228.3 9.97, 266.77 4.66, 279.49 2.92 C292.22 1.18, 280.01 2.21, 281.19 6.13" stroke="#1e1e1e" stroke-width="1" fill="none"></path></g><g transform="translate(285.12890625 212.93359374999994) rotate(0 101.64990234375 25)"><text x="101.64990234375" y="0" font-family="Virgil, Segoe UI Emoji" font-size="20px" fill="#1e1e1e" text-anchor="middle" style="white-space: pre;" direction="ltr" dominant-baseline="text-before-edge">Executions Observing</text><text x="101.64990234375" y="25" font-family="Virgil, Segoe UI Emoji" font-size="20px" fill="#1e1e1e" text-anchor="middle" style="white-space: pre;" direction="ltr" dominant-baseline="text-before-edge">FIFO Delivery</text></g><g stroke-linecap="round" transform="translate(146.953125 298.84765624999994) rotate(0 235.373046875 126.74218750000003)"><path d="M34.66 60.6 C34.66 60.6, 34.66 60.6, 34.66 60.6 M34.66 60.6 C34.66 60.6, 34.66 60.6, 34.66 60.6 M9.62 92.98 C23.39 76.99, 38.58 63.78, 45.42 53.74 M9.83 94.34 C23.38 80.21, 36.32 66.38, 46.18 53.04 M6.78 104.98 C21.6 90.05, 32.15 73.57, 58.92 42.96 M8.47 103.54 C25.03 82.53, 43.5 62.74, 58.41 43.73 M4.05 111.46 C32.02 83.51, 58.56 52.35, 70.11 38.1 M5.78 113.24 C29.67 83.71, 54.45 55.18, 71.07 36.52 M3.2 122.45 C24.61 95.41, 46.24 72.54, 81.37 33.37 M3.29 120.19 C25.56 96.23, 45.83 71.74, 80.29 32.7 M-0.66 131.72 C21.9 107.4, 39.1 86.59, 88.9 30.08 M-0.19 130.12 C23.68 103.15, 45.82 76.82, 87.52 30.87 M2.9 134.91 C32.51 101.75, 64.25 66.38, 95.08 26.95 M1.76 136.07 C30.06 102.14, 60.31 69.4, 93.12 28.42 M1.39 138.81 C34.98 101.1, 67.69 64.03, 101.79 26.95 M4.15 138.94 C39.08 100.71, 72.85 60.29, 102.09 26.68 M6.66 141.52 C30.11 115.51, 56.93 86.57, 110.04 23.33 M4.17 143.76 C33.71 109.67, 63.08 77.43, 108.86 24.06 M7.13 149.58 C29.68 123.35, 51.67 97.73, 115.32 20.73 M6.65 148.18 C40.87 109.74, 75.4 71.5, 116.98 21.49 M6.52 151.98 C30.65 126.98, 55.36 99.5, 125.8 18.15 M7.14 152.54 C31.8 125.11, 56.62 98.17, 124.61 18.51 M10.79 154.8 C35.6 121.68, 64.61 90.38, 133.13 14.9 M10.04 155.88 C39.58 120.74, 70.01 85.2, 133.56 13.48 M10.86 163.18 C43.02 124.68, 75.8 90.34, 142.01 11.29 M9.71 162.03 C41.2 126.48, 70.97 91.9, 140.17 11.52 M11.52 165.26 C59.93 112.84, 105.37 60.22, 146.79 10.78 M12.44 164.86 C42.07 130.64, 72.01 96.6, 146.26 10.8 M16.27 168.07 C60.35 119.81, 104.39 70.53, 154.32 11.39 M14.46 169.88 C50.11 130.52, 83.04 92.03, 153.08 9.54 M17.48 170.22 C73.75 105.87, 129.31 43.53, 160.64 7.59 M17.07 171.64 C65.62 118.57, 112.81 64.29, 160.18 8.59 M20.6 175.31 C52.5 138.98, 83.21 100.47, 165.16 9.11 M20.37 175.5 C56.66 133.27, 93 91.82, 165.5 7.07 M22.31 178.7 C51.81 143.04, 84.17 106.96, 171.05 6.16 M22.27 178.37 C81.69 110.12, 140.51 42.02, 171.56 6.25 M26.94 180.75 C68.04 131.04, 111 82.38, 177.28 6.17 M26.19 180.45 C61.7 137.28, 100.26 95.16, 178.51 5.6 M30.01 182.46 C73.12 133.14, 119.4 81.8, 186.18 2.91 M27.62 183.69 C74.9 131.64, 120.79 77.96, 185.18 4.84 M30.9 188.23 C74.14 135.07, 119.8 82.41, 192.36 2.19 M30.13 186.37 C80.08 132.99, 127.3 77.78, 190.89 3.48 M33.43 188.43 C88.92 125.46, 144.51 62.77, 196.91 1.72 M33.81 189.95 C70.47 145.4, 106.85 103.15, 197.93 1.14 M34.75 192.14 C89.1 134.57, 141.12 72.69, 201.52 1.34 M36.08 192.25 C83.8 140.91, 129.15 86.85, 202.1 1.82 M39.46 196.35 C96.62 126.32, 156.9 57.58, 207.2 0.99 M38.58 195.61 C81.65 148.42, 121.83 101.51, 208.07 2.39 M42.02 198.99 C97.69 137.94, 150.47 72.95, 213.38 3.52 M41.18 198.67 C97.71 134.47, 154.27 67.93, 213.03 1.4 M44.71 200.26 C94.74 142.34, 142.9 86.42, 218 1.72 M44.72 200.37 C102.22 134.81, 159.02 69.01, 218.46 2.18 M48.36 203.78 C113.87 130.31, 176.89 55.14, 224.09 2.08 M48.55 203.03 C85.96 160.7, 122.99 116.6, 223.25 2.41 M52.88 203.67 C123.64 124.33, 195.74 41.22, 229.74 2.9 M52.02 204.99 C109.95 141.74, 166.5 76.78, 228.27 1.2 M55.92 205.9 C124.74 131.45, 191.71 54.3, 234.64 2.13 M54.96 207.96 C117.05 134.16, 180.54 62.12, 234.34 1.41 M57.79 208.02 C119.62 140.76, 178.64 70.27, 239.59 0.99 M58.78 208.83 C125.3 134.27, 191.69 56.67, 238.92 2.36 M64.22 210.21 C135.57 129.63, 205.85 49.38, 243.51 2.13 M63.39 210.72 C129.34 132.55, 196.86 54.01, 245.01 2.34 M65.83 214.63 C106.56 165.93, 146.83 117.06, 249.27 0.85 M66.16 214.05 C118.57 152.54, 172.15 91.28, 250.12 2.2 M68.52 214.17 C124.94 153.99, 177.14 91.02, 254.43 1.94 M69.39 216.13 C138.17 133.44, 208.56 53.13, 255.06 1.64 M73.14 216.94 C143.31 135.77, 211.1 57.3, 260.25 1.59 M73.31 216.87 C114.56 171.04, 154.95 125.63, 260.74 1.14 M75.77 218.97 C133.61 152.82, 191.74 85.87, 265.5 1.19 M76.5 218.98 C128.98 159.52, 180.38 99.34, 266.08 1.47 M80.68 222.66 C153.76 139.26, 226.68 54.26, 270.98 2.92 M79.24 221.5 C143.54 149.09, 205.81 76.58, 269.77 2.49 M82.42 224.77 C140.64 161.34, 194.68 98.64, 275.66 2.35 M83.89 223.12 C129.81 169.27, 179.44 114.03, 274.83 2.72 M88.05 225.66 C132 171.33, 179.17 118.53, 279.38 5.11 M86.57 226.29 C157.76 144.93, 227.04 64.44, 279.46 4.17 M91.08 225.58 C132.72 178.62, 171.62 130.36, 284.12 4.59 M91.71 226.24 C145.96 163.57, 202.34 100.99, 283.95 4.34 M94.17 227.15 C138.35 177.65, 178.52 129.96, 289.43 5.96 M95.38 229.22 C148.36 168.18, 201.22 106.81, 289.14 5.56 M99.44 230.13 C163.78 158.09, 227.01 83.79, 293.79 6.92 M99.7 229.71 C144.92 173.67, 192.86 120.26, 294.32 7.02 M102.98 229.56 C175.52 145.32, 248.19 62.59, 299.58 6.07 M103.79 231.54 C170.87 152.46, 239.11 73.1, 299.42 7.41 M106.36 231.31 C180.72 145.21, 255.74 60.83, 302.24 8.17 M108.07 232.62 C180.83 147.02, 256.73 61.37, 302.6 8.09 M111.72 233.68 C161.28 177.49, 210.31 120.26, 307.69 7.3 M111.84 234.05 C177.18 158.65, 243.94 81.66, 307.41 8.23 M115.6 235.09 C191.18 148.88, 266.49 64.11, 312.04 8.43 M116.09 234.66 C164.44 180.33, 213.54 123.85, 312.41 9.59 M118.75 236.34 C193.67 152.39, 264.8 67.29, 316.34 9.8 M119.6 237.08 C184.87 164.26, 247.62 91.66, 317.21 9.37 M122.91 238.46 C174.17 180.85, 223.81 122.3, 320.44 10.52 M124.67 238.46 C197.49 151.92, 272.57 65.32, 321.71 10.17 M128.21 240.82 C199.52 156.31, 272.41 73.76, 325.84 10.59 M128.2 239.75 C170.57 193.34, 209.89 146.28, 326.27 11.34 M133.18 241.09 C207.74 156.56, 281.91 70.15, 329.68 12.63 M132.14 241.37 C209.16 153.09, 285.97 63.52, 330.93 11.67 M135.2 242.11 C178 193.1, 219.85 145.01, 335 14.6 M136.03 242.23 C188.36 186.5, 236.69 129.35, 334.3 13.91 M142.37 243.17 C190.58 184.09, 237.88 129.7, 338.31 14.28 M140.43 242.85 C199.83 174.94, 258.83 107.24, 339.46 15.56 M146.46 244.52 C189.41 192.88, 233.03 146.16, 344.31 16.17 M145.49 243.49 C216.97 162.98, 286.75 82.93, 342.74 15.9 M150 244.69 C192.32 196.4, 237.42 145.18, 346.64 19.08 M150.67 244.5 C191.37 199.01, 231.67 153.06, 347.39 17.64 M155.47 245.59 C204.62 186.59, 252.92 130.72, 350.82 19.83 M154.91 245.03 C223.31 168.88, 290.39 91.48, 351.82 19.12 M160.62 246.94 C233.26 163.51, 305.6 80.07, 354.88 19.46 M159.6 246.4 C199.76 201.79, 238.14 155.3, 355.87 19.86 M165.74 247.77 C213.98 185.66, 265.5 127.96, 360.7 21.01 M165.03 247.14 C221.12 180.86, 278.8 114.65, 359.25 23.02 M169.03 246.58 C209.45 201.34, 249.04 154.64, 363.31 23.11 M168.91 247.8 C220.31 186.92, 271.95 126.96, 363.59 23.83 M173.97 248.88 C214.19 200.1, 253.99 154.7, 368.22 24.51 M174.63 247.47 C216.27 199.85, 259.09 149.96, 367.78 24.77 M178.69 249.62 C254.05 165.1, 327.7 78.72, 371.83 26.46 M177.96 248.59 C248.89 165.51, 321.64 82.72, 371.52 26.94 M183.36 249.5 C244.6 181.11, 304.32 112.35, 375.82 27.6 M182.73 249.08 C255.15 164.93, 327.76 81.87, 376.61 28.13 M188.47 249.31 C261.84 163.92, 335.36 78.04, 379.4 27.15 M187.5 250.07 C257.99 166.09, 330.21 84.42, 380.11 28.34 M193.27 251.47 C267.07 164.58, 341.25 79.85, 384.83 31.72 M192.36 250.94 C257.9 176.43, 322.11 100.68, 384.58 30.84 M197.07 251.29 C239.81 200.27, 287.33 149.6, 389.57 30.85 M197.45 252.71 C258.76 182.58, 318.69 112.98, 388.16 31.98 M200.62 253.47 C267.99 177.24, 333.18 102.26, 390.59 32.93 M202.35 253.02 C267.98 176.1, 333.9 100.41, 392.1 33.52 M207.5 254.33 C279.67 167.81, 354.2 83.69, 393.69 34.8 M206.1 253.95 C270.8 179.66, 335.52 106.04, 394.6 35.37 M209.1 253.93 C257.9 197.97, 308.47 138.53, 398.59 38.26 M209.73 255.59 C280.89 174.55, 351.76 94.64, 398.52 37.47 M215.98 255.45 C259.27 203.69, 307.71 150.34, 400.61 39.77 M214.74 255.57 C285.14 176.9, 353.71 97, 402.12 40.8 M219.22 254.06 C283.25 185.43, 347.13 115.69, 405.33 43.34 M220.04 255.42 C259.76 209.66, 298.8 163.55, 404.78 42.42 M226.97 255.21 C266.84 205.51, 312.61 156.04, 408.65 45.59 M225.46 254.81 C265.76 208.35, 305.91 163.77, 409.27 44.08 M230.06 254.95 C288.38 194.13, 342.07 128.52, 412.12 44.95 M231.81 255.65 C270.05 209, 310.54 162.01, 412.98 46.5 M238.26 256.26 C291.67 189.52, 349.29 121.37, 414.69 47.99 M237.54 255.61 C288.44 197.27, 339.42 138.91, 415.89 48.87 M241.53 253.59 C281.65 209.25, 320.29 164.26, 419.01 51.21 M242.53 255.17 C308.48 177.6, 376.94 100.83, 419.4 50.76 M246.72 255.65 C299.84 192.98, 351.56 134.18, 423.47 53.29 M247.91 254.18 C295.01 199.78, 341.21 146.17, 424.03 53.1 M253.75 253.63 C306.47 191.83, 363.61 127.66, 424.76 56.19 M253.37 253.82 C289.61 213.61, 325.78 170.91, 425.99 54.65 M258.44 254.09 C312.53 192.04, 367.56 128.17, 428.35 58.3 M258.77 253.65 C300.14 206.03, 342.28 156.94, 430.22 57.17 M263.08 253.18 C318.75 191.47, 370.88 130.18, 432.66 59.1 M263.07 255.07 C312.28 198.63, 360.42 143.61, 433.09 59.17 M269.56 253.6 C325.07 187.26, 383.79 123.52, 435.65 62.64 M268.71 254.69 C333.83 180.52, 399 106.28, 436.53 61.86 M275.07 254.16 C327.77 193.7, 379.61 133.49, 439.45 63.48 M275.29 252.36 C325.28 196.07, 372.65 140.64, 438.41 65 M283.13 252.27 C327.46 198.36, 372.77 144.17, 443.52 68.25 M282.61 252.49 C324.23 203.32, 366.54 156.61, 442.84 68.38 M286.94 251.54 C336.5 194.53, 386.64 140.61, 444.58 69.89 M288.19 251.31 C349.76 181.65, 410.62 111.64, 444.17 70.65 M295.1 249.89 C339.35 199.43, 382.23 145.96, 447.59 73.47 M293.4 249.71 C341.58 197.92, 386.41 145.13, 447.08 73.22 M300.12 249.18 C339.38 201.05, 382.64 153.6, 448.52 78.59 M299.65 249.12 C336.71 205.75, 374.13 163.82, 449.69 77.68 M305.07 248.97 C342.91 206.85, 378.47 164.85, 452.04 78.14 M306.95 248.69 C359.47 188.2, 411.77 128.39, 452.15 79.06 M312.01 245.64 C349.95 205.28, 389.87 158.05, 456.84 81.78 M313.22 247.28 C368.75 183.97, 423.9 120.63, 455.82 82.49 M319.11 246.45 C356.22 201.29, 392.59 159.77, 459.65 84.4 M318.63 245.45 C367.21 190.75, 415.66 133.67, 458.17 84.71 M325.85 244.37 C371.49 192.4, 419.25 138.25, 461.15 89.44 M325.18 245.89 C361.14 204.2, 397.09 163.09, 460.71 89.06 M329.3 243.18 C386.55 183.46, 438.95 124, 463.32 90.76 M331.42 243.59 C383.58 184.14, 434.87 123.86, 463.78 91.93 M337.63 242.14 C367.5 207.99, 394.58 175.04, 463.43 98.36 M338.1 241.4 C385.76 186.1, 435.39 130.67, 464.52 95.81 M347.5 237.86 C385.96 191.94, 426.36 146.69, 465.65 100.88 M345.03 238.58 C382.82 197.35, 419.51 154.04, 465.46 101.22 M351.52 234.89 C380.48 204.58, 408.65 172.54, 467.53 107.23 M352.64 235.9 C396.07 186.81, 441.07 136.65, 467.89 106.05 M361.53 232.82 C395.11 194.42, 428.07 158.44, 470.32 110.01 M360.21 234.94 C388.92 201.77, 416.63 170.19, 469.21 109.57 M366.53 233.06 C391.75 206.16, 410.1 183.8, 467.76 117.12 M369.34 232.17 C401.71 193.88, 435.4 154.66, 469.94 114.34 M377.52 227.1 C410.3 187.95, 447.14 145.75, 470.21 120.92 M375.09 229.37 C409.2 190.53, 442 151.59, 471.24 120.65 M382.27 226.64 C410.27 194.68, 437.05 167.5, 469.51 126.49 M384.02 227.03 C406.32 200.81, 426.52 176.83, 469.97 124.9 M390.2 223.81 C418.57 194.22, 443.02 165.8, 469.73 133.72 M391.31 222.76 C411.83 200.06, 430.51 176.49, 468.8 133.02 M397.16 223.6 C425.3 192.03, 452.13 159.22, 467.34 141.82 M396.88 222.96 C422.09 192.18, 449.32 161.8, 466.57 143.11 M410.74 213.73 C419.98 200.9, 431.59 186.08, 467.33 150.45 M408.95 214.88 C427.36 193.91, 445.5 172.66, 465.76 149.84 M420.16 207.51 C435.87 188.65, 450.77 171.51, 460.78 159.74 M421.23 206.72 C434.55 190.32, 449.54 174.72, 462.34 160.66" stroke="#ffc9c9" stroke-width="0.5" fill="none"></path><path d="M196.56 1.27 C216.6 -2.4, 242.45 -0.46, 264.45 1.1 C286.44 2.66, 308.4 5.93, 328.55 10.65 C348.7 15.37, 368.27 21.72, 385.35 29.42 C402.42 37.11, 418.48 46.87, 431.02 56.8 C443.56 66.73, 454.11 77.64, 460.58 89 C467.05 100.37, 469.54 113.24, 469.84 124.99 C470.13 136.73, 468.13 148.15, 462.35 159.48 C456.58 170.81, 446.65 182.77, 435.2 192.98 C423.75 203.19, 410.07 212.77, 393.65 220.76 C377.23 228.74, 356.71 235.81, 336.68 240.88 C316.65 245.96, 295.13 249.14, 273.47 251.18 C251.8 253.22, 228.79 254.54, 206.69 253.13 C184.59 251.72, 161.04 247.54, 140.86 242.72 C120.67 237.91, 102.41 231.87, 85.57 224.26 C68.73 216.65, 52.19 206.92, 39.83 197.06 C27.46 187.2, 18.16 176.33, 11.37 165.11 C4.59 153.88, -0.43 141.72, -0.89 129.69 C-1.35 117.66, 2.67 104.49, 8.63 92.93 C14.59 81.38, 23.33 70.44, 34.87 60.36 C46.41 50.28, 61.4 40.31, 77.87 32.45 C94.34 24.58, 110.84 18.51, 133.69 13.17 C156.54 7.82, 198.03 2.2, 214.99 0.38 C231.95 -1.45, 235.11 0.07, 235.46 2.2 M289.59 2.6 C310.68 3.33, 333.43 11.66, 352.67 17.69 C371.91 23.72, 389.72 30.35, 405.02 38.76 C420.33 47.16, 434.16 57.28, 444.5 68.13 C454.84 78.98, 462.61 91.96, 467.04 103.83 C471.48 115.7, 473.2 127.66, 471.09 139.34 C468.99 151.02, 462.72 162.74, 454.42 173.91 C446.12 185.08, 434.86 196.94, 421.31 206.35 C407.76 215.76, 391.3 223.7, 373.13 230.37 C354.96 237.04, 333.21 242.48, 312.29 246.34 C291.36 250.21, 269.63 252.97, 247.58 253.56 C225.53 254.15, 201.77 252.83, 179.98 249.89 C158.2 246.95, 136.24 241.83, 116.87 235.94 C97.5 230.06, 78.81 222.91, 63.77 214.58 C48.72 206.25, 36.64 196.74, 26.61 185.96 C16.58 175.17, 7.59 161.58, 3.57 149.89 C-0.46 138.2, 0.09 127.28, 2.46 115.81 C4.83 104.34, 9.64 92.07, 17.8 81.06 C25.96 70.06, 37.92 59.42, 51.41 49.78 C64.91 40.14, 81.03 30.41, 98.75 23.22 C116.47 16.02, 136.82 10.55, 157.75 6.63 C178.68 2.7, 202.38 0.21, 224.34 -0.32 C246.3 -0.85, 278.64 2.39, 289.51 3.43 C300.39 4.46, 290.44 4.04, 289.61 5.88" stroke="#1e1e1e" stroke-width="1" fill="none"></path></g><g transform="translate(294.38134765625 321.06640624999994) rotate(0 101.64990234375 25.00000000000003)"><text x="101.64990234375" y="0" font-family="Virgil, Segoe UI Emoji" font-size="20px" fill="#1e1e1e" text-anchor="middle" style="white-space: pre;" direction="ltr" dominant-baseline="text-before-edge">Executions Observing</text><text x="101.64990234375" y="25" font-family="Virgil, Segoe UI Emoji" font-size="20px" fill="#1e1e1e" text-anchor="middle" style="white-space: pre;" direction="ltr" dominant-baseline="text-before-edge">Causal Delivery</text></g><g stroke-linecap="round" transform="translate(534.3515625 255.1953125) rotate(0 258.548828125 188.419921875)"><path d="M38.32 90.28 C38.32 90.28, 38.32 90.28, 38.32 90.28 M38.32 90.28 C38.32 90.28, 38.32 90.28, 38.32 90.28 M21.33 113.36 C34.88 102.46, 45.16 88.36, 60.39 67.43 M23.32 113.52 C32.59 104.51, 41.58 92.01, 61.92 67.89 M10.05 132.85 C32.17 106.7, 60.01 78.67, 83.01 51.35 M10.07 135.11 C35.41 105.55, 58.76 76.28, 82.3 53.17 M9.76 144.57 C29.26 117.02, 51.19 95.09, 93.51 45.67 M8.65 142.6 C25.99 121.2, 43.61 100.88, 92.45 45.85 M5.56 149.53 C45.39 107.52, 82.6 64.51, 102.44 42.13 M6.03 151.71 C46.1 108.77, 83.54 64.66, 100.57 40.98 M4.59 159.18 C48.23 113.3, 89.44 62.26, 111.71 35.62 M5.13 160.22 C26.19 133.47, 50.44 106.83, 112.16 35.92 M3.14 165.61 C38.26 128.05, 74.54 84.13, 119.41 29.74 M3.21 166.41 C30.75 136.61, 58.37 106.31, 121.06 31.13 M1.44 173.33 C40.81 133.94, 75.51 90.88, 131.25 27.54 M0.87 174.15 C40.19 130.88, 79.96 84.29, 132.02 25.23 M0.41 185.37 C28.73 147.76, 58.85 113.81, 135.72 24.98 M0.04 183.51 C40.66 136.48, 81.68 90.28, 137.92 25.61 M-0.14 189.07 C44.59 135.63, 91.06 82.35, 143.2 23.16 M0.12 188.68 C33.44 149.71, 67.6 111.42, 143.4 23.38 M2.85 192.79 C49.65 136.51, 102.6 79.23, 152.72 20.65 M2.34 193.07 C41.21 148.63, 79.23 103.52, 151.4 22.06 M1.24 198.39 C45.08 149.75, 87.05 102.14, 159.29 19.7 M2.07 199.26 C41.13 154.64, 79.04 111.68, 157.49 19.72 M4.38 203.11 C45.23 154.68, 89.3 102.41, 166.45 16.27 M3.24 203.99 C44.4 154.1, 87.59 106.37, 164.44 17.6 M4.23 210.59 C57.58 148.46, 114.45 85.45, 171.13 14.16 M3.87 210.3 C42.64 162.77, 81.7 118.47, 171.4 15.84 M5.85 215.62 C63.47 149.5, 118.74 84.88, 179.54 14.64 M4.25 214.13 C42.82 170.95, 80.77 125.87, 178.66 14.36 M5.79 219.14 C43.56 176.71, 80.21 134.81, 185.76 11.2 M5.18 220.13 C48.62 168.98, 93.97 119.97, 185 12.42 M5.68 225.57 C79.72 140.32, 150.62 59.87, 193.6 12.02 M6.38 225.26 C74.01 147.1, 142.38 68.21, 191.95 11.48 M6.85 229.47 C61.23 164.59, 119.17 99.42, 200.86 7.21 M6.37 231.3 C69.54 156.83, 135.44 82.52, 201.58 6.3 M9.52 233.12 C56.53 179.54, 101.21 129.11, 207.96 7.08 M8.45 233.6 C62.09 172.46, 115.72 110.65, 207.12 6.87 M10.58 237.24 C71.17 167.98, 129.14 99.73, 211.41 6.19 M10.95 238.2 C74.13 166.07, 134.96 95.43, 212.77 6.16 M13.81 240.92 C59.77 189.41, 103.82 136.86, 218.63 5.16 M12.8 241.33 C62.8 183.95, 112 127.37, 217.66 5.62 M16.22 245.7 C86.69 161.62, 159.87 77.54, 224.39 3.74 M14.42 244.66 C58 194.66, 100.73 145.94, 223.77 4.13 M16.67 249.96 C62 194.72, 108.02 139.97, 231.35 2.97 M17.02 249.75 C90.04 168.07, 160.13 86.05, 230.65 3.94 M18.2 253.48 C94.16 165.23, 171.22 79.1, 235.72 4.05 M19.59 252.31 C61.61 201.44, 104.36 150.88, 236.23 4.09 M21.45 255.58 C79.86 188.62, 137.62 122.28, 241.5 2.3 M20.39 257.21 C90.42 179.07, 157.73 100.72, 241.47 3.56 M22.07 259.21 C74.62 201.83, 125.03 143.35, 246.73 2.56 M23.65 260.17 C90.45 181.39, 160.02 101.6, 247.05 1.89 M25.72 263.94 C89.03 189.42, 155.61 113.61, 254.5 2.42 M24.5 264.09 C95.62 185.18, 165.75 104.62, 253.65 2.11 M26.8 267.34 C82.93 206.46, 135.96 144.49, 259.8 1.76 M27.89 267.62 C88.91 195.12, 153.39 122.01, 258.98 1.76 M28.41 271.5 C80.99 214.32, 131.1 158.58, 266.14 -1.11 M28.45 271.96 C113.3 175.67, 197.7 79.06, 265.25 0.43 M31.9 276.07 C98.4 196.31, 165.68 119.63, 271.19 -0.85 M31.54 274.95 C97.83 197.7, 165.01 121.67, 269.65 0.89 M33.31 279.91 C94.18 209.42, 153.8 139.22, 275.47 -0.26 M33.55 279.01 C99.35 204.81, 164.66 130.16, 275.57 1.08 M36.84 281.05 C89.3 219.13, 141.77 159.93, 278.49 1.38 M35.7 281.88 C95.17 211.61, 155.5 142.36, 279.51 2.08 M39.65 284.64 C87.78 225.59, 138.28 170.14, 285.14 3.06 M39.55 284.89 C122.63 186.77, 207.97 89.08, 283.97 2.43 M40.92 287.87 C117.21 198.98, 195.43 109.11, 287.84 2.87 M41.3 287.26 C122.24 192.81, 204.05 100.34, 288.75 2.84 M44.44 291.26 C132.82 185.31, 223.57 84.61, 293.86 3.47 M45.01 290.13 C111.69 211.76, 180.05 132.54, 294.02 3.84 M47.5 292.7 C97.98 235.58, 148.45 176.94, 297.73 3.23 M47.97 292.61 C101.32 229.27, 154.82 167.29, 299.01 4.5 M49.06 295.36 C150.99 179.99, 249.11 65.57, 302.64 5.35 M49.55 296.27 C106.56 232.85, 163.84 167.1, 303.05 5.04 M51.79 299.77 C137.75 201.77, 221.56 103.92, 306.97 6.51 M53.39 299.31 C112.97 229.96, 172.02 161.38, 308.34 5.18 M56.97 301.93 C127.71 220.1, 199.68 137.04, 311.65 6.27 M56 301.75 C146 199.14, 235 95.52, 312.02 7.12 M57.37 304.41 C137.61 212.04, 219.81 119.95, 317.31 6.14 M58.39 305.55 C122.54 229.92, 186.8 155.96, 317.03 6.63 M61.34 307.46 C156.35 196.68, 251.54 85.83, 322.13 7.09 M61.85 307.2 C137.74 217.84, 215.29 128.32, 322.97 7.72 M63.52 310.58 C161.54 197.81, 259.31 83.22, 327.38 7.89 M64.26 310.35 C156.3 202.65, 250.64 94.51, 326.68 8.26 M66.48 313.1 C148.54 220.04, 229.9 126.69, 332.59 9.01 M66.32 313.82 C143.98 222.37, 223.02 131.94, 331.32 9.29 M69.13 315.72 C148.93 224.47, 229.83 130.8, 336.83 9.26 M70.25 316.32 C176.08 194.7, 280.9 74.66, 335.64 9.48 M73.02 318.67 C159.75 217.39, 248.33 116.8, 341.05 11.09 M72.25 319.25 C142.67 239.67, 212.97 160.07, 340.04 11.25 M76.12 322.61 C158.2 225.37, 240.91 131.39, 343.87 13.64 M75.37 321.54 C137.85 251.87, 200.6 180.86, 344.02 12.79 M78.56 322.39 C176.68 211.66, 273.47 101.79, 349.33 15.02 M79.16 323.56 C158.95 233.75, 236.22 144.75, 348.6 14.36 M82.85 326.31 C176.1 216.94, 270.72 109.09, 353.14 15.04 M83.48 325.06 C156.28 239.78, 230.15 154.57, 353.16 14.6 M86.11 327.89 C172.28 232.24, 255.55 134.67, 356.47 15.94 M86.83 326.74 C186.57 210.15, 287.76 94.21, 357.2 16.36 M89.84 330.89 C147.08 260.42, 204.74 194.23, 361.38 17.74 M89.68 329.69 C187.09 216.25, 284.34 103.24, 360.85 17.81 M92.78 331.41 C197.56 210.68, 301.06 91.67, 364.81 18.99 M93.41 331.82 C170.13 242.44, 246.87 153.51, 365.56 19.35 M98 332.67 C166.15 256.95, 233.81 180.34, 368.97 19.55 M96.69 333.58 C173.16 246.25, 248.46 158.63, 369.85 20 M101.44 335.89 C203.72 218.53, 303.91 103.16, 373.12 21.25 M100.97 335.48 C177.72 246.29, 255.12 157.77, 373.24 20.95 M104.48 338.26 C165.46 270.35, 223.7 202.15, 377.82 23.37 M104.64 336.78 C168.91 262.18, 233.74 187.85, 377.83 23.34 M107.84 340.64 C204.42 229.68, 301.38 117.96, 381.19 25.42 M107.52 340.05 C165.46 275.25, 222.04 209.36, 381.45 24.17 M112.24 341.7 C174.03 267.57, 236.69 194.77, 386.89 25.71 M111.44 341.72 C216.37 220.15, 322.9 98.03, 386.35 25.81 M115.61 342.93 C221.05 219.34, 329.92 95.09, 389.69 26.22 M115 343.69 C222.7 218.28, 331.87 92.13, 390.18 26.49 M117.99 344.91 C185.58 268.91, 253.23 193.42, 394.57 28.16 M118.52 346.04 C203.55 247.19, 289.34 148.22, 394.03 28.9 M121.33 347.22 C192.17 267.59, 262.17 185.97, 397.46 31.15 M121.34 348.05 C222.91 232.85, 323.42 117.33, 398.21 30.44 M125.84 351.08 C220.75 240.63, 315.85 131.94, 400.8 32.5 M125.72 349.54 C219.99 242.85, 312.68 135.84, 400.36 33.25 M130.02 350.85 C206.63 261.86, 286 172.79, 404.19 35.48 M130.07 350.91 C214.91 255.17, 299.89 157.62, 404.26 35.16 M132.86 352.55 C206.32 268.9, 278.41 186.65, 407.98 37.35 M133.41 353.25 C193.19 281.94, 253.98 212.34, 408.18 36.94 M136.86 354.85 C224.34 255.73, 310.3 157.91, 411.72 38.4 M137.93 354.31 C197.73 284.62, 258.14 214, 411.89 38.21 M141.37 355.81 C211.92 271.61, 284.41 187.96, 414.03 41.83 M141.41 354.99 C212.53 273.46, 283.25 193.09, 415.13 41.75 M146.37 356.76 C245.95 240, 348.79 121.97, 417.46 43.63 M145.95 356.86 C248.56 238.13, 352.71 118.27, 418.24 42.99 M149.14 358.88 C221.48 276.8, 291.47 195.69, 421.47 43.99 M149.38 358.36 C251.17 240.57, 353.19 123.64, 422.22 44.77 M154.5 358.41 C254.61 242.72, 356.41 126.45, 424.44 46.57 M153.97 358.81 C220.94 282.46, 286.65 206.76, 425.58 47.64 M158.02 361.47 C237.85 267.99, 319.89 175.91, 429.01 50.23 M158.46 360.89 C222.73 286.46, 287.38 212.28, 429.13 49.23 M162.21 362.55 C219.91 293.11, 278.33 226.27, 431.74 50.63 M161.83 362.41 C256.24 251.67, 352.3 141.45, 432.34 51.01 M167.67 363.47 C235.69 286.48, 304.91 206.96, 435.62 52.98 M166.59 363.88 C260.03 254.27, 354.62 144.71, 436.72 53.7 M170.35 365.25 C251.01 270.98, 331.27 177.44, 440.15 55.4 M171.24 364.95 C237.71 286.19, 304.62 209.33, 439.27 55.51 M174.59 367.33 C272.53 254.37, 370.71 141.41, 442.95 57.33 M174.66 366.54 C267.93 257.35, 362.05 149.2, 442.39 57.45 M178.74 367.99 C235.05 303.49, 288.46 241.85, 446.88 58.96 M178.84 366.98 C272.11 260.81, 364.65 154.05, 446.96 59.08 M182.26 368.22 C257.91 280.35, 334.94 195.29, 450.09 61.65 M182.97 368.84 C268.01 273.31, 350.89 177.64, 449.52 62.38 M186.8 369.88 C294.29 250.06, 398.34 129.12, 451.73 65.78 M187.32 370.57 C253.12 295.83, 318.6 220.73, 452.65 64.74 M192.19 369.86 C251.41 306.29, 308.67 241.45, 455.76 66.76 M191.57 371.36 C257.66 297.73, 322.91 223.21, 456.03 67.39 M195.54 372.5 C286.24 270.64, 373.25 167.84, 457.58 69.99 M195.8 371.42 C257.78 300.91, 320.17 227.61, 457.78 71.03 M200.9 371.62 C254.21 308.66, 307.87 248.46, 461.39 72.65 M201.19 372.81 C301.48 254.72, 403.52 137.54, 461.23 73.35 M206.14 372.85 C303.44 262.22, 401.19 152, 465.06 76.58 M206.71 372.44 C258.86 311.3, 311.96 249.68, 464.46 75.91 M210.23 374.1 C270.8 303.22, 329.7 235.22, 466.18 78.8 M210.72 372.82 C295.98 272.12, 382.1 173.39, 467.08 78.37 M215.54 374.19 C278.92 301.06, 340.95 228.06, 470.22 81.57 M215.21 373.84 C293.87 283.24, 371.51 194.91, 469.2 82.3 M221.27 373.98 C299.41 283.75, 377.67 193.73, 473.49 85.3 M220.53 374.48 C296.04 288.88, 371.44 202.25, 472.59 85.31 M225.41 374.34 C321.47 266.61, 417.99 155.95, 475.55 87.6 M225.68 374.42 C297.65 293.44, 368.48 211.6, 475.72 86.8 M229.88 374.73 C281.08 314.88, 333.75 256.46, 478.6 90.19 M230.06 375.82 C285.74 311.46, 343.15 247.41, 478.45 90.35 M235.86 375.2 C333.48 262.51, 429.25 151.97, 481.46 92.57 M235.41 375.93 C328.77 268.21, 423.03 160.54, 480.94 93.39 M239.15 377.51 C317.72 288.88, 393.87 198.98, 483.41 96.8 M240.22 376.18 C316.59 287.98, 393.01 199.93, 483.54 95.55 M244.61 377.99 C338.47 269.51, 432.17 160.79, 487.8 99.03 M245.12 377.68 C294.71 318.26, 345.6 260.14, 486.71 98.49 M249.36 378.42 C340.45 274.24, 430.45 170.12, 487.42 103.22 M249.65 376.99 C317.42 299.33, 385.11 221.99, 488.32 102.62 M255.14 378.22 C315.77 308.22, 378.85 236.13, 490.88 106.02 M254.35 378.15 C318.57 302.81, 385.86 225.99, 491.54 106.25 M259.16 377.43 C343.02 283.15, 428.46 186.35, 492.47 109.8 M259.19 377.91 C326.85 299.07, 395.96 219.83, 492.88 110.16 M264.75 376.51 C354.33 274.02, 442.13 170.33, 495.79 112.62 M264.96 378.08 C328.73 303.2, 393.77 229.39, 494.66 113.3 M270.9 377.91 C357.97 275.84, 443.81 177.36, 497.12 117.31 M270.4 377.81 C328.47 310.94, 385.35 246.17, 496.93 118.41 M277.4 377.7 C354.03 288.34, 433.77 197.9, 497.86 122.92 M277.06 377.09 C363.33 277.15, 451.47 176.86, 498.34 121.4 M282.22 377.84 C326.4 324.88, 370.85 275.3, 501.56 124.61 M282.87 376.83 C344.45 304.79, 404.97 234.32, 500.36 124.98 M288.51 376.21 C330.05 325.07, 375.76 275.05, 501.25 128.67 M288.44 375.59 C369.85 283.21, 451.03 190.5, 502.95 129.03 M293.82 376.61 C358.76 301.46, 423.37 225.73, 503.77 132.4 M293.31 376.46 C348.55 312.98, 401.63 252.3, 504.05 133.47 M299.84 375.61 C341.22 325.97, 381.14 280.51, 506.19 136.39 M299.73 375.38 C357.21 308.14, 416.51 240.23, 505.99 136.49 M304.14 375.55 C352.72 319.47, 398.68 265.92, 509.05 141.85 M304.47 375.07 C361.41 309.18, 418.48 245.44, 507.74 140.39 M309.59 374.64 C364.84 311.68, 421.72 247.72, 509.17 145.12 M310.52 375.43 C380.56 294.63, 449.71 213.57, 510.48 145.74 M318.36 371.5 C366.83 316.6, 416.07 261.18, 512.33 150.68 M318.32 371.75 C393.44 285.71, 467.65 200.83, 510.93 150.14 M326.02 369.32 C391.8 292.2, 461.13 213.31, 512.19 156.52 M325.16 370.66 C379.85 306.52, 434.7 243.78, 510.9 156.16 M333.24 367.07 C379.16 310.34, 428.65 256.28, 512.93 159.64 M332.75 367.56 C377.08 314.16, 424.62 260.92, 511.75 161.2 M339.53 366.3 C388.16 311.68, 438.03 255.75, 513.81 165.98 M338.68 367.19 C377.04 321.22, 416.34 275.93, 512.15 166.45 M344.21 365.7 C400.76 299.4, 459.57 235.87, 512.73 169.57 M345.38 365.35 C399.46 304.45, 452.09 243.91, 514.48 171.8 M353.9 362.94 C390.03 321.03, 424.9 279.94, 513.86 176.34 M352.62 363.54 C408.53 300.58, 463.1 238.44, 515.09 177.22 M359.43 360.38 C411.8 300.11, 463.64 237.26, 514.87 183.74 M358.75 361.32 C421.31 291.14, 484.12 219.07, 514.73 183.1 M366.16 360.26 C409.49 307.66, 455.14 255.88, 514.51 188.13 M366.21 359.58 C395.42 322.57, 427.4 287.14, 515.5 187.76 M374.68 356.63 C418.14 308.91, 462.02 256.38, 516.13 194.67 M373.52 357.32 C415.71 308.03, 458.3 259.14, 516.74 192.19 M378.73 356.59 C433.9 292.58, 488.72 231.14, 520.88 195.12 M379.73 355.91 C422.4 307.57, 466.09 257.79, 518.34 196.2 M383.79 358.23 C426.97 308.53, 468.7 260.61, 517.56 203.22 M383.98 357.08 C413.61 321.52, 441.78 287.42, 517.31 202.65 M394.13 353.65 C427.63 313.67, 457.64 276.12, 515.87 210.47 M394.78 352.23 C429.42 312.23, 462.81 275.48, 516.61 211.29 M403.21 347.32 C441.89 299.06, 481.93 255.8, 514.37 220.28 M404.48 345.89 C439.85 302.82, 477.57 260.8, 514.88 219.07 M414.58 340.74 C443.17 309.38, 472.53 274.44, 512.04 225.83 M412.87 341.85 C440.1 312.28, 464.98 283.51, 513.69 227.51 M421.06 336.52 C446.09 308.94, 473.83 278.24, 510.7 234.93 M422.53 337.14 C443.52 313.05, 465.48 287.44, 511.05 234.33 M436.05 325.36 C461.45 299.94, 482.88 272.41, 510.6 245.55 M437.45 325.12 C463.2 294.96, 490.58 265.11, 509.15 244.24 M466.48 300.62 C474.18 291.13, 483.45 282.23, 495.33 265.24 M464.12 301.33 C472.52 291.08, 479.52 284.07, 496.53 264.54" stroke="#b2f2bb" stroke-width="0.5" fill="none"></path><path d="M331.46 8.39 C353.21 10, 375.49 19.8, 394.65 28.22 C413.8 36.64, 431.14 47.27, 446.4 58.9 C461.66 70.54, 475.59 83.68, 486.19 98 C496.79 112.32, 504.99 128.94, 510.01 144.82 C515.03 160.71, 516.83 177.12, 516.31 193.33 C515.79 209.53, 513.16 226.43, 506.9 242.07 C500.65 257.7, 490.46 273.12, 478.78 287.12 C467.1 301.12, 453.05 314.77, 436.84 326.05 C420.64 337.34, 401.44 347.22, 381.55 354.83 C361.66 362.44, 339.26 368.17, 317.5 371.72 C295.74 375.27, 273.16 376.69, 250.97 376.14 C228.79 375.6, 205.59 373.03, 184.41 368.47 C163.22 363.91, 142.68 357.1, 123.86 348.77 C105.04 340.44, 86.97 330.44, 71.51 318.5 C56.05 306.55, 41.93 291.58, 31.1 277.1 C20.28 262.62, 11.82 247.27, 6.55 231.62 C1.27 215.96, -1.09 199.36, -0.53 183.18 C0.03 167.01, 3.47 149.99, 9.9 134.56 C16.32 119.14, 26.17 104.41, 38.01 90.63 C49.86 76.85, 64.84 63.16, 80.98 51.86 C97.12 40.56, 115.09 30.51, 134.84 22.83 C154.6 15.15, 177.86 9.72, 199.53 5.78 C221.2 1.85, 241.32 -1.43, 264.87 -0.79 C288.42 -0.16, 326.89 6.89, 340.84 9.58 C354.79 12.28, 349.68 12.44, 348.57 15.39 M304.99 2.92 C326.48 2.49, 349.47 10.68, 369.65 17.61 C389.83 24.54, 408.98 33.92, 426.08 44.51 C443.17 55.09, 459.65 67.5, 472.25 81.12 C484.85 94.74, 494.27 110.55, 501.66 126.23 C509.05 141.91, 514.73 159.09, 516.59 175.21 C518.45 191.33, 516.78 206.95, 512.81 222.94 C508.83 238.94, 502.21 256.59, 492.74 271.18 C483.28 285.76, 470.91 298.57, 456.04 310.44 C441.16 322.32, 421.92 333.37, 403.51 342.45 C385.1 351.53, 366.32 359.33, 345.58 364.92 C324.85 370.5, 301.6 374.48, 279.13 375.95 C256.65 377.43, 233 376.77, 210.74 373.77 C188.48 370.77, 165.76 364.9, 145.54 357.96 C125.32 351.01, 106.37 342.44, 89.42 332.09 C72.46 321.74, 56.38 309.44, 43.82 295.87 C31.26 282.3, 21.17 266.06, 14.07 250.66 C6.97 235.26, 2.82 219.51, 1.24 203.48 C-0.35 187.44, 0.51 170.57, 4.55 154.47 C8.58 138.36, 16.01 121.53, 25.44 106.85 C34.87 92.17, 46.74 78.65, 61.14 66.39 C75.53 54.13, 93.44 42.57, 111.8 33.29 C130.17 24.01, 150.36 16.31, 171.34 10.74 C192.31 5.17, 215.12 1.27, 237.65 -0.11 C260.18 -1.5, 295.32 1.22, 306.53 2.43 C317.74 3.65, 306.03 4.09, 304.93 7.17" stroke="#1e1e1e" stroke-width="1" fill="none"></path></g><g transform="translate(704.0802459716797 282.99999999999994) rotate(0 103.32991027832031 25)"><text x="103.32991027832031" y="0" font-family="Virgil, Segoe UI Emoji" font-size="20px" fill="#1e1e1e" text-anchor="middle" style="white-space: pre;" direction="ltr" dominant-baseline="text-before-edge">Executions Observing</text><text x="103.32991027832031" y="25" font-family="Virgil, Segoe UI Emoji" font-size="20px" fill="#1e1e1e" text-anchor="middle" style="white-space: pre;" direction="ltr" dominant-baseline="text-before-edge">Total Order Delivery</text></g></svg>
