<svg version="1.1" xmlns="http://www.w3.org/2000/svg" viewBox="0 0 270.5924479166665 345.3089363401383" width="270.5924479166665" height="345.3089363401383" filter="invert(100%) hue-rotate(180deg)">
  <!-- svg-source:excalidraw -->
  
  <defs>
    <style class="style-fonts">
      @font-face {
        font-family: "Virgil";
        src: url("https://excalidraw.com/Virgil.woff2");
      }
      @font-face {
        font-family: "Cascadia";
        src: url("https://excalidraw.com/Cascadia.woff2");
      }
    </style>
    
  </defs>
  <rect x="0" y="0" width="270.5924479166665" height="345.3089363401383" fill="#ffffff"></rect><g stroke-linecap="round" transform="translate(10 10) rotate(0 39.13248697916663 31.61295572916667)"><path d="M15.81 0 M15.81 0 C27.11 -0.07, 41.88 -0.91, 62.46 0 M15.81 0 C32.3 -0.43, 47.7 0.83, 62.46 0 M62.46 0 C72.44 -1.32, 77.73 6.86, 78.26 15.81 M62.46 0 C74.03 1.5, 79.44 3.79, 78.26 15.81 M78.26 15.81 C77.73 24.49, 77.06 29.21, 78.26 47.42 M78.26 15.81 C77.22 25.7, 78.81 36.18, 78.26 47.42 M78.26 47.42 C78.69 59.77, 73.96 64.38, 62.46 63.23 M78.26 47.42 C78 56.18, 73.75 65.21, 62.46 63.23 M62.46 63.23 C49.47 63.74, 36.53 62.75, 15.81 63.23 M62.46 63.23 C49.47 62.49, 35.25 62.75, 15.81 63.23 M15.81 63.23 C4.33 62.84, -1.57 59.24, 0 47.42 M15.81 63.23 C3 63.44, 1.44 57.27, 0 47.42 M0 47.42 C0.95 35.56, -0.6 25.32, 0 15.81 M0 47.42 C-1.15 37.98, 0.58 30.98, 0 15.81 M0 15.81 C0.25 4.83, 6.49 -0.6, 15.81 0 M0 15.81 C-0.97 4.35, 5.39 -1.12, 15.81 0" stroke="#1e1e1e" stroke-width="1" fill="none"></path></g><g transform="translate(34.5924936930337 29.112955729166657) rotate(0 14.539993286132812 12.5)"><text x="14.539993286132812" y="0" font-family="Virgil, Segoe UI Emoji" font-size="20px" fill="#1e1e1e" text-anchor="middle" style="white-space: pre;" direction="ltr" dominant-baseline="text-before-edge">M0</text></g><g stroke-linecap="round"><g transform="translate(50.348307291666515 73.16080729166666) rotate(0 -1.7133166113246716 130.70836042525866)"><path d="M0.44 0.72 C-0.38 44.18, -3.3 216.55, -3.86 259.81 M-0.79 0.06 C-1.32 43.8, -1.09 218.34, -1.57 261.36" stroke="#1e1e1e" stroke-width="1" fill="none"></path></g><g transform="translate(50.348307291666515 73.16080729166666) rotate(0 -1.7133166113246716 130.70836042525866)"><path d="M-10.51 231.79 C-7.95 244.21, -3.27 253.57, -0.53 260.84 M-12.41 233.11 C-8.13 244.01, -4.81 254.25, -1.93 261.97" stroke="#1e1e1e" stroke-width="1" fill="none"></path></g><g transform="translate(50.348307291666515 73.16080729166666) rotate(0 -1.7133166113246716 130.70836042525866)"><path d="M10.01 231.88 C4.61 244.33, 1.33 253.67, -0.53 260.84 M8.11 233.19 C4.5 244.12, -0.08 254.33, -1.93 261.97" stroke="#1e1e1e" stroke-width="1" fill="none"></path></g></g><mask></mask><g stroke-linecap="round" transform="translate(182.32747395833326 11.064453125) rotate(0 39.13248697916663 31.61295572916667)"><path d="M15.81 0 M15.81 0 C27.56 0.95, 40.27 -0.96, 62.46 0 M15.81 0 C29.42 -1.26, 42.48 -0.52, 62.46 0 M62.46 0 C71.31 1.39, 77.57 5.02, 78.26 15.81 M62.46 0 C73.11 1.2, 80.23 3.3, 78.26 15.81 M78.26 15.81 C76.48 24.05, 77.85 36.08, 78.26 47.42 M78.26 15.81 C77.83 23.05, 77.64 33.04, 78.26 47.42 M78.26 47.42 C76.71 58.49, 72.73 61.42, 62.46 63.23 M78.26 47.42 C76.64 56.12, 71.83 64.44, 62.46 63.23 M62.46 63.23 C45.36 64.27, 24.8 63.83, 15.81 63.23 M62.46 63.23 C48.48 64.53, 33.07 64.24, 15.81 63.23 M15.81 63.23 C4.65 63.8, 1.47 56.57, 0 47.42 M15.81 63.23 C6.4 63.25, -1.44 58.7, 0 47.42 M0 47.42 C-1.16 36.66, -1.63 25.54, 0 15.81 M0 47.42 C0.83 41.21, -0.42 33.15, 0 15.81 M0 15.81 C0.04 4.76, 4 0.81, 15.81 0 M0 15.81 C0.06 6.65, 7.2 -0.5, 15.81 0" stroke="#1e1e1e" stroke-width="1" fill="none"></path></g><g transform="translate(211.0899658203125 30.177408854166657) rotate(0 10.3699951171875 12.5)"><text x="10.3699951171875" y="0" font-family="Virgil, Segoe UI Emoji" font-size="20px" fill="#1e1e1e" text-anchor="middle" style="white-space: pre;" direction="ltr" dominant-baseline="text-before-edge">M1</text></g><g stroke-linecap="round"><g transform="translate(222.67578124999977 74.22526041666666) rotate(0 -1.994209605057904 130.73213413926462)"><path d="M0.7 0.94 C0.02 44.18, -2.88 216.29, -3.51 259.63 M-0.39 0.38 C-1.32 43.8, -4.11 217.94, -4.69 261.08" stroke="#1e1e1e" stroke-width="1" fill="none"></path></g><g transform="translate(222.67578124999977 74.22526041666666) rotate(0 -1.994209605057904 130.73213413926462)"><path d="M-12.97 232 C-11.32 242.49, -5.67 252.81, -6.28 260.82 M-14.87 232.62 C-11.82 241.52, -8.13 248.46, -4.58 260.54" stroke="#1e1e1e" stroke-width="1" fill="none"></path></g><g transform="translate(222.67578124999977 74.22526041666666) rotate(0 -1.994209605057904 130.73213413926462)"><path d="M7.55 232.31 C2.07 242.81, 0.57 253.03, -6.28 260.82 M5.65 232.92 C2.67 241.88, 0.34 248.73, -4.58 260.54" stroke="#1e1e1e" stroke-width="1" fill="none"></path></g></g><mask></mask><g stroke-linecap="round"><g transform="translate(50.74544270833326 110.74869791666666) rotate(0 84.88396783856047 60.262286203494284)"><path d="M-0.27 -0.69 C28.01 19.23, 141.76 99.85, 170.04 119.98 M1.79 1.57 C29.88 21.59, 141.38 101.28, 169.14 121.21" stroke="#1e1e1e" stroke-width="1" fill="none"></path></g><g transform="translate(50.74544270833326 110.74869791666666) rotate(0 84.88396783856047 60.262286203494284)"><path d="M167.73 121.88 L154.64 116.83 L162.85 110 L167.83 121.79" stroke="none" stroke-width="0" fill="#1e1e1e" fill-rule="evenodd"></path><path d="M168.29 121.34 C163.53 119.61, 158.78 118.43, 153.21 118.97 M169.73 120.68 C163.63 120.51, 160.03 118.83, 153.82 118.9 M153.31 117.5 C155.74 115.2, 159.44 112.73, 163 108.83 M154.4 119.02 C156.56 115.64, 157.69 114.14, 162.06 108.36 M161.9 109.48 C162.89 112.76, 165.82 114.02, 168.48 119.98 M161.44 107.79 C163.35 112.73, 166.22 116.28, 169.34 121.94 M169.14 121.21 C169.14 121.21, 169.14 121.21, 169.14 121.21 M169.14 121.21 C169.14 121.21, 169.14 121.21, 169.14 121.21" stroke="#1e1e1e" stroke-width="1" fill="none"></path></g></g><mask></mask><g stroke-linecap="round"><g transform="translate(49.169921875 167.47721354166666) rotate(0 85.90271234458612 8.409746980161088)"><path d="M1.05 0.51 C29.74 3.51, 143.13 14.6, 171.66 17.08 M0.14 -0.26 C28.74 2.5, 142.21 12.74, 170.84 15.52" stroke="#1e1e1e" stroke-width="1" fill="none"></path></g><g transform="translate(49.169921875 167.47721354166666) rotate(0 85.90271234458612 8.409746980161088)"><path d="M169.8 14.98 L157.72 20.72 L158.63 8.88 L172.21 14.7" stroke="none" stroke-width="0" fill="#1e1e1e" fill-rule="evenodd"></path><path d="M171.48 15.82 C168.49 17.98, 162.77 19.45, 155.65 19.29 M170.31 16.02 C167.9 17.29, 164.43 18, 156.03 20.73 M157.35 21.52 C157.6 17.38, 157.42 13.71, 157.05 8.58 M156.09 20.48 C156.42 15.4, 157.08 11.48, 157.29 7.76 M157.21 6.9 C162.14 9.24, 164.03 10.1, 172.28 16.39 M157.65 7.42 C162.03 9.71, 165.36 13.4, 171.24 14.99 M170.84 15.52 C170.84 15.52, 170.84 15.52, 170.84 15.52 M170.84 15.52 C170.84 15.52, 170.84 15.52, 170.84 15.52" stroke="#1e1e1e" stroke-width="1" fill="none"></path></g></g><mask></mask></svg>
