<svg version="1.1" xmlns="http://www.w3.org/2000/svg" viewBox="0 0 481.781262427397 541.663176034099" width="481.781262427397" height="541.663176034099" filter="invert(100%) hue-rotate(180deg)">
  <!-- svg-source:excalidraw -->
  
  <defs>
    <style class="style-fonts">
      @font-face {
        font-family: "Virgil";
        src: url("https://excalidraw.com/Virgil.woff2");
      }
      @font-face {
        font-family: "Cascadia";
        src: url("https://excalidraw.com/Cascadia.woff2");
      }
    </style>
    
  </defs>
  <rect x="0" y="0" width="481.781262427397" height="541.663176034099" fill="#ffffff"></rect><g stroke-linecap="round"><g transform="translate(61.83601594522156 189.78583533143006) rotate(0 86.6586366977524 31.396717723331534)"><path d="M-0.67 0.05 C28.45 10.55, 144.83 52.04, 173.99 62.23 M1.18 -0.97 C30.19 9.81, 144.23 53.27, 172.96 63.76" stroke="#1e1e1e" stroke-width="1" fill="none"></path></g><g transform="translate(61.83601594522156 189.78583533143006) rotate(0 86.6586366977524 31.396717723331534)"><path d="M173.47 64.75 L159.46 63.84 L162.82 52.15 L174.39 63.18" stroke="none" stroke-width="0" fill="#1e1e1e" fill-rule="evenodd"></path><path d="M173.02 63.57 C169.38 64.09, 164.58 63.1, 159.5 63.81 M172.81 64.26 C167.52 64.05, 161.92 64.17, 157.89 65.46 M157.76 64.34 C158.65 60.72, 162.42 55.41, 163.09 53.72 M157.5 65.21 C159 62.29, 159.13 60.34, 162.69 53.24 M163.13 53.14 C164.85 55.71, 169.35 59.67, 172.43 62.59 M163.09 52.62 C165.66 57.43, 170.55 60.6, 173.16 63.19 M172.96 63.76 C172.96 63.76, 172.96 63.76, 172.96 63.76 M172.96 63.76 C172.96 63.76, 172.96 63.76, 172.96 63.76" stroke="#1e1e1e" stroke-width="1" fill="none"></path></g></g><mask></mask><g stroke-linecap="round"><g transform="translate(233.91247800383917 307.6884228788176) rotate(0 89.06075414728923 39.66218243836664)"><path d="M-1.12 0.26 C28.59 13.49, 149 65.56, 179.24 78.61 M0.49 -0.66 C29.93 12.83, 148.23 66.59, 178.15 79.98" stroke="#1e1e1e" stroke-width="1" fill="none"></path></g><g transform="translate(233.91247800383917 307.6884228788176) rotate(0 89.06075414728923 39.66218243836664)"><path d="M179.11 81.69 L162.71 79.2 L169.41 67.86 L178.52 79.28" stroke="none" stroke-width="0" fill="#1e1e1e" fill-rule="evenodd"></path><path d="M178.47 79.62 C172.02 80.93, 166.25 79.44, 161.89 80.9 M178.75 79.47 C174.07 80.32, 170.89 79.88, 162.72 80.17 M162.3 80.53 C164.08 76.28, 166.51 72.81, 167.76 69.74 M163.24 80.08 C165.14 76.1, 166.58 71.22, 167.89 68.06 M166.9 69.79 C170.58 71.75, 174.17 73.97, 177.21 81.43 M168.24 68.41 C170.51 71.73, 172.46 74.77, 178.56 79.6 M178.15 79.98 C178.15 79.98, 178.15 79.98, 178.15 79.98 M178.15 79.98 C178.15 79.98, 178.15 79.98, 178.15 79.98" stroke="#1e1e1e" stroke-width="1" fill="none"></path></g></g><mask></mask><g stroke-linecap="round"><g transform="translate(416.8260082151394 419.2054685126402) rotate(0 -177.81321368933425 29.74470739622643)"><path d="M-0.08 0.39 C-59.2 10.21, -295.55 50.12, -354.43 59.94 M-1.58 -0.45 C-60.92 9.55, -296.85 48, -355.55 58.19" stroke="#1e1e1e" stroke-width="1" fill="none"></path></g><g transform="translate(416.8260082151394 419.2054685126402) rotate(0 -177.81321368933425 29.74470739622643)"><path d="M-355.65 56.94 L-343.43 48.66 L-342.51 62.52 L-354.46 58.3" stroke="none" stroke-width="0" fill="#1e1e1e" fill-rule="evenodd"></path><path d="M-355.06 57.79 C-350.67 56.32, -347.4 53.79, -343 50.91 M-354.96 58.33 C-351.32 55.44, -345.54 52, -342.92 49.48 M-343.38 49.39 C-341.64 54.07, -342.21 58.8, -340.58 61.5 M-342.59 49.25 C-342.28 54.02, -342.14 58.3, -340.77 62 M-341.34 62.6 C-344.46 61.66, -348.14 61.24, -354.28 58.24 M-341.77 62.59 C-344.75 61.46, -349.83 60.56, -355.09 58.03 M-355.55 58.19 C-355.55 58.19, -355.55 58.19, -355.55 58.19 M-355.55 58.19 C-355.55 58.19, -355.55 58.19, -355.55 58.19" stroke="#1e1e1e" stroke-width="1" fill="none"></path></g></g><mask></mask><g transform="translate(148.07769553814592 190.02009836329842) rotate(0 21.32542063332596 11.815951990809992)"><text x="0" y="0" font-family="Virgil, Segoe UI Emoji" font-size="18.90552318529597px" fill="#1e1e1e" text-anchor="start" style="white-space: pre;" direction="ltr" dominant-baseline="text-before-edge">LC: 1</text></g><g transform="translate(321.5252008045061 310.7244137907551) rotate(0 25.201051443934716 11.815951990809992)"><text x="0" y="0" font-family="Virgil, Segoe UI Emoji" font-size="18.90552318529597px" fill="#1e1e1e" text-anchor="start" style="white-space: pre;" direction="ltr" dominant-baseline="text-before-edge">LC: 3</text></g><g stroke-linecap="round" transform="translate(359.293399474886 11.683803546157378) rotate(0 56.24393147625551 46.318531803975134)"><path d="M23.16 0 M23.16 0 C46.47 -1.76, 71.56 -1.2, 89.33 0 M23.16 0 C46.23 1.06, 70.96 0.74, 89.33 0 M89.33 0 C104.32 -0.73, 111.03 7.55, 112.49 23.16 M89.33 0 C106.38 -1.16, 113.63 5.6, 112.49 23.16 M112.49 23.16 C110.66 39.71, 114.29 59.57, 112.49 69.48 M112.49 23.16 C113.09 34.65, 112.64 45.33, 112.49 69.48 M112.49 69.48 C114.22 86.83, 103.25 91.83, 89.33 92.64 M112.49 69.48 C111.1 82.66, 104.25 91.08, 89.33 92.64 M89.33 92.64 C66.94 94.05, 46.68 91.79, 23.16 92.64 M89.33 92.64 C75.01 92.28, 62.21 92.53, 23.16 92.64 M23.16 92.64 C7.15 91.39, 0.52 85.04, 0 69.48 M23.16 92.64 C6.25 93.95, 0.04 86.8, 0 69.48 M0 69.48 C-0.89 51.95, 1.82 36.21, 0 23.16 M0 69.48 C0.28 57.98, 0.87 45.43, 0 23.16 M0 23.16 C-0.05 9.43, 5.82 0.76, 23.16 0 M0 23.16 C1.26 5.69, 9.13 -1.69, 23.16 0" stroke="#1e1e1e" stroke-width="1" fill="none"></path></g><g transform="translate(401.5702441591493 46.18638335932252) rotate(0 13.967086791992188 11.815951990809992)"><text x="13.967086791992188" y="0" font-family="Virgil, Segoe UI Emoji" font-size="18.90552318529597px" fill="#1e1e1e" text-anchor="middle" style="white-space: pre;" direction="ltr" dominant-baseline="text-before-edge">M2</text></g><g stroke-linecap="round"><g transform="translate(413.0965983680396 104.37256194406746) rotate(0 0.48303930458303057 213.27846025398028)"><path d="M-1.01 0.2 C-1.1 71.49, -0.41 356.31, -0.38 427.29 M0.67 -0.73 C0.96 70.25, 1.85 354.21, 1.98 425.53" stroke="#1e1e1e" stroke-width="1" fill="none"></path></g><g transform="translate(413.0965983680396 104.37256194406746) rotate(0 0.48303930458303057 213.27846025398028)"><path d="M-8.01 396.26 C-4.07 404.36, -2.8 413.93, 3.56 426.55 M-9.08 397.28 C-4.13 406.67, -0.75 416.02, 2.83 425.32" stroke="#1e1e1e" stroke-width="1" fill="none"></path></g><g transform="translate(413.0965983680396 104.37256194406746) rotate(0 0.48303930458303057 213.27846025398028)"><path d="M12.51 396.2 C10.02 404.15, 4.87 413.74, 3.56 426.55 M11.44 397.23 C9.27 406.56, 5.53 415.93, 2.83 425.32" stroke="#1e1e1e" stroke-width="1" fill="none"></path></g></g><mask></mask><g transform="translate(428.38348625615026 378.45464582589625) rotate(0 6.049761649786888 11.815951990809992)"><text x="0" y="0" font-family="Virgil, Segoe UI Emoji" font-size="18.90552318529597px" fill="#1e1e1e" text-anchor="start" style="white-space: pre;" direction="ltr" dominant-baseline="text-before-edge">4</text></g><g transform="translate(425.76551439318655 409.29797300690734) rotate(0 5.8417997408471365 11.815951990809992)"><text x="0" y="0" font-family="Virgil, Segoe UI Emoji" font-size="18.90552318529597px" fill="#1e1e1e" text-anchor="start" style="white-space: pre;" direction="ltr" dominant-baseline="text-before-edge">5</text></g><g stroke-linecap="round" transform="translate(182.15491579909417 10.078082705996565) rotate(0 56.24393147625551 46.318531803975105)"><path d="M23.16 0 M23.16 0 C43.86 -0.84, 62.27 -0.25, 89.33 0 M23.16 0 C46.83 -0.92, 71.39 -0.64, 89.33 0 M89.33 0 C105.92 -1.91, 111.67 6.56, 112.49 23.16 M89.33 0 C106.58 1.18, 113.57 7.21, 112.49 23.16 M112.49 23.16 C113.56 34.36, 113.14 45.73, 112.49 69.48 M112.49 23.16 C111.53 40.35, 113.34 59.21, 112.49 69.48 M112.49 69.48 C111.09 84.51, 105.69 94.03, 89.33 92.64 M112.49 69.48 C114.37 85.49, 106.68 94.63, 89.33 92.64 M89.33 92.64 C61.95 90.41, 36.52 91.01, 23.16 92.64 M89.33 92.64 C67.32 93.12, 46.38 91.98, 23.16 92.64 M23.16 92.64 C5.94 93.27, 0.55 84.2, 0 69.48 M23.16 92.64 C6.49 94.49, -0.66 84.26, 0 69.48 M0 69.48 C-1.4 59.61, -0.09 49.11, 0 23.16 M0 69.48 C-0.4 52.86, 0.96 37.13, 0 23.16 M0 23.16 C-0.64 8.14, 8.87 0.75, 23.16 0 M0 23.16 C2.13 9.94, 9.53 -0.06, 23.16 0" stroke="#1e1e1e" stroke-width="1" fill="none"></path></g><g transform="translate(228.59921043452937 44.580662519161706) rotate(0 9.799636840820312 11.815951990809992)"><text x="9.799636840820312" y="0" font-family="Virgil, Segoe UI Emoji" font-size="18.90552318529597px" fill="#1e1e1e" text-anchor="middle" style="white-space: pre;" direction="ltr" dominant-baseline="text-before-edge">M1</text></g><g stroke-linecap="round"><g transform="translate(235.95811469224827 102.76684110390659) rotate(0 -1.4552680044981798 211.4479874307665)"><path d="M-0.75 0.27 C-1.09 70.72, -2.35 353.09, -2.81 423.53 M1.05 -0.63 C0.59 69.41, -3.6 350.98, -3.96 421.8" stroke="#1e1e1e" stroke-width="1" fill="none"></path></g><g transform="translate(235.95811469224827 102.76684110390659) rotate(0 -1.4552680044981798 211.4479874307665)"><path d="M-13.47 392.84 C-10.11 398.5, -8.75 406.26, -5.64 422.14 M-14.33 392.93 C-10.54 401.03, -8.42 407.22, -4.33 421.08" stroke="#1e1e1e" stroke-width="1" fill="none"></path></g><g transform="translate(235.95811469224827 102.76684110390659) rotate(0 -1.4552680044981798 211.4479874307665)"><path d="M7.05 393.06 C5.55 398.54, 2.05 406.24, -5.64 422.14 M6.19 393.15 C4.96 401, 2.06 407.13, -4.33 421.08" stroke="#1e1e1e" stroke-width="1" fill="none"></path></g></g><mask></mask><g transform="translate(247.4417430333167 242.8264895299733) rotate(0 6.730361638359113 11.815951990809992)"><text x="0" y="0" font-family="Virgil, Segoe UI Emoji" font-size="18.90552318529597px" fill="#1e1e1e" text-anchor="start" style="white-space: pre;" direction="ltr" dominant-baseline="text-before-edge">2</text></g><g transform="translate(215.11034439846276 293.15506004082954) rotate(0 6.437328336790188 11.815951990809992)"><text x="0" y="0" font-family="Virgil, Segoe UI Emoji" font-size="18.90552318529597px" fill="#1e1e1e" text-anchor="start" style="white-space: pre;" direction="ltr" dominant-baseline="text-before-edge">3</text></g><g transform="translate(178.89814403162723 420.68979935663765) rotate(0 24.605522847991665 11.815951990809992)"><text x="0" y="0" font-family="Virgil, Segoe UI Emoji" font-size="18.90552318529597px" fill="#1e1e1e" text-anchor="start" style="white-space: pre;" direction="ltr" dominant-baseline="text-before-edge">LC: 5</text></g><g stroke-linecap="round" transform="translate(10 10) rotate(0 56.24393147625551 46.318531803975134)"><path d="M23.16 0 M23.16 0 C39.62 1.19, 53.81 0.12, 89.33 0 M23.16 0 C43.84 0.76, 64.62 0.88, 89.33 0 M89.33 0 C104.39 1.17, 112.51 8.85, 112.49 23.16 M89.33 0 C106.43 -0.19, 111.14 5.73, 112.49 23.16 M112.49 23.16 C112.7 40.22, 114.02 59.75, 112.49 69.48 M112.49 23.16 C112.69 34.12, 113.21 45.77, 112.49 69.48 M112.49 69.48 C113.91 83.76, 104.87 92.98, 89.33 92.64 M112.49 69.48 C112.82 82.79, 103.6 94.24, 89.33 92.64 M89.33 92.64 C73.91 90.11, 61.13 92.01, 23.16 92.64 M89.33 92.64 C73.15 93.46, 54.9 92.41, 23.16 92.64 M23.16 92.64 C6.35 93.76, -1.52 83.12, 0 69.48 M23.16 92.64 C6.77 93.07, 0.72 82.65, 0 69.48 M0 69.48 C0.76 56.89, 0.56 49.52, 0 23.16 M0 69.48 C0.63 52.1, -0.1 35.62, 0 23.16 M0 23.16 C0.01 8.68, 7.09 0.91, 23.16 0 M0 23.16 C-0.71 5.8, 7.44 2.28, 23.16 0" stroke="#1e1e1e" stroke-width="1" fill="none"></path></g><g transform="translate(52.50364369549379 44.50257981316511) rotate(0 13.740287780761719 11.815951990809978)"><text x="13.740287780761719" y="0" font-family="Virgil, Segoe UI Emoji" font-size="18.90552318529597px" fill="#1e1e1e" text-anchor="middle" style="white-space: pre;" direction="ltr" dominant-baseline="text-before-edge">M0</text></g><g stroke-linecap="round"><g transform="translate(63.803198893154104 102.68875839790996) rotate(0 -0.2125783902022249 211.74789538238684)"><path d="M-0.71 -0.19 C-0.83 70.54, -0.78 352.65, -0.69 423.49 M1.12 -1.34 C0.86 69.64, -1.25 354.1, -1.54 424.84" stroke="#1e1e1e" stroke-width="1" fill="none"></path></g><g transform="translate(63.803198893154104 102.68875839790996) rotate(0 -0.2125783902022249 211.74789538238684)"><path d="M-11.96 396.9 C-9.43 406.24, -4.09 412.58, -1.46 425.51 M-12.21 396.89 C-8.18 405.08, -5.2 412.88, -0.69 424.23" stroke="#1e1e1e" stroke-width="1" fill="none"></path></g><g transform="translate(63.803198893154104 102.68875839790996) rotate(0 -0.2125783902022249 211.74789538238684)"><path d="M8.56 397.02 C4.93 406.2, 4.11 412.51, -1.46 425.51 M8.31 397.01 C6.61 405.05, 3.86 412.82, -0.69 424.23" stroke="#1e1e1e" stroke-width="1" fill="none"></path></g></g><mask></mask><g transform="translate(41.619660585944985 176.00342531420017) rotate(0 2.561697526181433 11.815951990809992)"><text x="0" y="0" font-family="Virgil, Segoe UI Emoji" font-size="18.90552318529597px" fill="#1e1e1e" text-anchor="start" style="white-space: pre;" direction="ltr" dominant-baseline="text-before-edge">1</text></g><g transform="translate(37.480384904164566 467.8205146372354) rotate(0 6.049761649786888 11.815951990809992)"><text x="0" y="0" font-family="Virgil, Segoe UI Emoji" font-size="18.90552318529597px" fill="#1e1e1e" text-anchor="start" style="white-space: pre;" direction="ltr" dominant-baseline="text-before-edge">6</text></g></svg>
