<svg version="1.1" xmlns="http://www.w3.org/2000/svg" viewBox="0 0 1116.2055130004883 578.0037436532509" width="1116.2055130004883" height="578.0037436532509" filter="invert(100%) hue-rotate(180deg)">
  <!-- svg-source:excalidraw -->
  
  <defs>
    <style class="style-fonts">
      @font-face {
        font-family: "Virgil";
        src: url("https://excalidraw.com/Virgil.woff2");
      }
      @font-face {
        font-family: "Cascadia";
        src: url("https://excalidraw.com/Cascadia.woff2");
      }
    </style>
    
  </defs>
  <rect x="0" y="0" width="1116.2055130004883" height="578.0037436532509" fill="#ffffff"></rect><g stroke-linecap="round" transform="translate(269.9633255004883 16.88671875) rotate(0 41.39453125 36.5546875)"><path d="M18.28 0 M18.28 0 C28.83 -0.08, 40.74 -1.23, 64.51 0 M18.28 0 C32.32 0.66, 47.11 1.01, 64.51 0 M64.51 0 C76.24 -1.03, 82.27 7.01, 82.79 18.28 M64.51 0 C75.2 0.37, 80.59 5.45, 82.79 18.28 M82.79 18.28 C81.24 27.07, 81.73 39.83, 82.79 54.83 M82.79 18.28 C82.23 28.22, 82.64 39.31, 82.79 54.83 M82.79 54.83 C81.59 66.84, 78.05 74.04, 64.51 73.11 M82.79 54.83 C83.81 67.29, 78.86 73.95, 64.51 73.11 M64.51 73.11 C54.38 72.27, 42.13 71.85, 18.28 73.11 M64.51 73.11 C49.38 74.21, 34.55 73.3, 18.28 73.11 M18.28 73.11 C4.28 73.48, -1.94 67.57, 0 54.83 M18.28 73.11 C4.81 73.29, -0.35 65.85, 0 54.83 M0 54.83 C2.08 42.57, 1.86 32.34, 0 18.28 M0 54.83 C0.73 45.98, -0.64 35.07, 0 18.28 M0 18.28 C1.66 7.34, 4.31 -0.68, 18.28 0 M0 18.28 C0.36 7.5, 4.3 1.89, 18.28 0" stroke="#1e1e1e" stroke-width="1" fill="none"></path></g><g transform="translate(302.0878601074219 40.94140625) rotate(0 9.269996643066406 12.5)"><text x="9.269996643066406" y="0" font-family="Virgil, Segoe UI Emoji" font-size="20px" fill="#1e1e1e" text-anchor="middle" style="white-space: pre;" direction="ltr" dominant-baseline="text-before-edge">A1</text></g><g stroke-linecap="round"><g transform="translate(310.5336380004883 91.4921875) rotate(0 -2.1385758341104975 237.4030740884691)"><path d="M-0.91 0.14 C-1.55 79.37, -3.42 396.42, -4.02 475.63 M0.81 -0.83 C0.01 78.08, -4.62 395.07, -5.09 474.14" stroke="#1e1e1e" stroke-width="1" fill="none"></path></g><g transform="translate(310.5336380004883 91.4921875) rotate(0 -2.1385758341104975 237.4030740884691)"><path d="M-14.8 445.45 C-10.17 452.71, -7.7 461.21, -3.58 474.49 M-15.61 444.99 C-12.01 455.08, -7.76 465.22, -5.25 474.44" stroke="#1e1e1e" stroke-width="1" fill="none"></path></g><g transform="translate(310.5336380004883 91.4921875) rotate(0 -2.1385758341104975 237.4030740884691)"><path d="M5.72 445.67 C4.53 452.71, 1.16 461.15, -3.58 474.49 M4.91 445.22 C1.35 455.32, -1.56 465.38, -5.25 474.44" stroke="#1e1e1e" stroke-width="1" fill="none"></path></g></g><mask></mask><g stroke-linecap="round" transform="translate(81.23285675048828 14.3828125) rotate(0 41.39453125 36.5546875)"><path d="M18.28 0 M18.28 0 C31.24 1.29, 42.45 -0.69, 64.51 0 M18.28 0 C31.66 -0.46, 44.01 0.13, 64.51 0 M64.51 0 C74.8 -0.94, 83.96 7.4, 82.79 18.28 M64.51 0 C75.64 -1.74, 81.17 8.34, 82.79 18.28 M82.79 18.28 C82.42 29.37, 81.75 43.25, 82.79 54.83 M82.79 18.28 C83.51 32.02, 83.35 47.89, 82.79 54.83 M82.79 54.83 C83.1 67.36, 76.67 74.49, 64.51 73.11 M82.79 54.83 C83.43 65.26, 75.66 71.19, 64.51 73.11 M64.51 73.11 C45.91 72.91, 30.81 73.62, 18.28 73.11 M64.51 73.11 C52.04 73.04, 40.66 73.43, 18.28 73.11 M18.28 73.11 C6.23 74.5, -1.19 66.39, 0 54.83 M18.28 73.11 C7.14 73.11, 0 65.91, 0 54.83 M0 54.83 C-1.55 40.89, 1.26 29.89, 0 18.28 M0 54.83 C-0.39 45.71, -0.28 37.96, 0 18.28 M0 18.28 C-1.03 4.29, 5.63 -0.57, 18.28 0 M0 18.28 C-0.91 4.46, 4.18 -2.02, 18.28 0" stroke="#1e1e1e" stroke-width="1" fill="none"></path></g><g transform="translate(113.3073959350586 38.4375) rotate(0 9.319992065429688 12.5)"><text x="9.319992065429688" y="0" font-family="Virgil, Segoe UI Emoji" font-size="20px" fill="#1e1e1e" text-anchor="middle" style="white-space: pre;" direction="ltr" dominant-baseline="text-before-edge">P1</text></g><g stroke-linecap="round"><g transform="translate(121.80316925048828 88.98828125) rotate(0 -2.22046771496548 238.61435489687133)"><path d="M0.58 0.17 C-0.12 79.51, -4.33 397.31, -5.02 476.64 M-0.58 -0.79 C-0.8 78.67, -2.08 398.37, -2.63 478.02" stroke="#1e1e1e" stroke-width="1" fill="none"></path></g><g transform="translate(121.80316925048828 88.98828125) rotate(0 -2.22046771496548 238.61435489687133)"><path d="M-12.46 448.76 C-10.8 457.62, -9.28 464.1, -4.16 478.79 M-12.16 450.43 C-10.61 457.03, -8 466.74, -2.48 477.06" stroke="#1e1e1e" stroke-width="1" fill="none"></path></g><g transform="translate(121.80316925048828 88.98828125) rotate(0 -2.22046771496548 238.61435489687133)"><path d="M8.06 448.86 C5.02 457.8, 1.84 464.25, -4.16 478.79 M8.36 450.53 C4.12 457.01, 0.94 466.69, -2.48 477.06" stroke="#1e1e1e" stroke-width="1" fill="none"></path></g></g><mask></mask><g stroke-linecap="round" transform="translate(473.2094192504883 15.09765625) rotate(0 41.39453125 36.5546875)"><path d="M18.28 0 M18.28 0 C29.76 0.41, 39.15 -0.45, 64.51 0 M18.28 0 C33.8 -0.48, 47.58 0.16, 64.51 0 M64.51 0 C75.63 1.94, 81.1 6.98, 82.79 18.28 M64.51 0 C78.27 2.23, 83.01 7.99, 82.79 18.28 M82.79 18.28 C84.56 28.78, 81.52 43.31, 82.79 54.83 M82.79 18.28 C81.61 26.95, 82.98 34.89, 82.79 54.83 M82.79 54.83 C82.36 66.34, 77.98 71.78, 64.51 73.11 M82.79 54.83 C80.79 67.07, 76.6 74.05, 64.51 73.11 M64.51 73.11 C50.43 74.78, 37.3 74.58, 18.28 73.11 M64.51 73.11 C47.55 73.41, 31.39 74.2, 18.28 73.11 M18.28 73.11 C6.85 73.49, 1.09 66.92, 0 54.83 M18.28 73.11 C7.19 74.71, 1.31 64.73, 0 54.83 M0 54.83 C1.96 47.9, 1.37 40.16, 0 18.28 M0 54.83 C-0.1 46.14, -0.97 35.82, 0 18.28 M0 18.28 C-0.47 7.17, 7.81 0.48, 18.28 0 M0 18.28 C1.26 6.24, 8.23 2.2, 18.28 0" stroke="#1e1e1e" stroke-width="1" fill="none"></path></g><g transform="translate(500.92395782470703 39.15234375) rotate(0 13.67999267578125 12.5)"><text x="13.67999267578125" y="0" font-family="Virgil, Segoe UI Emoji" font-size="20px" fill="#1e1e1e" text-anchor="middle" style="white-space: pre;" direction="ltr" dominant-baseline="text-before-edge">A2</text></g><g stroke-linecap="round"><g transform="translate(513.7797317504883 89.703125) rotate(0 -0.44913689252621225 238.72797936519606)"><path d="M0.24 0.84 C0.29 79.93, 0.08 396.35, 0.26 475.58 M-1.09 0.24 C-1.23 80.07, -1.17 398.2, -0.83 477.21" stroke="#1e1e1e" stroke-width="1" fill="none"></path></g><g transform="translate(513.7797317504883 89.703125) rotate(0 -0.44913689252621225 238.72797936519606)"><path d="M-9.74 448.6 C-7.49 458.81, -3.33 467.83, -1.15 477.49 M-11.99 449.48 C-7.02 459.71, -4.02 469.36, -0.56 477.87" stroke="#1e1e1e" stroke-width="1" fill="none"></path></g><g transform="translate(513.7797317504883 89.703125) rotate(0 -0.44913689252621225 238.72797936519606)"><path d="M10.78 448.56 C6.86 458.82, 4.86 467.86, -1.15 477.49 M8.53 449.45 C6.36 459.89, 2.22 469.55, -0.56 477.87" stroke="#1e1e1e" stroke-width="1" fill="none"></path></g></g><mask></mask><g stroke-linecap="round" transform="translate(668.2641067504883 11.3828125) rotate(0 41.39453125 36.5546875)"><path d="M18.28 0 M18.28 0 C34.74 -0.63, 47.72 0.64, 64.51 0 M18.28 0 C30.13 1.07, 42.08 0.49, 64.51 0 M64.51 0 C78.34 0.54, 84.11 6.49, 82.79 18.28 M64.51 0 C78.45 -1.67, 81.06 7.39, 82.79 18.28 M82.79 18.28 C80.77 27.27, 83.49 34.79, 82.79 54.83 M82.79 18.28 C82 27.59, 82.69 38.59, 82.79 54.83 M82.79 54.83 C83.61 66.49, 76.68 71.73, 64.51 73.11 M82.79 54.83 C81.14 69.31, 74.51 75.17, 64.51 73.11 M64.51 73.11 C46.83 73.45, 30.74 75.02, 18.28 73.11 M64.51 73.11 C48.83 73.84, 33.94 73.93, 18.28 73.11 M18.28 73.11 C4.1 71.53, -0.66 67.25, 0 54.83 M18.28 73.11 C8.21 74.44, 1.43 68.74, 0 54.83 M0 54.83 C-0.23 46.67, -1.97 35.25, 0 18.28 M0 54.83 C0.04 45.28, -0.14 35.56, 0 18.28 M0 18.28 C1.91 4.52, 7.05 0.03, 18.28 0 M0 18.28 C-2.22 7.52, 3.96 -1.67, 18.28 0" stroke="#1e1e1e" stroke-width="1" fill="none"></path></g><g transform="translate(696.2886428833008 35.4375) rotate(0 13.3699951171875 12.5)"><text x="13.3699951171875" y="0" font-family="Virgil, Segoe UI Emoji" font-size="20px" fill="#1e1e1e" text-anchor="middle" style="white-space: pre;" direction="ltr" dominant-baseline="text-before-edge">A3</text></g><g stroke-linecap="round"><g transform="translate(708.8344192504883 85.98828125) rotate(0 -1.4913901214786165 237.70894123740493)"><path d="M-0.19 0.16 C-0.68 79.14, -1.92 395.93, -2.15 475.01 M-1.75 -0.8 C-2.42 78.84, -2.8 396.84, -2.79 476.21" stroke="#1e1e1e" stroke-width="1" fill="none"></path></g><g transform="translate(708.8344192504883 85.98828125) rotate(0 -1.4913901214786165 237.70894123740493)"><path d="M-12.76 448.97 C-10.06 460.36, -6.91 469.69, -1.43 478.16 M-12.37 448.21 C-8.87 455.99, -7.21 466.01, -3.51 475.32" stroke="#1e1e1e" stroke-width="1" fill="none"></path></g><g transform="translate(708.8344192504883 85.98828125) rotate(0 -1.4913901214786165 237.70894123740493)"><path d="M7.76 448.99 C2.9 460.34, -1.51 469.66, -1.43 478.16 M8.15 448.23 C5.3 456.05, 0.6 466.07, -3.51 475.32" stroke="#1e1e1e" stroke-width="1" fill="none"></path></g></g><mask></mask><g stroke-linecap="round" transform="translate(854.8305130004883 11.921875) rotate(0 41.39453125 36.5546875)"><path d="M18.28 0 M18.28 0 C30.85 1.35, 41.64 1.43, 64.51 0 M18.28 0 C35.9 0.24, 53.03 0.28, 64.51 0 M64.51 0 C78.34 0.3, 83.76 5.75, 82.79 18.28 M64.51 0 C78.23 -0.87, 82.21 4.39, 82.79 18.28 M82.79 18.28 C82.03 27.26, 84.57 35.11, 82.79 54.83 M82.79 18.28 C83.28 26.19, 82.72 35.38, 82.79 54.83 M82.79 54.83 C82.23 67.44, 75.47 72.25, 64.51 73.11 M82.79 54.83 C82.89 68.63, 78.94 74.49, 64.51 73.11 M64.51 73.11 C54.11 72.78, 42.55 74.14, 18.28 73.11 M64.51 73.11 C48.29 73.03, 33.41 73.53, 18.28 73.11 M18.28 73.11 C5.9 71.19, 0.58 69.01, 0 54.83 M18.28 73.11 C7.47 73.02, -0.19 65.49, 0 54.83 M0 54.83 C-1.58 43.64, -1.2 34.11, 0 18.28 M0 54.83 C-0.43 45.1, 0.92 35.86, 0 18.28 M0 18.28 C-0.85 5.55, 7.52 1.1, 18.28 0 M0 18.28 C1.87 5.15, 5.22 -0.52, 18.28 0" stroke="#1e1e1e" stroke-width="1" fill="none"></path></g><g transform="translate(887.5250473022461 35.9765625) rotate(0 8.699996948242188 12.5)"><text x="8.699996948242188" y="0" font-family="Virgil, Segoe UI Emoji" font-size="20px" fill="#1e1e1e" text-anchor="middle" style="white-space: pre;" direction="ltr" dominant-baseline="text-before-edge">L1</text></g><g stroke-linecap="round"><g transform="translate(895.4008255004883 86.52734375) rotate(0 2.1152681450034834 239.35065870699935)"><path d="M0.9 0.75 C1.56 80.36, 3.77 399.21, 4.32 478.61 M-0.09 0.09 C0.46 79.3, 3.22 397.25, 3.87 476.92" stroke="#1e1e1e" stroke-width="1" fill="none"></path></g><g transform="translate(895.4008255004883 86.52734375) rotate(0 2.1152681450034834 239.35065870699935)"><path d="M-5.39 450.39 C-1.57 459.37, -0.56 468.55, 3.83 478.29 M-6.15 448.64 C-2.55 456.93, -0.29 465.08, 3.22 476.7" stroke="#1e1e1e" stroke-width="1" fill="none"></path></g><g transform="translate(895.4008255004883 86.52734375) rotate(0 2.1152681450034834 239.35065870699935)"><path d="M15.13 450.22 C12.15 459.41, 6.35 468.65, 3.83 478.29 M14.37 448.47 C11.75 456.84, 7.8 465.04, 3.22 476.7" stroke="#1e1e1e" stroke-width="1" fill="none"></path></g></g><mask></mask><g stroke-linecap="round" transform="translate(1023.4164505004883 10) rotate(0 41.39453125 36.5546875)"><path d="M18.28 0 M18.28 0 C35.14 1.1, 52.13 1.37, 64.51 0 M18.28 0 C33.5 -0.3, 47.14 -0.66, 64.51 0 M64.51 0 C75.41 -0.44, 83.28 5.41, 82.79 18.28 M64.51 0 C77.12 2.15, 82.34 4.52, 82.79 18.28 M82.79 18.28 C81.81 30.58, 83.26 43.34, 82.79 54.83 M82.79 18.28 C82.61 30.72, 83.54 42.35, 82.79 54.83 M82.79 54.83 C81.51 68.92, 76.93 73.61, 64.51 73.11 M82.79 54.83 C82.35 66.85, 77.82 74.19, 64.51 73.11 M64.51 73.11 C52.77 74.98, 41.8 72.83, 18.28 73.11 M64.51 73.11 C55.67 73.53, 45.55 72.9, 18.28 73.11 M18.28 73.11 C5.76 74.26, 0.63 65.65, 0 54.83 M18.28 73.11 C5.13 71.98, -0.02 65.94, 0 54.83 M0 54.83 C-1.1 46.01, -1.07 32.79, 0 18.28 M0 54.83 C0.55 44.45, -0.64 34.65, 0 18.28 M0 18.28 C0.05 4.98, 5.9 1.02, 18.28 0 M0 18.28 C0.06 7.39, 5.89 -2.28, 18.28 0" stroke="#1e1e1e" stroke-width="1" fill="none"></path></g><g transform="translate(1051.7009887695312 34.0546875) rotate(0 13.109992980957031 12.5)"><text x="13.109992980957031" y="0" font-family="Virgil, Segoe UI Emoji" font-size="20px" fill="#1e1e1e" text-anchor="middle" style="white-space: pre;" direction="ltr" dominant-baseline="text-before-edge">L2</text></g><g stroke-linecap="round"><g transform="translate(1063.9867630004883 84.60546875) rotate(0 0.31206239022048976 241.2028508273792)"><path d="M0.82 0.03 C0.84 80.33, 0.86 401.54, 0.79 481.77 M-0.2 -0.99 C-0.32 79.53, 0.34 402.8, 0.36 483.4" stroke="#1e1e1e" stroke-width="1" fill="none"></path></g><g transform="translate(1063.9867630004883 84.60546875) rotate(0 0.31206239022048976 241.2028508273792)"><path d="M-9.88 456.86 C-5.95 466.22, -2.9 476.69, -0.39 482.9 M-9.69 454.88 C-7.61 462.54, -5.66 467.28, 0.87 483.73" stroke="#1e1e1e" stroke-width="1" fill="none"></path></g><g transform="translate(1063.9867630004883 84.60546875) rotate(0 0.31206239022048976 241.2028508273792)"><path d="M10.65 456.84 C7.21 466.35, 2.91 476.83, -0.39 482.9 M10.83 454.85 C8.28 462.47, 5.59 467.22, 0.87 483.73" stroke="#1e1e1e" stroke-width="1" fill="none"></path></g></g><mask></mask><g stroke-linecap="round"><g transform="translate(121.12348175048828 122.75390625) rotate(0 93.68023198996684 14.271055997586814)"><path d="M-0.23 0.01 C31.05 5.04, 155.69 24.57, 186.99 29.57 M-1.81 -1.03 C29.9 3.69, 157.77 22.83, 189.17 27.68" stroke="#1e1e1e" stroke-width="1" fill="none"></path></g><g transform="translate(121.12348175048828 122.75390625) rotate(0 93.68023198996684 14.271055997586814)"><path d="M190.86 29.11 L173.89 30.94 L177.78 19.27 L190.02 28.6" stroke="none" stroke-width="0" fill="#1e1e1e" fill-rule="evenodd"></path><path d="M189.19 26.43 C186.24 28.14, 183.29 28.64, 174.58 31.8 M188.66 26.96 C185.24 28.33, 182.68 29.32, 174.57 32.23 M174.1 31.74 C176.65 27.33, 176.59 22.84, 177.14 19.84 M175.16 31.4 C175.57 29.07, 175.75 24.65, 176.59 19.37 M175.63 18.5 C181.21 21.96, 185.5 26.24, 190.25 26.2 M177.32 19.94 C181.44 22.25, 186.97 25.86, 188.75 28.39 M189.17 27.68 C189.17 27.68, 189.17 27.68, 189.17 27.68 M189.17 27.68 C189.17 27.68, 189.17 27.68, 189.17 27.68" stroke="#1e1e1e" stroke-width="1" fill="none"></path></g></g><mask></mask><g stroke-linecap="round"><g transform="translate(122.42816925048828 124.33984375) rotate(0 195.00287759328717 58.625001007295225)"><path d="M-0.63 -0.36 C63.94 19.47, 323.29 98.96, 388.27 118.84 M1.24 -1.59 C66.14 17.88, 326.06 97.24, 390.63 116.99" stroke="#1e1e1e" stroke-width="1" fill="none"></path></g><g transform="translate(122.42816925048828 124.33984375) rotate(0 195.00287759328717 58.625001007295225)"><path d="M390.53 117.88 L374.97 118.21 L379.65 107.12 L389.59 118.43" stroke="none" stroke-width="0" fill="#1e1e1e" fill-rule="evenodd"></path><path d="M390.19 116.17 C385.79 118.1, 380.39 118.42, 376.46 120.34 M390.41 117.71 C387.65 117.76, 383.65 117.73, 376.21 118.56 M375.46 119.77 C375.9 115.26, 378.02 108.86, 379.76 106.05 M375.81 118.67 C376.57 116.34, 377.91 112.8, 379.06 106.88 M380.31 107.27 C381.87 110.4, 386.1 114.15, 391.61 117 M379.6 106.87 C383.49 110.68, 387.58 114.25, 390.74 116.99 M390.63 116.99 C390.63 116.99, 390.63 116.99, 390.63 116.99 M390.63 116.99 C390.63 116.99, 390.63 116.99, 390.63 116.99" stroke="#1e1e1e" stroke-width="1" fill="none"></path></g></g><mask></mask><g transform="translate(183.38936614990234 110.046875) rotate(8.567497064736427 39.82395935058594 10)"><text x="39.82395935058594" y="0" font-family="Virgil, Segoe UI Emoji" font-size="16px" fill="#1971c2" text-anchor="middle" style="white-space: pre;" direction="ltr" dominant-baseline="text-before-edge">prepare(5)</text></g><g stroke-linecap="round"><g transform="translate(307.9008255004883 152.1015625) rotate(0 -92.46838833691095 13.949786138176023)"><path d="M0.24 0.54 C-30.54 5.38, -153.43 23.76, -184.17 28.12 M-1.1 -0.22 C-32.08 4.4, -154.52 21.93, -185.17 26.62" stroke="#1e1e1e" stroke-width="1" fill="none"></path></g><g transform="translate(307.9008255004883 152.1015625) rotate(0 -92.46838833691095 13.949786138176023)"><path d="M-184.53 24.64 L-172.58 16.41 L-169.17 32.78 L-183.49 24.99" stroke="none" stroke-width="0" fill="#1e1e1e" fill-rule="evenodd"></path><path d="M-184.5 26.48 C-179.39 23.61, -176.89 20.66, -174.05 19.42 M-185.21 25.9 C-180.92 23.86, -177.99 21.58, -173.15 18.2 M-172.65 17.29 C-172.8 20.61, -172.56 24.39, -171.1 30.44 M-173.12 18.19 C-171.83 23.44, -171.35 27.48, -171.27 31.19 M-169.9 29.46 C-176.25 29.51, -181.63 27.46, -185.52 27.15 M-171.51 30.71 C-174.23 30.04, -176.7 29.36, -185.89 26.5 M-185.17 26.62 C-185.17 26.62, -185.17 26.62, -185.17 26.62 M-185.17 26.62 C-185.17 26.62, -185.17 26.62, -185.17 26.62" stroke="#1e1e1e" stroke-width="1" fill="none"></path></g></g><mask></mask><g stroke-linecap="round"><g transform="translate(512.0844192504883 245.453125) rotate(0 -194.20878860193307 11.350594719885862)"><path d="M-0.85 0.69 C-65.78 4.37, -324.06 19.25, -388.89 22.7 M0.9 0 C-64.15 3.29, -324.07 17.19, -389.32 20.92" stroke="#1e1e1e" stroke-width="1" fill="none"></path></g><g transform="translate(512.0844192504883 245.453125) rotate(0 -194.20878860193307 11.350594719885862)"><path d="M-389.38 19.2 L-377.42 15.12 L-374.23 25.39 L-387.51 20.03" stroke="none" stroke-width="0" fill="#1e1e1e" fill-rule="evenodd"></path><path d="M-388.46 22.15 C-383.84 18.53, -380.77 17.37, -376.68 15.19 M-388.77 21.64 C-384.05 18.4, -380.73 16.18, -376.53 13.18 M-375.09 14.08 C-376.58 17.2, -375.68 20.41, -374.88 25.39 M-375.93 13.83 C-376.12 17.15, -375.47 21.02, -375.64 26.68 M-375.62 25.08 C-380.68 25.69, -385.45 21.91, -389.21 19.5 M-375.97 26.34 C-378.48 25.3, -383.2 23.64, -388.7 20.66 M-389.32 20.92 C-389.32 20.92, -389.32 20.92, -389.32 20.92 M-389.32 20.92 C-389.32 20.92, -389.32 20.92, -389.32 20.92" stroke="#1e1e1e" stroke-width="1" fill="none"></path></g></g><mask></mask><g transform="translate(158.69805145263672 174.046875) rotate(351.5821750716253 38.31996154785156 10)"><text x="38.31996154785156" y="0" font-family="Virgil, Segoe UI Emoji" font-size="16px" fill="#2f9e44" text-anchor="middle" style="white-space: pre;" direction="ltr" dominant-baseline="text-before-edge">promise(5)</text></g><g transform="translate(207.21367645263672 266.10546875) rotate(356.7673335067756 38.31996154785156 10)"><text x="38.31996154785156" y="0" font-family="Virgil, Segoe UI Emoji" font-size="16px" fill="#2f9e44" text-anchor="middle" style="white-space: pre;" direction="ltr" dominant-baseline="text-before-edge">promise(5)</text></g><g stroke-linecap="round"><g transform="translate(104.70160675048828 286.14453125) rotate(0 17.84788272827859 0.8514736130833853)"><path d="M-0.94 -0.54 C5.27 -0.25, 30.42 1.8, 36.64 2.25 M0.76 1.78 C6.97 1.71, 30.34 0.88, 36.22 0.62" stroke="#e03131" stroke-width="1" fill="none"></path></g></g><mask></mask><g transform="translate(10 276.96875) rotate(0 41.93598175048828 10)"><text x="41.93598175048828" y="0" font-family="Virgil, Segoe UI Emoji" font-size="16px" fill="#e03131" text-anchor="middle" style="white-space: pre;" direction="ltr" dominant-baseline="text-before-edge">Milestone 1</text></g><g stroke-linecap="round"><g transform="translate(122.39691925048828 339.08203125) rotate(0 92.10239136795053 7.727733118934509)"><path d="M0.43 -0.19 C31.36 2.58, 154.31 12.68, 185.01 15.5 M-0.81 -1.34 C30.09 1.7, 153.64 14.11, 184.45 16.8" stroke="#1e1e1e" stroke-width="1" fill="none"></path></g><g transform="translate(122.39691925048828 339.08203125) rotate(0 92.10239136795053 7.727733118934509)"><path d="M183.18 15.87 L169.73 22.26 L170.07 7.5 L185.54 18.61" stroke="none" stroke-width="0" fill="#1e1e1e" fill-rule="evenodd"></path><path d="M184.21 17.72 C180.31 18.58, 178.3 18.43, 170.05 21.06 M184.11 17.24 C179.29 18.73, 173.55 21.23, 169.79 22.14 M170.44 22.65 C169.93 17.7, 170.28 16.26, 172.77 10.25 M170.67 21.61 C170.66 17.9, 171.69 12.98, 171.59 8.9 M172.65 8.36 C174.58 12.07, 178.24 12.9, 183.59 18.15 M172.13 9.89 C175.26 10.51, 178.88 13.15, 183.91 16.92 M184.45 16.8 C184.45 16.8, 184.45 16.8, 184.45 16.8 M184.45 16.8 C184.45 16.8, 184.45 16.8, 184.45 16.8" stroke="#1e1e1e" stroke-width="1" fill="none"></path></g></g><mask></mask><g stroke-linecap="round"><g transform="translate(122.24457550048828 341.046875) rotate(0 195.04579757238275 36.18066864768974)"><path d="M-0.49 1.03 C64.39 12.78, 323.19 58.92, 388.22 70.32 M1.46 0.52 C66.82 12.5, 325.93 60.23, 390.58 71.84" stroke="#1e1e1e" stroke-width="1" fill="none"></path></g><g transform="translate(122.24457550048828 341.046875) rotate(0 195.04579757238275 36.18066864768974)"><path d="M389.61 69.86 L374.75 76.96 L379.69 63.87 L390.52 72.69" stroke="none" stroke-width="0" fill="#1e1e1e" fill-rule="evenodd"></path><path d="M391.86 71 C387.47 73.6, 383.24 72.97, 377.17 74.48 M391.16 72.2 C387.81 71.94, 385.31 73.63, 376.67 75.67 M375.28 75.51 C377.53 71.73, 377.24 69.88, 378.17 62.97 M375.93 75.64 C376.6 71.41, 377.18 67.51, 378.92 63.41 M376.98 64.24 C382.21 65.84, 384.98 66.81, 390.53 72.79 M377.74 63.05 C383.2 66.74, 388.07 70.23, 390.45 72.08 M390.58 71.84 C390.58 71.84, 390.58 71.84, 390.58 71.84 M390.58 71.84 C390.58 71.84, 390.58 71.84, 390.58 71.84" stroke="#1e1e1e" stroke-width="1" fill="none"></path></g></g><mask></mask><g transform="translate(159.19811248779297 322.69140625) rotate(4.496057912422802 55.98396301269531 10)"><text x="55.98396301269531" y="0" font-family="Virgil, Segoe UI Emoji" font-size="16px" fill="#1971c2" text-anchor="middle" style="white-space: pre;" direction="ltr" dominant-baseline="text-before-edge">accept(5, foo)</text></g><g stroke-linecap="round"><g transform="translate(305.7250442504883 355.91796875) rotate(0 -91.11871101235488 21.476416025138462)"><path d="M1.05 -0.4 C-29.42 7.23, -152.01 37.4, -182.49 44.61 M0.14 -1.66 C-30.49 5.74, -152.91 35.34, -183.28 42.9" stroke="#1e1e1e" stroke-width="1" fill="none"></path></g><g transform="translate(305.7250442504883 355.91796875) rotate(0 -91.11871101235488 21.476416025138462)"><path d="M-184.21 43.53 L-169.93 32.55 L-167.11 47.42 L-185.08 44.33" stroke="none" stroke-width="0" fill="#1e1e1e" fill-rule="evenodd"></path><path d="M-183.79 43.27 C-178.4 40.95, -176.76 36.87, -171.57 34.65 M-182.82 43.28 C-180.02 40.6, -177.83 39.08, -171.14 34.08 M-171.45 32.35 C-171.76 36.07, -170.59 40.78, -169.1 45.25 M-172.07 34.06 C-171.26 36.21, -170.79 39.47, -168.63 45.51 M-168.45 44.62 C-174.61 45.07, -176.76 42.5, -184.72 44.34 M-168.43 46.05 C-173.01 45.57, -176.71 44.18, -182.71 42.63 M-183.28 42.9 C-183.28 42.9, -183.28 42.9, -183.28 42.9 M-183.28 42.9 C-183.28 42.9, -183.28 42.9, -183.28 42.9" stroke="#1e1e1e" stroke-width="1" fill="none"></path></g></g><mask></mask><g stroke-linecap="round"><g transform="translate(511.2719192504883 414.703125) rotate(0 -195.64502306773693 19.486066159542872)"><path d="M0.44 -0.43 C-64.93 6.23, -326.57 33.83, -391.73 40.67 M-0.78 -1.7 C-65.81 4.52, -324.39 32.07, -389.43 38.77" stroke="#1e1e1e" stroke-width="1" fill="none"></path></g><g transform="translate(511.2719192504883 414.703125) rotate(0 -195.64502306773693 19.486066159542872)"><path d="M-389.21 40.66 L-377.64 32.82 L-375.47 42.25 L-390.77 37.92" stroke="none" stroke-width="0" fill="#1e1e1e" fill-rule="evenodd"></path><path d="M-389.97 37.78 C-384.6 36.62, -380.29 34.49, -377.47 30.65 M-389.74 38.5 C-385.14 36.89, -382.6 33.57, -376.01 30.94 M-376.27 30.73 C-377.28 34.56, -375.16 36.44, -375.18 43.29 M-376.24 30.69 C-375.43 35.94, -375.65 40.73, -375.51 43.44 M-376.46 44 C-381.95 42.52, -385.4 39.34, -390.75 38.95 M-375.1 43.19 C-377.78 42.13, -381.02 40.75, -390 38.33 M-389.43 38.77 C-389.43 38.77, -389.43 38.77, -389.43 38.77 M-389.43 38.77 C-389.43 38.77, -389.43 38.77, -389.43 38.77" stroke="#1e1e1e" stroke-width="1" fill="none"></path></g></g><mask></mask><g transform="translate(147.5279312133789 385.26953125) rotate(346.3768637015891 64.91195678710938 10)"><text x="64.91195678710938" y="0" font-family="Virgil, Segoe UI Emoji" font-size="16px" fill="#2f9e44" text-anchor="middle" style="white-space: pre;" direction="ltr" dominant-baseline="text-before-edge">accepted(5, foo)</text></g><g transform="translate(165.7466812133789 447.94921875) rotate(353.0949656802933 64.91195678710938 10)"><text x="64.91195678710938" y="0" font-family="Virgil, Segoe UI Emoji" font-size="16px" fill="#2f9e44" text-anchor="middle" style="white-space: pre;" direction="ltr" dominant-baseline="text-before-edge">accepted(5, foo)</text></g><g stroke-linecap="round"><g transform="translate(301.7523880004883 354.36328125) rotate(0 296.8522175498167 10.084987827180896)"><path d="M1.01 1.19 C99.77 4.23, 494.71 16.61, 593.62 19.41 M0.09 0.76 C98.59 3.99, 493.67 14.69, 592.67 17.73" stroke="#1e1e1e" stroke-width="1" fill="none"></path></g><g transform="translate(301.7523880004883 354.36328125) rotate(0 296.8522175498167 10.084987827180896)"><path d="M594.43 18.74 L578.72 24.97 L579.42 12.57 L593.76 19.25" stroke="none" stroke-width="0" fill="#1e1e1e" fill-rule="evenodd"></path><path d="M594.15 17.73 C588.43 21.18, 581.28 22.11, 579.94 24.87 M592.04 17.04 C589.6 19.09, 586.8 20.14, 578.58 23.48 M579.73 22.97 C578.78 19.67, 579.28 17.21, 578.46 10.3 M579.04 24.05 C579.64 20.57, 579.13 17.51, 579.79 10.89 M580.67 12.31 C584.34 13.56, 588.45 14.91, 593 17.44 M580 11.27 C583.75 12.98, 589 16.8, 593.03 18.02 M592.67 17.73 C592.67 17.73, 592.67 17.73, 592.67 17.73 M592.67 17.73 C592.67 17.73, 592.67 17.73, 592.67 17.73" stroke="#1e1e1e" stroke-width="1" fill="none"></path></g></g><mask></mask><g stroke-linecap="round"><g transform="translate(309.4281692504883 356.80078125) rotate(0 376.1427522773902 26.223228772520088)"><path d="M0.02 0.99 C125.5 9.57, 627.93 43.72, 753.71 51.99 M-1.42 0.46 C123.78 8.69, 626.57 41.9, 752.51 50.46" stroke="#1e1e1e" stroke-width="1" fill="none"></path></g><g transform="translate(309.4281692504883 356.80078125) rotate(0 376.1427522773902 26.223228772520088)"><path d="M753.61 52.02 L738.91 55.19 L737.87 44 L751.5 51.3" stroke="none" stroke-width="0" fill="#1e1e1e" fill-rule="evenodd"></path><path d="M753.74 49.85 C748.73 53.09, 741.81 53.7, 739.7 55.86 M752.4 50.3 C748.59 52.34, 745.26 53.25, 737.8 56.51 M739.56 56.16 C737.57 52.73, 740.04 50.65, 738.73 43.71 M738.06 56.1 C739.15 52.7, 739.23 50.68, 739.3 43.77 M738.28 44.64 C742.66 46.36, 749.73 48.79, 753.15 49.93 M738.67 43.18 C743.38 45.73, 745.54 47.14, 752.06 49.92 M752.51 50.46 C752.51 50.46, 752.51 50.46, 752.51 50.46 M752.51 50.46 C752.51 50.46, 752.51 50.46, 752.51 50.46" stroke="#1e1e1e" stroke-width="1" fill="none"></path></g></g><mask></mask><g stroke-linecap="round"><g transform="translate(512.7289505004883 413.546875) rotate(0 274.1052050576591 27.452869516587782)"><path d="M0.25 -0.15 C91.66 9.33, 457.82 46.98, 549.29 56.18 M-1.08 -1.27 C90.16 7.91, 457.1 44.77, 548.69 54.32" stroke="#1e1e1e" stroke-width="1" fill="none"></path></g><g transform="translate(512.7289505004883 413.546875) rotate(0 274.1052050576591 27.452869516587782)"><path d="M549.6 55.67 L535.84 57.3 L537.02 47.93 L547.3 54.98" stroke="none" stroke-width="0" fill="#1e1e1e" fill-rule="evenodd"></path><path d="M548.51 55.17 C544.04 56.71, 537.38 58.85, 534.07 59.85 M548.98 53.63 C543.7 56.07, 540.38 56.64, 535.19 59.07 M533.81 58.43 C533.77 55.81, 535.15 51.05, 536.42 47.61 M534.33 59.36 C534.62 55.46, 535.74 51.79, 535.51 47.22 M537.07 47.56 C540.45 49.31, 544.32 51.96, 548.24 53.75 M535.69 46.53 C538.85 49.35, 542.82 51.18, 548.38 54.9 M548.69 54.32 C548.69 54.32, 548.69 54.32, 548.69 54.32 M548.69 54.32 C548.69 54.32, 548.69 54.32, 548.69 54.32" stroke="#1e1e1e" stroke-width="1" fill="none"></path></g></g><mask></mask><g stroke-linecap="round"><g transform="translate(512.0141067504883 415.0390625) rotate(0 193.59916042834516 27.24771146806887)"><path d="M-0.6 0.76 C64 9.63, 323.2 44.23, 387.8 53.07 M1.29 0.11 C65.68 9.16, 322.04 45.19, 386.7 54.39" stroke="#1e1e1e" stroke-width="1" fill="none"></path></g><g transform="translate(512.0141067504883 415.0390625) rotate(0 193.59916042834516 27.24771146806887)"><path d="M388.17 56.06 L372.73 57.13 L372.74 45.4 L387.69 55.03" stroke="none" stroke-width="0" fill="#1e1e1e" fill-rule="evenodd"></path><path d="M387.65 54.04 C381.6 54.31, 377.93 56.6, 372.41 58.96 M386.14 54.12 C381.11 56.66, 375.92 58.14, 372.25 58.42 M371.59 59.55 C372.73 54.83, 373.32 50.2, 373.41 46.86 M372.19 58.23 C373.22 55.57, 373.42 51.19, 374.64 46.18 M375.11 47.21 C376.51 49.37, 380.97 49.25, 385.87 53.96 M374.7 46.44 C378.59 49.47, 382.95 52.23, 386.88 54.01 M386.7 54.39 C386.7 54.39, 386.7 54.39, 386.7 54.39 M386.7 54.39 C386.7 54.39, 386.7 54.39, 386.7 54.39" stroke="#1e1e1e" stroke-width="1" fill="none"></path></g></g><mask></mask><g stroke-linecap="round"><g transform="translate(299.6664505004883 364.2265625) rotate(0 31.544987754523618 -27.276754628294157)"><path d="M-0.39 0.68 C10.08 -8.39, 52.96 -44.32, 63.48 -53.37 M1.6 0 C11.94 -8.92, 52.9 -46.55, 62.97 -55.24" stroke="#e03131" stroke-width="1" fill="none"></path></g></g><mask></mask><g stroke-linecap="round"><g transform="translate(531.8148880004883 427.609375) rotate(0 -74.47184574156995 -58.85120912733021)"><path d="M1.15 -1.2 C-23.91 -21.05, -125.07 -98.88, -150.1 -118.49 M0.3 0.79 C-24.43 -18.94, -122.98 -97.37, -148 -117.16" stroke="#e03131" stroke-width="1" fill="none"></path></g></g><mask></mask><g transform="translate(333.9290313720703 287.5703125) rotate(0 45.46398162841797 10)"><text x="0" y="0" font-family="Virgil, Segoe UI Emoji" font-size="16px" fill="#e03131" text-anchor="start" style="white-space: pre;" direction="ltr" dominant-baseline="text-before-edge">Milestone 2</text></g><g stroke-linecap="round"><g transform="translate(108.72504425048828 448) rotate(0 40.0546875 34.75390625)"><path d="M0 0 C13.35 11.58, 66.76 57.92, 80.11 69.51 M0 0 C13.35 11.58, 66.76 57.92, 80.11 69.51" stroke="#e03131" stroke-width="1" fill="none"></path></g></g><mask></mask><g stroke-linecap="round"><g transform="translate(913.1039505004883 472.125) rotate(0 -330.3125 25.57421875)"><path d="M0 0 C-110.1 8.52, -550.52 42.62, -660.63 51.15 M0 0 C-110.1 8.52, -550.52 42.62, -660.63 51.15" stroke="#e03131" stroke-width="1" fill="none"></path></g></g><mask></mask><g stroke-linecap="round"><g transform="translate(1079.5766067504883 475.578125) rotate(0 -412.265625 29.537109375)"><path d="M0 0 C-137.42 9.85, -687.11 49.23, -824.53 59.07 M0 0 C-137.42 9.85, -687.11 49.23, -824.53 59.07" stroke="#e03131" stroke-width="1" fill="none"></path></g></g><mask></mask><g transform="translate(153.72113800048828 525.21875) rotate(0 45.215980529785156 10)"><text x="0" y="0" font-family="Virgil, Segoe UI Emoji" font-size="16px" fill="#e03131" text-anchor="start" style="white-space: pre;" direction="ltr" dominant-baseline="text-before-edge">Milestone 3</text></g></svg>
