<svg version="1.1" xmlns="http://www.w3.org/2000/svg" viewBox="0 0 723.61328125 444.27754442878063" width="723.61328125" height="444.27754442878063" filter="invert(100%) hue-rotate(180deg)">
  <!-- svg-source:excalidraw -->
  
  <defs>
    <style class="style-fonts">
      @font-face {
        font-family: "Virgil";
        src: url("https://excalidraw.com/Virgil.woff2");
      }
      @font-face {
        font-family: "Cascadia";
        src: url("https://excalidraw.com/Cascadia.woff2");
      }
    </style>
    
  </defs>
  <rect x="0" y="0" width="723.61328125" height="444.27754442878063" fill="#ffffff"></rect><g stroke-linecap="round" transform="translate(198.73046875 13.62109375) rotate(0 41.39453125 36.5546875)"><path d="M18.28 0 M18.28 0 C28.83 -0.08, 40.74 -1.23, 64.51 0 M18.28 0 C32.32 0.66, 47.11 1.01, 64.51 0 M64.51 0 C76.24 -1.03, 82.27 7.01, 82.79 18.28 M64.51 0 C75.2 0.37, 80.59 5.45, 82.79 18.28 M82.79 18.28 C81.24 27.07, 81.73 39.83, 82.79 54.83 M82.79 18.28 C82.23 28.22, 82.64 39.31, 82.79 54.83 M82.79 54.83 C81.59 66.84, 78.05 74.04, 64.51 73.11 M82.79 54.83 C83.81 67.29, 78.86 73.95, 64.51 73.11 M64.51 73.11 C54.38 72.27, 42.13 71.85, 18.28 73.11 M64.51 73.11 C49.38 74.21, 34.55 73.3, 18.28 73.11 M18.28 73.11 C4.28 73.48, -1.94 67.57, 0 54.83 M18.28 73.11 C4.81 73.29, -0.35 65.85, 0 54.83 M0 54.83 C2.08 42.57, 1.86 32.34, 0 18.28 M0 54.83 C0.73 45.98, -0.64 35.07, 0 18.28 M0 18.28 C1.66 7.34, 4.31 -0.68, 18.28 0 M0 18.28 C0.36 7.5, 4.3 1.89, 18.28 0" stroke="#1e1e1e" stroke-width="1" fill="none"></path></g><g transform="translate(233.51500701904297 37.67578125) rotate(0 6.609992980957031 12.5)"><text x="6.609992980957031" y="0" font-family="Virgil, Segoe UI Emoji" font-size="20px" fill="#1e1e1e" text-anchor="middle" style="white-space: pre;" direction="ltr" dominant-baseline="text-before-edge">P</text></g><g stroke-linecap="round"><g transform="translate(239.30078125 88.2265625) rotate(0 -0.8377945841104975 172.6120584634691)"><path d="M-0.91 0.14 C-1.11 57.77, -1.25 288.44, -1.42 346.05 M0.81 -0.83 C0.45 56.48, -2.45 287.08, -2.49 344.55" stroke="#1e1e1e" stroke-width="1" fill="none"></path></g><g transform="translate(239.30078125 88.2265625) rotate(0 -0.8377945841104975 172.6120584634691)"><path d="M-12.3 315.9 C-7.64 323.15, -5.14 331.64, -0.98 344.91 M-13.11 315.45 C-9.47 325.52, -5.19 335.65, -2.65 344.85" stroke="#1e1e1e" stroke-width="1" fill="none"></path></g><g transform="translate(239.30078125 88.2265625) rotate(0 -0.8377945841104975 172.6120584634691)"><path d="M8.22 316.05 C7.06 323.11, 3.72 331.55, -0.98 344.91 M7.41 315.6 C3.89 325.71, 1.01 335.79, -2.65 344.85" stroke="#1e1e1e" stroke-width="1" fill="none"></path></g></g><mask></mask><g stroke-linecap="round" transform="translate(10 11.1171875) rotate(0 41.39453125 36.5546875)"><path d="M18.28 0 M18.28 0 C31.24 1.29, 42.45 -0.69, 64.51 0 M18.28 0 C31.66 -0.46, 44.01 0.13, 64.51 0 M64.51 0 C74.8 -0.94, 83.96 7.4, 82.79 18.28 M64.51 0 C75.64 -1.74, 81.17 8.34, 82.79 18.28 M82.79 18.28 C82.42 29.37, 81.75 43.25, 82.79 54.83 M82.79 18.28 C83.51 32.02, 83.35 47.89, 82.79 54.83 M82.79 54.83 C83.1 67.36, 76.67 74.49, 64.51 73.11 M82.79 54.83 C83.43 65.26, 75.66 71.19, 64.51 73.11 M64.51 73.11 C45.91 72.91, 30.81 73.62, 18.28 73.11 M64.51 73.11 C52.04 73.04, 40.66 73.43, 18.28 73.11 M18.28 73.11 C6.23 74.5, -1.19 66.39, 0 54.83 M18.28 73.11 C7.14 73.11, 0 65.91, 0 54.83 M0 54.83 C-1.55 40.89, 1.26 29.89, 0 18.28 M0 54.83 C-0.39 45.71, -0.28 37.96, 0 18.28 M0 18.28 C-1.03 4.29, 5.63 -0.57, 18.28 0 M0 18.28 C-0.91 4.46, 4.18 -2.02, 18.28 0" stroke="#1e1e1e" stroke-width="1" fill="none"></path></g><g transform="translate(24.344558715820312 35.171875) rotate(0 27.049972534179688 12.5)"><text x="27.049972534179688" y="0" font-family="Virgil, Segoe UI Emoji" font-size="20px" fill="#1e1e1e" text-anchor="middle" style="white-space: pre;" direction="ltr" dominant-baseline="text-before-edge">Client</text></g><g stroke-linecap="round"><g transform="translate(50.5703125 85.72265625) rotate(0 -0.6020899530017232 172.56747989687133)"><path d="M0.58 0.17 C0.42 57.49, -1.65 287.23, -1.8 344.55 M-0.58 -0.79 C-0.26 56.66, 0.61 288.3, 0.59 345.92" stroke="#1e1e1e" stroke-width="1" fill="none"></path></g><g transform="translate(50.5703125 85.72265625) rotate(0 -0.6020899530017232 172.56747989687133)"><path d="M-9.44 316.74 C-7.73 325.58, -6.17 332.04, -0.94 346.7 M-9.14 318.41 C-7.54 324.99, -4.87 334.68, 0.74 344.96" stroke="#1e1e1e" stroke-width="1" fill="none"></path></g><g transform="translate(50.5703125 85.72265625) rotate(0 -0.6020899530017232 172.56747989687133)"><path d="M11.08 316.69 C8.08 325.64, 4.95 332.12, -0.94 346.7 M11.38 318.36 C7.19 324.87, 4.07 334.56, 0.74 344.96" stroke="#1e1e1e" stroke-width="1" fill="none"></path></g></g><mask></mask><g stroke-linecap="round" transform="translate(411.96875 10) rotate(0 41.39453125 36.5546875)"><path d="M18.28 0 M18.28 0 C29.76 0.41, 39.15 -0.45, 64.51 0 M18.28 0 C33.8 -0.48, 47.58 0.16, 64.51 0 M64.51 0 C75.63 1.94, 81.1 6.98, 82.79 18.28 M64.51 0 C78.27 2.23, 83.01 7.99, 82.79 18.28 M82.79 18.28 C84.56 28.78, 81.52 43.31, 82.79 54.83 M82.79 18.28 C81.61 26.95, 82.98 34.89, 82.79 54.83 M82.79 54.83 C82.36 66.34, 77.98 71.78, 64.51 73.11 M82.79 54.83 C80.79 67.07, 76.6 74.05, 64.51 73.11 M64.51 73.11 C50.43 74.78, 37.3 74.58, 18.28 73.11 M64.51 73.11 C47.55 73.41, 31.39 74.2, 18.28 73.11 M18.28 73.11 C6.85 73.49, 1.09 66.92, 0 54.83 M18.28 73.11 C7.19 74.71, 1.31 64.73, 0 54.83 M0 54.83 C1.96 47.9, 1.37 40.16, 0 18.28 M0 54.83 C-0.1 46.14, -0.97 35.82, 0 18.28 M0 18.28 C-0.47 7.17, 7.81 0.48, 18.28 0 M0 18.28 C1.26 6.24, 8.23 2.2, 18.28 0" stroke="#1e1e1e" stroke-width="1" fill="none"></path></g><g transform="translate(443.38328552246094 34.0546875) rotate(0 9.979995727539062 12.5)"><text x="9.979995727539062" y="0" font-family="Virgil, Segoe UI Emoji" font-size="20px" fill="#1e1e1e" text-anchor="middle" style="white-space: pre;" direction="ltr" dominant-baseline="text-before-edge">B1</text></g><g stroke-linecap="round"><g transform="translate(452.5390625 84.60546875) rotate(0 -1.150839194621767 173.46040124019606)"><path d="M0.24 0.84 C0 58.18, -1.35 287.57, -1.46 345.04 M-1.09 0.24 C-1.51 58.31, -2.6 289.42, -2.54 346.68" stroke="#1e1e1e" stroke-width="1" fill="none"></path></g><g transform="translate(452.5390625 84.60546875) rotate(0 -1.150839194621767 173.46040124019606)"><path d="M-11.33 318.02 C-9.12 328.24, -5 337.28, -2.86 346.95 M-13.58 318.91 C-8.66 329.15, -5.7 338.81, -2.28 347.34" stroke="#1e1e1e" stroke-width="1" fill="none"></path></g><g transform="translate(452.5390625 84.60546875) rotate(0 -1.150839194621767 173.46040124019606)"><path d="M9.19 318.07 C5.23 328.32, 3.19 337.34, -2.86 346.95 M6.94 318.95 C4.72 329.38, 0.54 339.03, -2.28 347.34" stroke="#1e1e1e" stroke-width="1" fill="none"></path></g></g><mask></mask><g stroke-linecap="round" transform="translate(630.82421875 11.484375) rotate(0 41.39453125 36.5546875)"><path d="M18.28 0 M18.28 0 C34.74 -0.63, 47.72 0.64, 64.51 0 M18.28 0 C30.13 1.07, 42.08 0.49, 64.51 0 M64.51 0 C78.34 0.54, 84.11 6.49, 82.79 18.28 M64.51 0 C78.45 -1.67, 81.06 7.39, 82.79 18.28 M82.79 18.28 C80.77 27.27, 83.49 34.79, 82.79 54.83 M82.79 18.28 C82 27.59, 82.69 38.59, 82.79 54.83 M82.79 54.83 C83.61 66.49, 76.68 71.73, 64.51 73.11 M82.79 54.83 C81.14 69.31, 74.51 75.17, 64.51 73.11 M64.51 73.11 C46.83 73.45, 30.74 75.02, 18.28 73.11 M64.51 73.11 C48.83 73.84, 33.94 73.93, 18.28 73.11 M18.28 73.11 C4.1 71.53, -0.66 67.25, 0 54.83 M18.28 73.11 C8.21 74.44, 1.43 68.74, 0 54.83 M0 54.83 C-0.23 46.67, -1.97 35.25, 0 18.28 M0 54.83 C0.04 45.28, -0.14 35.56, 0 18.28 M0 18.28 C1.91 4.52, 7.05 0.03, 18.28 0 M0 18.28 C-2.22 7.52, 3.96 -1.67, 18.28 0" stroke="#1e1e1e" stroke-width="1" fill="none"></path></g><g transform="translate(657.8287582397461 35.5390625) rotate(0 14.389991760253906 12.5)"><text x="14.389991760253906" y="0" font-family="Virgil, Segoe UI Emoji" font-size="20px" fill="#1e1e1e" text-anchor="middle" style="white-space: pre;" direction="ltr" dominant-baseline="text-before-edge">B2</text></g><g stroke-linecap="round"><g transform="translate(671.39453125 86.08984375) rotate(0 -1.0389359284745296 172.31440998740493)"><path d="M-0.19 0.16 C-0.43 57.35, -0.64 286.94, -0.61 344.22 M-1.75 -0.8 C-2.17 57.05, -1.52 287.85, -1.26 345.42" stroke="#1e1e1e" stroke-width="1" fill="none"></path></g><g transform="translate(671.39453125 86.08984375) rotate(0 -1.0389359284745296 172.31440998740493)"><path d="M-11.34 318.22 C-8.6 329.6, -5.41 338.92, 0.1 347.37 M-10.96 317.47 C-7.42 325.23, -5.73 335.23, -1.97 344.53" stroke="#1e1e1e" stroke-width="1" fill="none"></path></g><g transform="translate(671.39453125 86.08984375) rotate(0 -1.0389359284745296 172.31440998740493)"><path d="M9.18 318.16 C4.36 329.52, -0.01 338.86, 0.1 347.37 M9.57 317.4 C6.75 325.24, 2.09 335.26, -1.97 344.53" stroke="#1e1e1e" stroke-width="1" fill="none"></path></g></g><mask></mask><g stroke-linecap="round"><g transform="translate(50.78125 115.52734375) rotate(0 94.78685341218943 11.206573961181562)"><path d="M0.57 0.05 C32.36 3.93, 158.72 18.53, 190.16 22.16 M-0.59 -0.98 C31.17 3.17, 158.15 19.45, 189.66 23.39" stroke="#1e1e1e" stroke-width="1" fill="none"></path></g><g transform="translate(50.78125 115.52734375) rotate(0 94.78685341218943 11.206573961181562)"><path d="M189.64 22.75 L173.65 26.28 L175.57 14.25 L190.97 24.64" stroke="none" stroke-width="0" fill="#1e1e1e" fill-rule="evenodd"></path><path d="M189.71 24.44 C185.3 24.49, 181.32 24.66, 175.7 26.65 M189.18 23.99 C184.12 25.63, 179.06 27.41, 174.76 27.82 M175.66 28.29 C175.55 24.47, 177.63 20.34, 177.08 16.34 M175.28 28.27 C175.35 23.68, 176.47 20.33, 177.15 14.8 M176.44 14.97 C179.93 16.9, 184.41 19.8, 189 21.91 M177.08 15.9 C179.88 16.61, 183.39 18.74, 189.28 23.94 M189.66 23.39 C189.66 23.39, 189.66 23.39, 189.66 23.39 M189.66 23.39 C189.66 23.39, 189.66 23.39, 189.66 23.39" stroke="#1e1e1e" stroke-width="1" fill="none"></path></g></g><mask></mask><g transform="translate(129.2656050737255 97.7491573434205) rotate(10.22950692150939 28.599990844726562 12.5)"><text x="0" y="0" font-family="Virgil, Segoe UI Emoji" font-size="20px" fill="#1e1e1e" text-anchor="start" style="white-space: pre;" direction="ltr" dominant-baseline="text-before-edge">x = 3</text></g><g transform="translate(128.8945113237255 382.2765010934205) rotate(354.04729517190543 28.599990844726562 12.5)"><text x="0" y="0" font-family="Virgil, Segoe UI Emoji" font-size="20px" fill="#1e1e1e" text-anchor="start" style="white-space: pre;" direction="ltr" dominant-baseline="text-before-edge">x = 3</text></g><g stroke-linecap="round"><g transform="translate(239.1328125 156.40625) rotate(0 107.31791967789195 10.702025027573143)"><path d="M0.99 -0.66 C36.59 3.11, 179.17 18.19, 214.58 22.06 M0.06 1.61 C35.41 5.07, 177.68 17.01, 213.64 20.2" stroke="#1e1e1e" stroke-width="1" fill="none"></path></g><g transform="translate(239.1328125 156.40625) rotate(0 107.31791967789195 10.702025027573143)"><path d="M215.25 19.08 L198.96 25 L202.12 11.02 L212.69 19.52" stroke="none" stroke-width="0" fill="#1e1e1e" fill-rule="evenodd"></path><path d="M212.81 20.22 C208.81 20.92, 204.01 24.24, 200.17 25 M213.06 20.03 C208.62 21.75, 204.14 23.43, 200.26 25.22 M199.19 25.92 C199.19 22.57, 199.13 16.93, 199.57 12.18 M200.15 25.1 C200.19 21.14, 199.87 16.42, 200.41 12.8 M200 12.46 C205.24 15.42, 209.15 19.61, 213.35 21.54 M200.86 12.99 C203.94 14.27, 208.09 16.55, 213.08 19.78 M213.64 20.2 C213.64 20.2, 213.64 20.2, 213.64 20.2 M213.64 20.2 C213.64 20.2, 213.64 20.2, 213.64 20.2" stroke="#1e1e1e" stroke-width="1" fill="none"></path></g></g><mask></mask><g stroke-linecap="round"><g transform="translate(238.49609375 156.76171875) rotate(0 216.10790107292132 41.142925355760326)"><path d="M0.36 -0.27 C72.33 13.34, 359.06 68.51, 430.83 82.17 M-0.91 -1.45 C71.52 12.31, 361.33 69.7, 433.13 83.74" stroke="#1e1e1e" stroke-width="1" fill="none"></path></g><g transform="translate(238.49609375 156.76171875) rotate(0 216.10790107292132 41.142925355760326)"><path d="M432.11 81.88 L417.52 86.46 L422.42 74.34 L432.41 83.47" stroke="none" stroke-width="0" fill="#1e1e1e" fill-rule="evenodd"></path><path d="M432.8 82.76 C430.03 83.79, 426.26 85.03, 417.81 86.43 M433.26 84.09 C426.75 85.04, 422.48 86.05, 419.3 87.51 M419.37 88.56 C419.98 83.43, 419.82 80.13, 419.77 75.56 M418.42 87.68 C419.44 82.71, 420.89 77.23, 420.45 75.09 M422.35 74.49 C425.21 78.76, 428.48 80.34, 433 82.53 M420.91 74.23 C425.69 78.1, 429.79 80.65, 433.66 84.3 M433.13 83.74 C433.13 83.74, 433.13 83.74, 433.13 83.74 M433.13 83.74 C433.13 83.74, 433.13 83.74, 433.13 83.74" stroke="#1e1e1e" stroke-width="1" fill="none"></path></g></g><mask></mask><g stroke-linecap="round"><g transform="translate(668.58203125 252.0859375) rotate(0 -214.31110129803437 14.160101966559864)"><path d="M-0.28 0.45 C-71.66 5.26, -357.2 23.41, -428.34 27.87" stroke="#1971c2" stroke-width="1.5" fill="none" stroke-dasharray="8 9"></path></g><g transform="translate(668.58203125 252.0859375) rotate(0 -214.31110129803437 14.160101966559864)"><path d="M-426.92 28.15 L-416.26 20.15 L-414.27 35.28 L-429.76 29.59" stroke="none" stroke-width="0" fill="#1971c2" fill-rule="evenodd"></path><path d="M-427.79 27.48 C-424.31 26.89, -421.25 24.15, -415.49 21.96 M-416.4 20.23 C-414.26 24.34, -415.85 25.93, -415.56 34.25 M-412.98 32.65 C-419.74 32.45, -423.12 30.21, -426.97 27.8 M-428.34 27.87 C-428.34 27.87, -428.34 27.87, -428.34 27.87" stroke="#1971c2" stroke-width="1.5" fill="none"></path></g></g><mask></mask><g stroke-linecap="round"><g transform="translate(449.4765625 185.38671875) rotate(0 -105.41300287693753 17.781096105277527)"><path d="M-0.25 0.44 C-35.38 6.44, -175.4 29.45, -210.57 35.12" stroke="#1971c2" stroke-width="1.5" fill="none" stroke-dasharray="8 9"></path></g><g transform="translate(449.4765625 185.38671875) rotate(0 -105.41300287693753 17.781096105277527)"><path d="M-208.7 33.55 L-196.68 28.39 L-196.57 38.97 L-212.18 33.65" stroke="none" stroke-width="0" fill="#1971c2" fill-rule="evenodd"></path><path d="M-210.02 34.85 C-206.76 31.34, -203.65 29.97, -198.71 26.13 M-197.78 26.96 C-196.11 31.19, -197.11 37.34, -197.26 38.93 M-195.47 38.54 C-202.64 37.25, -206.95 35.5, -210.61 34.35 M-210.57 35.12 C-210.57 35.12, -210.57 35.12, -210.57 35.12" stroke="#1971c2" stroke-width="1.5" fill="none"></path></g></g><mask></mask><g stroke-linecap="round"><g transform="translate(237.05859375 299.6953125) rotate(0 -92.87860570400949 11.900624255836021)"><path d="M0.53 -0.71 C-30.42 3.43, -155.34 20.22, -186.29 24.51" stroke="#1971c2" stroke-width="1.5" fill="none" stroke-dasharray="8 9"></path></g><g transform="translate(237.05859375 299.6953125) rotate(0 -92.87860570400949 11.900624255836021)"><path d="M-184.77 25.86 L-174.08 16.55 L-172.85 28.21 L-187.24 24.03" stroke="none" stroke-width="0" fill="#1971c2" fill-rule="evenodd"></path><path d="M-187.18 24.26 C-183.27 23.55, -179.4 21.46, -173.66 16.12 M-174.8 16.5 C-173.85 21, -173.69 24.28, -173.22 28.37 M-173.18 28.29 C-175.1 27.52, -176.65 26.58, -187.43 24.57 M-186.29 24.51 C-186.29 24.51, -186.29 24.51, -186.29 24.51" stroke="#1971c2" stroke-width="1.5" fill="none"></path></g></g><mask></mask><g stroke-linecap="round"><g transform="translate(50.984375 358.484375) rotate(0 93.34137994681464 0.9032876996230357)"><path d="M0.29 -0.47 C31.27 -0.15, 154.64 1.89, 185.52 2.36 M-1.02 -1.76 C30.36 -1.33, 156.19 2.72, 187.7 3.57" stroke="#1e1e1e" stroke-width="1" fill="none"></path></g><g transform="translate(50.984375 358.484375) rotate(0 93.34137994681464 0.9032876996230357)"><path d="M187.7 4.25 L174.89 10.47 L174.64 -4.11 L188.27 2.17" stroke="none" stroke-width="0" fill="#1e1e1e" fill-rule="evenodd"></path><path d="M187.11 2.29 C183.2 4.05, 179.46 5.54, 173.59 8.5 M187.87 3.06 C183.95 5.62, 180.81 6.55, 174.05 9.7 M174.46 8.58 C174.79 7.18, 174.16 2.59, 175.13 -1.92 M174.1 8.87 C173.87 4.62, 174.91 0.54, 174.32 -2.78 M175.58 -4.18 C178.07 -0.86, 182.82 1.06, 187.34 4.77 M174.69 -3.49 C178.09 -1.82, 181.09 0.23, 187.24 4.3 M187.7 3.57 C187.7 3.57, 187.7 3.57, 187.7 3.57 M187.7 3.57 C187.7 3.57, 187.7 3.57, 187.7 3.57" stroke="#1e1e1e" stroke-width="1" fill="none"></path></g></g><mask></mask><g transform="translate(123.92578125 332.0859375) rotate(0 26.449989318847656 12.5)"><text x="0" y="0" font-family="Virgil, Segoe UI Emoji" font-size="20px" fill="#1e1e1e" text-anchor="start" style="white-space: pre;" direction="ltr" dominant-baseline="text-before-edge">x = ?</text></g><g stroke-linecap="round"><g transform="translate(239.10546875 371.41015625) rotate(0 -93.48130421759106 7.552708002654811)"><path d="M0.6 -0.48 C-30.47 2.29, -155.48 12.75, -186.6 15.56 M-0.54 -1.78 C-31.76 1.26, -156.54 14.22, -187.56 16.89" stroke="#1e1e1e" stroke-width="1" fill="none"></path></g><g transform="translate(239.10546875 371.41015625) rotate(0 -93.48130421759106 7.552708002654811)"><path d="M-187.65 14.95 L-175.68 8.13 L-172.83 21.3 L-186.91 17.46" stroke="none" stroke-width="0" fill="#1e1e1e" fill-rule="evenodd"></path><path d="M-188.17 16.85 C-184.32 15.2, -179.66 11.83, -175.81 8.37 M-186.98 17.37 C-182.43 13.51, -178.03 10.9, -174.95 9.05 M-175.41 9.96 C-173.76 12.4, -174.76 15.91, -172.75 21.51 M-175.14 9.19 C-173.65 11.59, -174.05 15.34, -173.52 21.81 M-172.68 22.95 C-178.47 18.96, -183.14 19.74, -188.93 16.66 M-173.87 21.53 C-177.5 20.89, -182.21 18.43, -187.68 17.3 M-187.56 16.89 C-187.56 16.89, -187.56 16.89, -187.56 16.89 M-187.56 16.89 C-187.56 16.89, -187.56 16.89, -187.56 16.89" stroke="#1e1e1e" stroke-width="1" fill="none"></path></g></g><mask></mask><g transform="translate(253.9140625 295.875) rotate(0 62.13993835449219 12.5)"><text x="0" y="0" font-family="Virgil, Segoe UI Emoji" font-size="20px" fill="#2f9e44" text-anchor="start" style="white-space: pre;" direction="ltr" dominant-baseline="text-before-edge">Commit Point</text></g></svg>
