<svg version="1.1" xmlns="http://www.w3.org/2000/svg" viewBox="0 0 579.0917968749998 345.7806914368023" width="579.0917968749998" height="345.7806914368023" filter="invert(100%) hue-rotate(180deg)">
  <!-- svg-source:excalidraw -->
  
  <defs>
    <style class="style-fonts">
      @font-face {
        font-family: "Virgil";
        src: url("https://excalidraw.com/Virgil.woff2");
      }
      @font-face {
        font-family: "Cascadia";
        src: url("https://excalidraw.com/Cascadia.woff2");
      }
    </style>
    
  </defs>
  <rect x="0" y="0" width="579.0917968749998" height="345.7806914368023" fill="#ffffff"></rect><g stroke-linecap="round" transform="translate(10 10) rotate(0 39.13248697916663 31.61295572916667)"><path d="M15.81 0 M15.81 0 C27.11 -0.07, 41.88 -0.91, 62.46 0 M15.81 0 C32.3 -0.43, 47.7 0.83, 62.46 0 M62.46 0 C72.44 -1.32, 77.73 6.86, 78.26 15.81 M62.46 0 C74.03 1.5, 79.44 3.79, 78.26 15.81 M78.26 15.81 C77.73 24.49, 77.06 29.21, 78.26 47.42 M78.26 15.81 C77.22 25.7, 78.81 36.18, 78.26 47.42 M78.26 47.42 C78.69 59.77, 73.96 64.38, 62.46 63.23 M78.26 47.42 C78 56.18, 73.75 65.21, 62.46 63.23 M62.46 63.23 C49.47 63.74, 36.53 62.75, 15.81 63.23 M62.46 63.23 C49.47 62.49, 35.25 62.75, 15.81 63.23 M15.81 63.23 C4.33 62.84, -1.57 59.24, 0 47.42 M15.81 63.23 C3 63.44, 1.44 57.27, 0 47.42 M0 47.42 C0.95 35.56, -0.6 25.32, 0 15.81 M0 47.42 C-1.15 37.98, 0.58 30.98, 0 15.81 M0 15.81 C0.25 4.83, 6.49 -0.6, 15.81 0 M0 15.81 C-0.97 4.35, 5.39 -1.12, 15.81 0" stroke="#1e1e1e" stroke-width="1" fill="none"></path></g><g transform="translate(35.81249491373683 29.112955729166657) rotate(0 13.319992065429688 12.5)"><text x="13.319992065429688" y="0" font-family="Virgil, Segoe UI Emoji" font-size="20px" fill="#1e1e1e" text-anchor="middle" style="white-space: pre;" direction="ltr" dominant-baseline="text-before-edge">N0</text></g><g stroke-linecap="round"><g transform="translate(50.348307291666515 73.16080729166666) rotate(0 -1.7133166113246716 130.70836042525866)"><path d="M0.44 0.72 C-0.38 44.18, -3.3 216.55, -3.86 259.81 M-0.79 0.06 C-1.32 43.8, -1.09 218.34, -1.57 261.36" stroke="#1e1e1e" stroke-width="1" fill="none"></path></g><g transform="translate(50.348307291666515 73.16080729166666) rotate(0 -1.7133166113246716 130.70836042525866)"><path d="M-10.51 231.79 C-7.95 244.21, -3.27 253.57, -0.53 260.84 M-12.41 233.11 C-8.13 244.01, -4.81 254.25, -1.93 261.97" stroke="#1e1e1e" stroke-width="1" fill="none"></path></g><g transform="translate(50.348307291666515 73.16080729166666) rotate(0 -1.7133166113246716 130.70836042525866)"><path d="M10.01 231.88 C4.61 244.33, 1.33 253.67, -0.53 260.84 M8.11 233.19 C4.5 244.12, -0.08 254.33, -1.93 261.97" stroke="#1e1e1e" stroke-width="1" fill="none"></path></g></g><mask></mask><g stroke-linecap="round" transform="translate(182.32747395833326 10.72265625) rotate(0 39.13248697916663 31.61295572916667)"><path d="M15.81 0 M15.81 0 C27.56 0.95, 40.27 -0.96, 62.46 0 M15.81 0 C29.42 -1.26, 42.48 -0.52, 62.46 0 M62.46 0 C71.31 1.39, 77.57 5.02, 78.26 15.81 M62.46 0 C73.11 1.2, 80.23 3.3, 78.26 15.81 M78.26 15.81 C76.48 24.05, 77.85 36.08, 78.26 47.42 M78.26 15.81 C77.83 23.05, 77.64 33.04, 78.26 47.42 M78.26 47.42 C76.71 58.49, 72.73 61.42, 62.46 63.23 M78.26 47.42 C76.64 56.12, 71.83 64.44, 62.46 63.23 M62.46 63.23 C45.36 64.27, 24.8 63.83, 15.81 63.23 M62.46 63.23 C48.48 64.53, 33.07 64.24, 15.81 63.23 M15.81 63.23 C4.65 63.8, 1.47 56.57, 0 47.42 M15.81 63.23 C6.4 63.25, -1.44 58.7, 0 47.42 M0 47.42 C-1.16 36.66, -1.63 25.54, 0 15.81 M0 47.42 C0.83 41.21, -0.42 33.15, 0 15.81 M0 15.81 C0.04 4.76, 4 0.81, 15.81 0 M0 15.81 C0.06 6.65, 7.2 -0.5, 15.81 0" stroke="#1e1e1e" stroke-width="1" fill="none"></path></g><g transform="translate(212.30996704101562 29.835611979166657) rotate(0 9.149993896484375 12.5)"><text x="9.149993896484375" y="0" font-family="Virgil, Segoe UI Emoji" font-size="20px" fill="#1e1e1e" text-anchor="middle" style="white-space: pre;" direction="ltr" dominant-baseline="text-before-edge">N1</text></g><g stroke-linecap="round"><g transform="translate(222.67578124999977 74.22526041666666) rotate(0 -1.994209605057904 130.73213413926462)"><path d="M0.7 0.94 C0.02 44.18, -2.88 216.29, -3.51 259.63 M-0.39 0.38 C-1.32 43.8, -4.11 217.94, -4.69 261.08" stroke="#1e1e1e" stroke-width="1" fill="none"></path></g><g transform="translate(222.67578124999977 74.22526041666666) rotate(0 -1.994209605057904 130.73213413926462)"><path d="M-12.97 232 C-11.32 242.49, -5.67 252.81, -6.28 260.82 M-14.87 232.62 C-11.82 241.52, -8.13 248.46, -4.58 260.54" stroke="#1e1e1e" stroke-width="1" fill="none"></path></g><g transform="translate(222.67578124999977 74.22526041666666) rotate(0 -1.994209605057904 130.73213413926462)"><path d="M7.55 232.31 C2.07 242.81, 0.57 253.03, -6.28 260.82 M5.65 232.92 C2.67 241.88, 0.34 248.73, -4.58 260.54" stroke="#1e1e1e" stroke-width="1" fill="none"></path></g></g><mask></mask><g stroke-linecap="round" transform="translate(337.3307291666665 10.305989583333343) rotate(0 39.13248697916663 31.612955729166686)"><path d="M15.81 0 M15.81 0 C25.58 1.54, 34.25 2.08, 62.46 0 M15.81 0 C28.82 -0.65, 43.84 -0.71, 62.46 0 M62.46 0 C71.81 1.57, 79.42 6.65, 78.26 15.81 M62.46 0 C72.71 0.54, 80.09 7.54, 78.26 15.81 M78.26 15.81 C77.17 22.99, 77.93 29.34, 78.26 47.42 M78.26 15.81 C79.12 22.74, 78.09 29.21, 78.26 47.42 M78.26 47.42 C77.95 58.61, 72.74 64.62, 62.46 63.23 M78.26 47.42 C80.08 59.47, 72.48 64.4, 62.46 63.23 M62.46 63.23 C48.28 62.73, 31.44 62.47, 15.81 63.23 M62.46 63.23 C47.33 63.48, 31.25 63.02, 15.81 63.23 M15.81 63.23 C4.09 64.79, 0.28 56.46, 0 47.42 M15.81 63.23 C7.46 65.42, 1.59 59.02, 0 47.42 M0 47.42 C-1.49 41, 0 33.57, 0 15.81 M0 47.42 C-0.73 37.11, 0.22 27.1, 0 15.81 M0 15.81 C-1.4 5.88, 6.62 0.87, 15.81 0 M0 15.81 C0.99 7.56, 5.32 -1.5, 15.81 0" stroke="#1e1e1e" stroke-width="1" fill="none"></path></g><g transform="translate(362.9032262166338 29.41894531250003) rotate(0 13.559989929199219 12.5)"><text x="13.559989929199219" y="0" font-family="Virgil, Segoe UI Emoji" font-size="20px" fill="#1e1e1e" text-anchor="middle" style="white-space: pre;" direction="ltr" dominant-baseline="text-before-edge">N2</text></g><g stroke-linecap="round"><g transform="translate(377.3404947916665 73.46679687499997) rotate(0 -0.7891526857514464 130.34199515099328)"><path d="M0.77 -0.57 C0.55 42.71, -1.46 216.36, -1.97 259.74 M-0.29 1.75 C-0.51 45.23, -1.96 218.05, -2.34 261.25" stroke="#1e1e1e" stroke-width="1" fill="none"></path></g><g transform="translate(377.3404947916665 73.46679687499997) rotate(0 -0.7891526857514464 130.34199515099328)"><path d="M-13.31 234.8 C-9.98 241.14, -7.64 245.08, -3.73 261.98 M-11.79 233.66 C-10.4 239.49, -7.23 246.61, -3.33 260.84" stroke="#1e1e1e" stroke-width="1" fill="none"></path></g><g transform="translate(377.3404947916665 73.46679687499997) rotate(0 -0.7891526857514464 130.34199515099328)"><path d="M7.21 234.97 C5.54 241.4, 2.87 245.3, -3.73 261.98 M8.73 233.84 C5.5 239.79, 4.06 246.87, -3.33 260.84" stroke="#1e1e1e" stroke-width="1" fill="none"></path></g></g><mask></mask><g stroke-linecap="round" transform="translate(490.8268229166665 11.848958333333343) rotate(0 39.13248697916663 31.612955729166686)"><path d="M15.81 0 M15.81 0 C24.99 -0.74, 38.63 1.19, 62.46 0 M15.81 0 C32.84 0.36, 51.59 0.46, 62.46 0 M62.46 0 C74.03 0.02, 78.8 5.04, 78.26 15.81 M62.46 0 C73.18 -2.12, 79.21 4.6, 78.26 15.81 M78.26 15.81 C76.65 21.53, 76.81 28.15, 78.26 47.42 M78.26 15.81 C77.75 23.43, 77.7 31.96, 78.26 47.42 M78.26 47.42 C79.38 57.17, 73.85 61.72, 62.46 63.23 M78.26 47.42 C77.65 59.6, 70.74 65.42, 62.46 63.23 M62.46 63.23 C52.48 63.5, 41.58 61.26, 15.81 63.23 M62.46 63.23 C48.49 64.48, 34.54 64.35, 15.81 63.23 M15.81 63.23 C5.86 64.5, 0.41 57.92, 0 47.42 M15.81 63.23 C7.18 61.82, -0.52 56.05, 0 47.42 M0 47.42 C-0.7 33.94, 1.26 21.04, 0 15.81 M0 47.42 C-0.23 41.03, -0.21 32.35, 0 15.81 M0 15.81 C-0.83 4.04, 6.7 -0.69, 15.81 0 M0 15.81 C-1.38 7.13, 5.91 0.09, 15.81 0" stroke="#1e1e1e" stroke-width="1" fill="none"></path></g><g transform="translate(516.7093175252276 30.96191406250003) rotate(0 13.249992370605469 12.5)"><text x="13.249992370605469" y="0" font-family="Virgil, Segoe UI Emoji" font-size="20px" fill="#1e1e1e" text-anchor="middle" style="white-space: pre;" direction="ltr" dominant-baseline="text-before-edge">N3</text></g><g stroke-linecap="round"><g transform="translate(530.8365885416665 75.00976562499997) rotate(0 -0.977441827182929 130.1676629934708)"><path d="M-0.63 0.4 C-0.92 44.05, -1.98 217.35, -2.53 260.77 M1.25 -0.44 C0.91 43, -2.75 215.9, -3.2 259.17" stroke="#1e1e1e" stroke-width="1" fill="none"></path></g><g transform="translate(530.8365885416665 75.00976562499997) rotate(0 -0.977441827182929 130.1676629934708)"><path d="M-12.33 231.7 C-9.32 236.1, -6.76 242.52, -1.59 259.33 M-12.73 230.7 C-8.95 240.96, -4.79 252.66, -4.09 258.42" stroke="#1e1e1e" stroke-width="1" fill="none"></path></g><g transform="translate(530.8365885416665 75.00976562499997) rotate(0 -0.977441827182929 130.1676629934708)"><path d="M8.19 232.03 C6.39 236.25, 4.13 242.6, -1.59 259.33 M7.79 231.03 C3.56 241.17, -0.3 252.74, -4.09 258.42" stroke="#1e1e1e" stroke-width="1" fill="none"></path></g></g><mask></mask><g stroke-linecap="round"><g transform="translate(51.00260416666674 125.01627604166666) rotate(0 85.3445798177271 9.259682036827655)"><path d="M-0.27 -0.69 C28.16 2.23, 142.53 14.85, 170.96 17.97 M1.79 1.57 C30.04 4.59, 142.15 16.28, 170.07 19.21" stroke="#1e1e1e" stroke-width="1" fill="none"></path></g><g transform="translate(51.00260416666674 125.01627604166666) rotate(0 85.3445798177271 9.259682036827655)"><path d="M168.66 19.88 L156.13 22.48 L158.27 13.35 L168.76 19.79" stroke="none" stroke-width="0" fill="#1e1e1e" fill-rule="evenodd"></path><path d="M169.21 19.33 C164.67 20.14, 160.1 21.48, 154.7 24.62 M170.65 18.68 C164.79 20.99, 161.37 21.8, 155.3 24.54 M154.8 23.14 C155.52 20.23, 157.52 17.11, 158.42 12.17 M155.89 24.67 C156.63 20.76, 156.36 18.72, 157.48 11.71 M157.33 12.83 C159.69 14.71, 164.01 14.61, 169.4 17.97 M156.86 11.13 C160.45 14.45, 164.99 16.37, 170.26 19.94 M170.07 19.21 C170.07 19.21, 170.07 19.21, 170.07 19.21 M170.07 19.21 C170.07 19.21, 170.07 19.21, 170.07 19.21" stroke="#1e1e1e" stroke-width="1" fill="none"></path></g></g><mask></mask><g stroke-linecap="round"><g transform="translate(50.856119791666515 127.34375000000003) rotate(0 162.39782953208635 59.3505021884944)"><path d="M1.05 0.51 C55.24 20.49, 270.62 99.5, 324.66 118.96 M0.14 -0.26 C54.24 19.48, 269.71 97.64, 323.83 117.4" stroke="#1e1e1e" stroke-width="1" fill="none"></path></g><g transform="translate(50.856119791666515 127.34375000000003) rotate(0 162.39782953208635 59.3505021884944)"><path d="M322.79 116.86 L309.89 118.86 L313.96 107.73 L325.2 116.58" stroke="none" stroke-width="0" fill="#1e1e1e" fill-rule="evenodd"></path><path d="M324.48 117.7 C321.29 118.9, 315.36 119.41, 307.82 117.43 M323.3 117.9 C320.72 118.39, 317.07 118.33, 308.2 118.87 M309.52 119.66 C310.49 115.71, 311.03 112.2, 312.38 107.43 M308.26 118.63 C309.77 113.83, 311.6 110.16, 312.62 106.62 M312.54 105.75 C316.89 108.83, 318.23 110.41, 325.27 118.27 M312.98 106.28 C316.62 109.48, 319.23 114.1, 324.23 116.88 M323.83 117.4 C323.83 117.4, 323.83 117.4, 323.83 117.4 M323.83 117.4 C323.83 117.4, 323.83 117.4, 323.83 117.4" stroke="#1e1e1e" stroke-width="1" fill="none"></path></g></g><mask></mask><g transform="translate(25.15625 109.27408854166666) rotate(0 9.039993286132812 12.5)"><text x="0" y="0" font-family="Virgil, Segoe UI Emoji" font-size="20px" fill="#1971c2" text-anchor="start" style="white-space: pre;" direction="ltr" dominant-baseline="text-before-edge">m1</text></g><g transform="translate(538.9283854166665 118.38281249999991) rotate(0 13.449989318847656 12.5)"><text x="0" y="0" font-family="Virgil, Segoe UI Emoji" font-size="20px" fill="#1971c2" text-anchor="start" style="white-space: pre;" direction="ltr" dominant-baseline="text-before-edge">m2</text></g><g stroke-linecap="round"><g transform="translate(530.5026041666665 134.26171874999991) rotate(0 -74.87410605459479 10.801470565255755)"><path d="M-0.28 0.44 C-25.66 4.02, -126.26 17.11, -151.52 20.83 M1.77 -0.38 C-23.29 3.4, -123.95 18.41, -149.16 21.98" stroke="#1e1e1e" stroke-width="1" fill="none"></path></g><g transform="translate(530.5026041666665 134.26171874999991) rotate(0 -74.87410605459479 10.801470565255755)"><path d="M-150.55 23.09 L-135.92 15.37 L-133.52 27.05 L-148.14 20.34" stroke="none" stroke-width="0" fill="#1e1e1e" fill-rule="evenodd"></path><path d="M-148.61 21.15 C-145.46 17.8, -138.48 15.46, -135.87 14.24 M-148.5 22.37 C-144.11 18.87, -139.54 14.97, -136.67 13.71 M-136.6 14.18 C-135.38 17.96, -135.32 22.78, -133.6 25.7 M-136.92 13.63 C-135.53 17.93, -135.18 23.15, -134.53 26.69 M-133.74 25.67 C-139.06 23.59, -143.65 25, -148.24 20.7 M-135.03 26.54 C-139.58 24.55, -144.62 23.38, -148.98 22.28 M-149.16 21.98 C-149.16 21.98, -149.16 21.98, -149.16 21.98 M-149.16 21.98 C-149.16 21.98, -149.16 21.98, -149.16 21.98" stroke="#1e1e1e" stroke-width="1" fill="none"></path></g></g><mask></mask><g stroke-linecap="round"><g transform="translate(530.3776041666665 134.82031249999991) rotate(0 -156.1365645606071 55.22730246469379)"><path d="M-0.09 -0.65 C-52.06 17.51, -260.31 91.36, -312.18 109.6 M-1.6 1.63 C-53.15 19.92, -258.14 93.1, -309.89 111.1" stroke="#1e1e1e" stroke-width="1" fill="none"></path></g><g transform="translate(530.3776041666665 134.82031249999991) rotate(0 -156.1365645606071 55.22730246469379)"><path d="M-311.43 112.53 L-300.2 101.74 L-295.04 113.36 L-310.28 109.29" stroke="none" stroke-width="0" fill="#1e1e1e" fill-rule="evenodd"></path><path d="M-310.7 110.11 C-307.15 108.32, -305.26 106.47, -300.06 100.98 M-309.32 110.42 C-305.49 106.68, -302.31 103.12, -298.84 100.07 M-298.38 101.08 C-296.99 103.77, -296.32 108.55, -295.17 111.58 M-299.31 100.5 C-297.77 103.79, -296.98 107.16, -295.24 111.92 M-296.07 113.82 C-298.06 110.83, -303.14 110.98, -311.03 111.14 M-295.41 112.87 C-299.03 111.72, -303.11 112.09, -309.51 111.07 M-309.89 111.1 C-309.89 111.1, -309.89 111.1, -309.89 111.1 M-309.89 111.1 C-309.89 111.1, -309.89 111.1, -309.89 111.1" stroke="#1e1e1e" stroke-width="1" fill="none"></path></g></g><mask></mask></svg>
