<svg version="1.1" xmlns="http://www.w3.org/2000/svg" viewBox="0 0 651.9901428222649 602.7358549699745" width="651.9901428222649" height="602.7358549699745" filter="invert(100%) hue-rotate(180deg)">
  <!-- svg-source:excalidraw -->
  
  <defs>
    <style class="style-fonts">
      @font-face {
        font-family: "Virgil";
        src: url("https://excalidraw.com/Virgil.woff2");
      }
      @font-face {
        font-family: "Cascadia";
        src: url("https://excalidraw.com/Cascadia.woff2");
      }
    </style>
    
  </defs>
  <rect x="0" y="0" width="651.9901428222649" height="602.7358549699745" fill="#ffffff"></rect><g stroke-linecap="round" transform="translate(41.786402384439725 12.51953125) rotate(0 58.5 45)"><path d="M22.5 0 M22.5 0 C45.56 -1.45, 70.61 0.66, 94.5 0 M22.5 0 C40.14 -0.94, 57.31 -0.47, 94.5 0 M94.5 0 C109.46 -0.43, 116.83 6.79, 117 22.5 M94.5 0 C107.58 1.14, 116.17 6.06, 117 22.5 M117 22.5 C118.01 37.26, 116.16 47.53, 117 67.5 M117 22.5 C116.65 39.72, 117.64 55.61, 117 67.5 M117 67.5 C117.83 81.72, 111.17 89.36, 94.5 90 M117 67.5 C118.75 83.77, 109.39 90.78, 94.5 90 M94.5 90 C73.53 89.63, 53.94 91.68, 22.5 90 M94.5 90 C69.64 89.73, 43.99 89.74, 22.5 90 M22.5 90 C8.37 91.51, 1.06 80.64, 0 67.5 M22.5 90 C6.31 91.12, -0.32 84.15, 0 67.5 M0 67.5 C1.54 56.79, -0.93 44.86, 0 22.5 M0 67.5 C0.51 55.78, -0.41 44.61, 0 22.5 M0 22.5 C1.28 7.25, 8.74 0.02, 22.5 0 M0 22.5 C-0.88 9.5, 9.76 -1.59, 22.5 0" stroke="#1e1e1e" stroke-width="1" fill="none"></path></g><g transform="translate(78.41642252604129 45.01953125) rotate(0 21.869979858398438 12.5)"><text x="21.869979858398438" y="0" font-family="Virgil, Segoe UI Emoji" font-size="20px" fill="#1e1e1e" text-anchor="middle" style="white-space: pre;" direction="ltr" dominant-baseline="text-before-edge">Alice</text></g><g stroke-linecap="round"><g transform="translate(103.95437113443973 102.53515625) rotate(0 -2.0955437010434252 244.3500623006187)"><path d="M0.98 -0.3 C0.22 81.09, -3.78 407.16, -4.84 489.01 M0.03 -1.5 C-0.76 79.98, -4.2 408.44, -5.17 490.2" stroke="#1e1e1e" stroke-width="1" fill="none"></path></g><g transform="translate(103.95437113443973 102.53515625) rotate(0 -2.0955437010434252 244.3500623006187)"><path d="M-15.61 463.86 C-13.31 470.75, -7.53 476.89, -5.77 490.75 M-16.11 462.8 C-12.91 470.8, -9.85 478.76, -5.7 490.69" stroke="#1e1e1e" stroke-width="1" fill="none"></path></g><g transform="translate(103.95437113443973 102.53515625) rotate(0 -2.0955437010434252 244.3500623006187)"><path d="M4.9 464.09 C1.54 471.08, 1.64 477.16, -5.77 490.75 M4.41 463.03 C1.7 471.01, -1.14 478.91, -5.7 490.69" stroke="#1e1e1e" stroke-width="1" fill="none"></path></g></g><mask></mask><g stroke-linecap="round" transform="translate(264.9348398844397 10.79296875) rotate(0 58.5 45)"><path d="M22.5 0 M22.5 0 C39.54 1.38, 61.87 0.79, 94.5 0 M22.5 0 C39.27 -0.21, 57.34 -1.09, 94.5 0 M94.5 0 C110.13 -0.57, 117.24 8.47, 117 22.5 M94.5 0 C107.9 0.45, 118.33 9.05, 117 22.5 M117 22.5 C117.15 34.57, 118.18 44.7, 117 67.5 M117 22.5 C116.92 34.43, 117.51 46.36, 117 67.5 M117 67.5 C117.92 82.72, 107.85 88.92, 94.5 90 M117 67.5 C115.8 82.67, 108.04 90.97, 94.5 90 M94.5 90 C67.39 89.5, 40.66 88.83, 22.5 90 M94.5 90 C71.68 89.87, 48.78 89.8, 22.5 90 M22.5 90 C5.54 89.92, -1.81 81.54, 0 67.5 M22.5 90 C7.35 90.78, -0.48 82.63, 0 67.5 M0 67.5 C1.05 51.09, -1.24 32.44, 0 22.5 M0 67.5 C0.13 53.61, -0.95 39.89, 0 22.5 M0 22.5 C0.2 8.93, 9.36 1.4, 22.5 0 M0 22.5 C0.77 8.56, 9.28 0.76, 22.5 0" stroke="#1e1e1e" stroke-width="1" fill="none"></path></g><g transform="translate(305.54485575358035 43.29296875) rotate(0 17.889984130859375 12.5)"><text x="17.889984130859375" y="0" font-family="Virgil, Segoe UI Emoji" font-size="20px" fill="#1e1e1e" text-anchor="middle" style="white-space: pre;" direction="ltr" dominant-baseline="text-before-edge">Bob</text></g><g stroke-linecap="round"><g transform="translate(327.1028086344397 100.80859375) rotate(0 -2.4027970883249736 245.29758383743467)"><path d="M1.07 1.02 C0.07 82.69, -4.04 407.45, -5.3 488.93 M0.17 0.51 C-0.98 82.41, -4.6 408.27, -5.87 490.09" stroke="#1e1e1e" stroke-width="1" fill="none"></path></g><g transform="translate(327.1028086344397 100.80859375) rotate(0 -2.4027970883249736 245.29758383743467)"><path d="M-14.07 462.96 C-13.72 471.01, -8.53 481, -5.96 490.96 M-15.65 462.25 C-14.33 467.85, -11 474.19, -6.23 490.62" stroke="#1e1e1e" stroke-width="1" fill="none"></path></g><g transform="translate(327.1028086344397 100.80859375) rotate(0 -2.4027970883249736 245.29758383743467)"><path d="M6.45 463.22 C-0.51 471.36, -2.62 481.26, -5.96 490.96 M4.87 462.52 C1.95 468.01, 1.02 474.29, -6.23 490.62" stroke="#1e1e1e" stroke-width="1" fill="none"></path></g></g><mask></mask><g stroke-linecap="round" transform="translate(495.3645273844397 10) rotate(0 58.5 45)"><path d="M22.5 0 M22.5 0 C38.84 -0.25, 57.77 -2.02, 94.5 0 M22.5 0 C46.85 -0.78, 70.44 0.49, 94.5 0 M94.5 0 C110.85 -0.71, 118.07 7.26, 117 22.5 M94.5 0 C109.39 0.2, 118.08 5.68, 117 22.5 M117 22.5 C116.83 34.01, 118.01 45.52, 117 67.5 M117 22.5 C116.51 37.55, 117.12 53.01, 117 67.5 M117 67.5 C117.85 83.95, 108.19 88.06, 94.5 90 M117 67.5 C116.66 82.72, 109.25 89.46, 94.5 90 M94.5 90 C71.48 89.18, 48.31 89.03, 22.5 90 M94.5 90 C79.48 89.28, 65.77 89.14, 22.5 90 M22.5 90 C7.61 91.41, -1.45 80.95, 0 67.5 M22.5 90 C8.33 90.3, -1.8 80.53, 0 67.5 M0 67.5 C0.56 53.51, -1.6 39.85, 0 22.5 M0 67.5 C0.38 53.88, 0.14 40.36, 0 22.5 M0 22.5 C0.66 6.36, 5.92 -0.25, 22.5 0 M0 22.5 C0.8 9.42, 7.8 -0.29, 22.5 0" stroke="#1e1e1e" stroke-width="1" fill="none"></path></g><g transform="translate(528.2845484415686 42.5) rotate(0 25.579978942871094 12.5)"><text x="25.579978942871094" y="0" font-family="Virgil, Segoe UI Emoji" font-size="20px" fill="#1e1e1e" text-anchor="middle" style="white-space: pre;" direction="ltr" dominant-baseline="text-before-edge">Carol</text></g><g stroke-linecap="round"><g transform="translate(557.3895893140404 101) rotate(0 -4.334120397084575 244.4081293328013)"><path d="M-0.05 0.52 C-1.53 82.12, -7.32 407.68, -8.61 489.06 M-1.54 -0.25 C-2.69 81.02, -5.28 405.39, -6.49 487.14" stroke="#1e1e1e" stroke-width="1" fill="none"></path></g><g transform="translate(557.3895893140404 101) rotate(0 -4.334120397084575 244.4081293328013)"><path d="M-15.56 456.98 C-12.72 467.39, -9.91 478.05, -7.88 487.53 M-15.91 458.71 C-12.73 469.09, -8.65 478.34, -6.74 487.17" stroke="#1e1e1e" stroke-width="1" fill="none"></path></g><g transform="translate(557.3895893140404 101) rotate(0 -4.334120397084575 244.4081293328013)"><path d="M4.96 457.2 C1.18 467.54, -2.62 478.12, -7.88 487.53 M4.61 458.94 C0.44 469.16, -2.83 478.34, -6.74 487.17" stroke="#1e1e1e" stroke-width="1" fill="none"></path></g></g><mask></mask><g stroke-linecap="round"><g transform="translate(555.8059336344397 138.2421875) rotate(0 -113.36738538479437 23.52196527405644)"><path d="M-0.69 -0.88 C-38.5 6.8, -189.22 38.52, -226.75 46.58 M1.15 1.27 C-36.86 9.07, -189.97 40.57, -227.88 47.93" stroke="#1e1e1e" stroke-width="1" fill="none"></path></g><g transform="translate(555.8059336344397 138.2421875) rotate(0 -113.36738538479437 23.52196527405644)"><path d="M-227.57 46.67 L-214.08 39.61 L-213 50.26 L-228.59 47.23" stroke="none" stroke-width="0" fill="#1e1e1e" fill-rule="evenodd"></path><path d="M-228.99 47.48 C-224.63 45.89, -219.73 42.78, -215.48 39.69 M-227.95 48.6 C-223.75 44.78, -220.08 41.88, -215.61 38.39 M-214.89 37.82 C-213.99 42.43, -215.57 44.96, -212.23 52.58 M-216.26 39 C-215.7 41.73, -214.51 44.78, -213.66 51.36 M-213.91 52.29 C-217.25 49.68, -224.8 49.37, -226.76 46.88 M-213.47 52.16 C-217.43 50.73, -222.63 49.45, -227.93 47.99 M-227.88 47.93 C-227.88 47.93, -227.88 47.93, -227.88 47.93 M-227.88 47.93 C-227.88 47.93, -227.88 47.93, -227.88 47.93" stroke="#1e1e1e" stroke-width="1" fill="none"></path></g></g><mask></mask><g stroke-linecap="round"><g transform="translate(326.7043711344397 216.6015625) rotate(0 -110.968329232987 20.356151171615323)"><path d="M-1.02 0.98 C-37.86 7.72, -184.75 33.69, -221.72 40.26 M0.65 0.45 C-36.29 6.85, -185.74 32.09, -222.59 38.42" stroke="#1e1e1e" stroke-width="1" fill="none"></path></g><g transform="translate(326.7043711344397 216.6015625) rotate(0 -110.968329232987 20.356151171615323)"><path d="M-221.47 38.92 L-210.23 28.51 L-208.99 42.38 L-222.51 39.39" stroke="none" stroke-width="0" fill="#1e1e1e" fill-rule="evenodd"></path><path d="M-221.36 38.6 C-218.87 35.23, -215.65 34.6, -210.93 30.84 M-222.16 38.43 C-218.15 35.5, -215.79 33.6, -209.96 29.19 M-211.44 28.92 C-208.36 35.07, -208.33 39.29, -207.43 42.32 M-209.9 29.76 C-209.76 34.49, -209.21 38.16, -208.35 43.01 M-207.16 43.23 C-212.02 39.94, -218.57 38.94, -222.98 37.5 M-208.52 41.66 C-212.18 40.59, -216.73 39.83, -221.87 37.82 M-222.59 38.42 C-222.59 38.42, -222.59 38.42, -222.59 38.42 M-222.59 38.42 C-222.59 38.42, -222.59 38.42, -222.59 38.42" stroke="#1e1e1e" stroke-width="1" fill="none"></path></g></g><mask></mask><g stroke-linecap="round"><g transform="translate(324.2864023844397 247.14453125) rotate(0 113.64190035276124 30.40017431078425)"><path d="M-1.2 -0.2 C37.04 9.77, 190.13 50.37, 228.48 60.63 M0.37 -1.36 C38.5 8.75, 189.36 52.04, 227.33 62.16" stroke="#1e1e1e" stroke-width="1" fill="none"></path></g><g transform="translate(324.2864023844397 247.14453125) rotate(0 113.64190035276124 30.40017431078425)"><path d="M229.26 62.8 L212.57 66.22 L214.72 52.6 L225.87 60.18" stroke="none" stroke-width="0" fill="#1e1e1e" fill-rule="evenodd"></path><path d="M227.08 61.67 C224.06 62.65, 221.65 63.48, 212.55 63.59 M227.7 61.85 C222.86 63.18, 219.74 64.17, 212.46 64.58 M212.53 65.57 C212.63 61.97, 214.89 58.91, 216.09 53.66 M212.39 64.54 C214.23 60.71, 214.06 57.2, 216.26 52.97 M214.43 53.87 C219.61 54.77, 219.47 57.03, 227.93 63.63 M215.37 51.8 C218.92 54.24, 221.98 57.61, 226.71 62.68 M227.33 62.16 C227.33 62.16, 227.33 62.16, 227.33 62.16 M227.33 62.16 C227.33 62.16, 227.33 62.16, 227.33 62.16" stroke="#1e1e1e" stroke-width="1" fill="none"></path></g></g><mask></mask><g stroke-linecap="round"><g transform="translate(102.03249613443973 354.4140625) rotate(0 109.64687496609986 15.73742610625925)"><path d="M-0.78 -1 C36.04 4.43, 183.5 26.9, 220.07 32.47 M1.01 1.09 C37.8 6.16, 182.73 25.69, 219.41 30.56" stroke="#1e1e1e" stroke-width="1" fill="none"></path></g><g transform="translate(102.03249613443973 354.4140625) rotate(0 109.64687496609986 15.73742610625925)"><path d="M221.08 31.04 L205.33 35.7 L206.44 23.06 L220.41 29.58" stroke="none" stroke-width="0" fill="#1e1e1e" fill-rule="evenodd"></path><path d="M218.16 31.24 C216.61 30.39, 213.31 33.01, 205.33 34.83 M218.79 31.13 C215.35 32.09, 212.31 32.16, 205.66 35.01 M205.76 34.76 C205.75 32.58, 206.83 29.03, 206.58 22 M204.66 35.35 C205.71 30.89, 205.76 28.2, 207.04 21.93 M205.8 23.47 C212.02 25.48, 216.86 29.91, 218.7 31.77 M207.48 22.3 C209.7 24.46, 213.47 26.47, 219.76 30.98 M219.41 30.56 C219.41 30.56, 219.41 30.56, 219.41 30.56 M219.41 30.56 C219.41 30.56, 219.41 30.56, 219.41 30.56" stroke="#1e1e1e" stroke-width="1" fill="none"></path></g></g><mask></mask><g stroke-linecap="round"><g transform="translate(326.64394661428923 416.0622494102081) rotate(0 112.48870238079405 25.78914066906657)"><path d="M0.58 -0.12 C38.35 8.67, 188.21 43.98, 225.55 52.81 M-0.57 -1.23 C37.14 7.22, 186.71 42.4, 224.65 51.11" stroke="#1e1e1e" stroke-width="1" fill="none"></path></g><g transform="translate(326.64394661428923 416.0622494102081) rotate(0 112.48870238079405 25.78914066906657)"><path d="M226.63 51.9 L209.57 53.37 L212.21 40.83 L225.91 52.33" stroke="none" stroke-width="0" fill="#1e1e1e" fill-rule="evenodd"></path><path d="M224.49 51.22 C222.53 50.79, 219.51 52.9, 208.54 53.46 M224.83 51.2 C219.14 52.32, 213.35 54.04, 209.6 54.89 M208.82 53.79 C211.52 50.36, 211.78 48.76, 211.67 42.48 M209.85 54.74 C210.87 51.67, 211.11 48.97, 213.34 42.22 M213.54 42.95 C215.77 44.49, 220.48 47.5, 224.81 51.46 M213.17 42.27 C215.74 44.4, 219.21 45.94, 224.76 50.89 M224.65 51.11 C224.65 51.11, 224.65 51.11, 224.65 51.11 M224.65 51.11 C224.65 51.11, 224.65 51.11, 224.65 51.11" stroke="#1e1e1e" stroke-width="1" fill="none"></path></g></g><mask></mask><g stroke-linecap="round"><g transform="translate(551.96999613444 397.84714144952375) rotate(0 -224.4123836475519 33.4796717839327)"><path d="M1.15 -0.65 C-73.76 10.81, -374.24 56.34, -449.15 67.61 M0.29 1.62 C-74.78 12.85, -375.17 54.82, -449.97 65.95" stroke="#1e1e1e" stroke-width="1" fill="none"></path></g><g transform="translate(551.96999613444 397.84714144952375) rotate(0 -224.4123836475519 33.4796717839327)"><path d="M-448.21 64.09 L-436.4 59.73 L-436.53 69.89 L-450.5 66.46" stroke="none" stroke-width="0" fill="#1e1e1e" fill-rule="evenodd"></path><path d="M-450.79 66.26 C-444.7 64.51, -441.39 61.33, -436.56 56.43 M-449.61 65.99 C-446.07 62.89, -441.5 60.4, -436.9 58.24 M-437.4 57.46 C-436.91 63.35, -435.01 66.57, -435.84 69.96 M-437.11 57.22 C-436.96 61.17, -436.31 65.24, -435.81 70.11 M-436.79 69.4 C-438.93 69.15, -441.8 68.4, -450.16 65.57 M-435.59 69.91 C-440.53 68.98, -445.01 67.91, -450.05 66.57 M-449.97 65.95 C-449.97 65.95, -449.97 65.95, -449.97 65.95 M-449.97 65.95 C-449.97 65.95, -449.97 65.95, -449.97 65.95" stroke="#1e1e1e" stroke-width="1" fill="none"></path></g></g><mask></mask><g stroke-linecap="round"><g transform="translate(553.3098398844397 505.81640625) rotate(0 -226.07446537800126 14.239634127542331)"><path d="M0.09 -0.24 C-75.12 4.39, -376.91 23.95, -452.24 28.87 M-1.32 -1.41 C-76.07 3.85, -374.7 24.6, -449.95 29.89" stroke="#1e1e1e" stroke-width="1" fill="none"></path></g><g transform="translate(553.3098398844397 505.81640625) rotate(0 -226.07446537800126 14.239634127542331)"><path d="M-450.92 29.7 L-436.64 22.31 L-437.79 33.46 L-449.28 29.23" stroke="none" stroke-width="0" fill="#1e1e1e" fill-rule="evenodd"></path><path d="M-450.25 28.88 C-448.36 27.73, -444.9 26.44, -436.79 22.16 M-449.28 29.73 C-446.68 28.48, -445.05 26.6, -436.72 23.06 M-437.72 21.36 C-435.34 26.16, -436.45 29.2, -436.82 35.23 M-436.21 23.09 C-436.22 27.21, -436.13 32.07, -436.21 35.12 M-435.91 36.68 C-441.74 32.1, -446.21 31.87, -448.76 29.31 M-436.28 34.57 C-440.34 33.12, -444.21 32.56, -450.61 29.89 M-449.95 29.89 C-449.95 29.89, -449.95 29.89, -449.95 29.89 M-449.95 29.89 C-449.95 29.89, -449.95 29.89, -449.95 29.89" stroke="#1e1e1e" stroke-width="1" fill="none"></path></g></g><mask></mask><g transform="translate(572.8508555094397 130.46419270833337) rotate(0 33.21598815917969 10)"><text x="0" y="0" font-family="Virgil, Segoe UI Emoji" font-size="16px" fill="#2f9e44" text-anchor="start" style="white-space: pre;" direction="ltr" dominant-baseline="text-before-edge">[0, 0, 1]</text></g><g transform="translate(245.26966857910065 165.1875000000001) rotate(0 29.879989624023438 10)"><text x="0" y="0" font-family="Virgil, Segoe UI Emoji" font-size="16px" fill="#f08c00" text-anchor="start" style="white-space: pre;" direction="ltr" dominant-baseline="text-before-edge">[0, 1, 1]</text></g><g transform="translate(344.7358144124346 207.140625) rotate(0 33.407989501953125 10)"><text x="0" y="0" font-family="Virgil, Segoe UI Emoji" font-size="16px" fill="#f08c00" text-anchor="start" style="white-space: pre;" direction="ltr" dominant-baseline="text-before-edge">[0, 2, 1]</text></g><g transform="translate(14.677220662434593 246.00130208333337) rotate(0 30.071990966796875 10)"><text x="0" y="0" font-family="Virgil, Segoe UI Emoji" font-size="16px" fill="#e03131" text-anchor="start" style="white-space: pre;" direction="ltr" dominant-baseline="text-before-edge">[1, 2, 1]</text></g><g transform="translate(567.4962310791016 302.73958333333337) rotate(0 36.68798828125 10)"><text x="0" y="0" font-family="Virgil, Segoe UI Emoji" font-size="16px" fill="#2f9e44" text-anchor="start" style="white-space: pre;" direction="ltr" dominant-baseline="text-before-edge">[0, 3, 2]</text></g><g transform="translate(244.8464914957683 251.13476562500006) rotate(0 33.15998840332031 10)"><text x="0" y="0" font-family="Virgil, Segoe UI Emoji" font-size="16px" fill="#f08c00" text-anchor="start" style="white-space: pre;" direction="ltr" dominant-baseline="text-before-edge">[0, 3, 1]</text></g><g transform="translate(11.656387329101335 343.0130208333335) rotate(0 33.59999084472656 10)"><text x="0" y="0" font-family="Virgil, Segoe UI Emoji" font-size="16px" fill="#e03131" text-anchor="start" style="white-space: pre;" direction="ltr" dominant-baseline="text-before-edge">[2, 2, 1]</text></g><g transform="translate(338.6062571207681 365.09635416666674) rotate(0 33.02398681640625 10)"><text x="0" y="0" font-family="Virgil, Segoe UI Emoji" font-size="16px" fill="#f08c00" text-anchor="start" style="white-space: pre;" direction="ltr" dominant-baseline="text-before-edge">[2, 4, 1]</text></g><g transform="translate(235.81328837076762 402.7753906250002) rotate(0 32.847984313964844 10)"><text x="0" y="0" font-family="Virgil, Segoe UI Emoji" font-size="16px" fill="#f08c00" text-anchor="start" style="white-space: pre;" direction="ltr" dominant-baseline="text-before-edge">[2, 5, 1]</text></g><g transform="translate(566.0086008707676 457.78841145833337) rotate(0 35.79998016357422 10)"><text x="0" y="0" font-family="Virgil, Segoe UI Emoji" font-size="16px" fill="#2f9e44" text-anchor="start" style="white-space: pre;" direction="ltr" dominant-baseline="text-before-edge">[2, 5, 4]</text></g><g transform="translate(10.92071024576785 452.39127604166686) rotate(0 36.38398742675781 10)"><text x="0" y="0" font-family="Virgil, Segoe UI Emoji" font-size="16px" fill="#e03131" text-anchor="start" style="white-space: pre;" direction="ltr" dominant-baseline="text-before-edge">[3, 3, 3]</text></g><g transform="translate(10 527.4466145833331) rotate(0 35.0479736328125 10)"><text x="0" y="0" font-family="Virgil, Segoe UI Emoji" font-size="16px" fill="#e03131" text-anchor="start" style="white-space: pre;" direction="ltr" dominant-baseline="text-before-edge">[4, 5, 5]</text></g><g transform="translate(570.7421874999993 497.69401041666663) rotate(0 35.62397766113281 10)"><text x="0" y="0" font-family="Virgil, Segoe UI Emoji" font-size="16px" fill="#2f9e44" text-anchor="start" style="white-space: pre;" direction="ltr" dominant-baseline="text-before-edge">[2, 5, 5]</text></g><g transform="translate(564.4798126220701 386.78906250000034) rotate(0 36.43998718261719 10)"><text x="0" y="0" font-family="Virgil, Segoe UI Emoji" font-size="16px" fill="#2f9e44" text-anchor="start" style="white-space: pre;" direction="ltr" dominant-baseline="text-before-edge">[0, 3, 3]</text></g><g transform="translate(64.75840759277298 74.8815104166668) rotate(0 36.55198669433594 10)"><text x="0" y="0" font-family="Virgil, Segoe UI Emoji" font-size="16px" fill="#1971c2" text-anchor="start" style="white-space: pre;" direction="ltr" dominant-baseline="text-before-edge">[0, 0, 0]</text></g><g transform="translate(288.4074961344395 73.2799479166668) rotate(0 36.55198669433594 10)"><text x="0" y="0" font-family="Virgil, Segoe UI Emoji" font-size="16px" fill="#1971c2" text-anchor="start" style="white-space: pre;" direction="ltr" dominant-baseline="text-before-edge">[0, 0, 0]</text></g><g transform="translate(516.4413503011065 69.65690104166674) rotate(0 36.55198669433594 10)"><text x="0" y="0" font-family="Virgil, Segoe UI Emoji" font-size="16px" fill="#1971c2" text-anchor="start" style="white-space: pre;" direction="ltr" dominant-baseline="text-before-edge">[0, 0, 0]</text></g></svg>
